<?xml version="1.0" encoding="utf-8"?>
<!-- Generator: Adobe Illustrator 18.1.1, SVG Export Plug-In . SVG Version: 6.00 Build 0)  -->
<svg version="1.1" id="Layer_1" xmlns="http://www.w3.org/2000/svg" xmlns:xlink="http://www.w3.org/1999/xlink" x="0px" y="0px"
	 viewBox="0 0 350 250" enable-background="new 0 0 350 250" xml:space="preserve">
<g id="Layer_2">
	<rect fill="#EEEEEE" width="350" height="250"/>
</g>
<g id="Layer_3" display="none">
	<rect x="108.1" y="50.4" display="inline" fill="#BFCA33" width="133.8" height="149.2"/>
</g>
<rect x="108.1" y="50.4" fill="#212121" width="66.9" height="49.7"/>
<text transform="matrix(1 0 0 1 122.7799 82.5386)" fill="#FFFFFF" font-family="'Roboto-Black'" font-size="36">C</text>
<text transform="matrix(0.583 0 0 0.583 145.9127 94.5269)" fill="#FFFFFF" font-family="'Roboto-Black'" font-size="36">1</text>
<rect x="108.1" y="149.9" fill="#212121" width="66.9" height="49.7"/>
<text transform="matrix(1 0 0 1 122.7799 183.2529)" fill="#FFFFFF" font-family="'Roboto-Black'" font-size="36">C</text>
<text transform="matrix(0.583 0 0 0.583 145.9127 195.2412)" fill="#FFFFFF" font-family="'Roboto-Black'" font-size="36">2</text>
<rect x="108.1" y="100.1" fill="#2D3079" width="66.9" height="49.7"/>
<rect x="175" y="50.4" fill="#2D3079" width="66.9" height="99.5"/>
<text transform="matrix(1 0 0 1 193.0299 108.2886)" fill="#FFFFFF" font-family="'Roboto-Black'" font-size="36">V</text>
<text transform="matrix(0.583 0 0 0.583 215.9693 120.2769)" fill="#FFFFFF" font-family="'Roboto-Black'" font-size="36">1</text>
<text transform="matrix(1 0 0 1 122.7801 133.0386)" fill="#FFFFFF" font-family="'Roboto-Black'" font-size="36">V</text>
<text transform="matrix(0.583 0 0 0.583 145.7195 145.0269)" fill="#FFFFFF" font-family="'Roboto-Black'" font-size="36">2</text>
<line fill="none" stroke="#FFFFFF" stroke-width="2" stroke-miterlimit="10" x1="175" y1="50.4" x2="175" y2="149.9"/>
<line fill="none" stroke="#FFFFFF" stroke-width="2" stroke-miterlimit="10" x1="108.1" y1="100.1" x2="175" y2="100.1"/>
<rect x="175" y="149.9" fill="#212121" width="66.9" height="49.7"/>
<line fill="none" stroke="#FFFFFF" stroke-width="2" stroke-miterlimit="10" x1="108.1" y1="149.9" x2="241.9" y2="149.9"/>
<text transform="matrix(1 0 0 1 189.6799 183.2529)" fill="#FFFFFF" font-family="'Roboto-Black'" font-size="36">C</text>
<text transform="matrix(0.583 0 0 0.583 212.8127 195.2412)" fill="#FFFFFF" font-family="'Roboto-Black'" font-size="36">3</text>
<line fill="none" stroke="#FFFFFF" stroke-width="2" stroke-miterlimit="10" x1="175" y1="149.9" x2="175" y2="199.6"/>
</svg>
