<?xml version="1.0" encoding="utf-8"?>
<!-- Generator: Adobe Illustrator 18.1.1, SVG Export Plug-In . SVG Version: 6.00 Build 0)  -->
<svg version="1.1" id="Layer_3" xmlns="http://www.w3.org/2000/svg" xmlns:xlink="http://www.w3.org/1999/xlink" x="0px" y="0px"
	 viewBox="0 0 250 135" enable-background="new 0 0 250 135" xml:space="preserve">
<g>
	<g>
		<g>
			<path fill="#D41F26" d="M27.9,29.5c-2.2-3.8-8-3.3-10.4,0.1c-2.1,3.1-3.3,9.1-1.6,12.6c1.6,3.4,5.3,3.4,8.5,2.7
				c2.7-0.6,7.9-1.8,9.5-4.2c0.4-0.6,0.1-1.4-0.5-1.8c-2.8-2.1-8.6,1.9-11.7,2c-2.5,0.1-2.1-2.1-1.9-4.1c0.3-2.1,1.7-8.2,5-4.9
				C26.5,33.4,29,31.5,27.9,29.5L27.9,29.5z"/>
		</g>
	</g>
	<g>
		<g>
			<path fill="#D41F26" d="M17.3,50.8c0.9,3.8,2.8,8.7,5.9,11.3c1.1,0.9,2.7,0.9,3.5-0.4c1-1.8,1.8-3.7,2.6-5.6
				c0.7-1.5,1.8-3.2,1.1-4.9c-0.2-0.4-0.6-0.9-1.1-0.9c-1.9,0.2-2.8,1.7-3.5,3.2c-1,1.9-1.8,3.9-2.9,5.8c1.2-0.1,2.3-0.3,3.5-0.4
				c-3-2.5-3.4-6.6-5.3-9.7C19.8,47.3,16.8,48.6,17.3,50.8L17.3,50.8z"/>
		</g>
	</g>
	<g>
		<g>
			<path fill="#D41F26" d="M24.9,66.2c-4.2-1-6.9,0.8-8.2,4.9c-1,3.1-1.8,7.8,0.6,10.5c2.1,2.3,5.6,2.8,8.6,2.5
				c2.5-0.3,6.3-1.4,6.4-4.5c0-0.7-0.7-1-1.3-0.7c-3,1.4-7.3,3-10.4,0.6c-1.6-1.2-1-3.8-0.6-5.5c0.2-1.1,0.5-2.7,1.3-3.6
				c0.9-0.9,2.3-0.7,3.5-1C26.5,69,26.4,66.6,24.9,66.2L24.9,66.2z"/>
		</g>
	</g>
</g>
<g>
	<g>
		<g>
			<path fill="#D41F26" d="M229.1,15.4c-1.4-3.7-6.4-4.3-8.4-0.8c-1.6,2.7-2.2,7.2-1.6,10.2c0.7,3.2,3.7,5.3,6.8,5.7
				c2.5,0.3,8.1-1.2,6.9-4.9c-0.2-0.5-0.7-1.1-1.3-1c-1.5,0.2-2.5,1.3-3.9,1.5c-1.3,0.1-3-0.3-3.7-1.4c-0.7-1.1-0.3-3.2-0.1-4.5
				c0.1-0.6,0.7-4.5,1.7-3.2C226.6,18.8,230,17.8,229.1,15.4L229.1,15.4z"/>
		</g>
	</g>
	<g>
		<g>
			<path fill="#D41F26" d="M232.7,13.8c0.4,3.4,2,6.4,3.3,9.5c1.2,2.8,2.2,5.6,4.9,7.4c1.1,0.7,2.5,0.1,3.1-0.8
				c2.4-3.6,3.1-9.2,2.5-13.3c-0.3-2.1-3.1-1.5-3.7,0c-1.4,3.6-0.5,7.7-2.8,11.1c1-0.3,2.1-0.5,3.1-0.8c-1.9-1.2-2.6-4.1-3.5-6.1
				c-1.1-2.4-2.2-4.8-2.9-7.4C236.1,11.1,232.4,11.4,232.7,13.8L232.7,13.8z"/>
		</g>
	</g>
</g>
<g>
	<g>
		<g>
			<path fill="#D41F26" d="M108.7,46c-0.5-3.7-5-4.5-7.9-3c-3.5,1.8-5.9,6.6-6.1,10.4c-0.2,4.2,2.8,6.4,6.7,6.7
				c3.4,0.3,9.4-1,10.4-5c0.2-0.7-0.2-1.7-1-1.8c-2.1-0.4-3.4,1.1-5.3,1.7c-1.2,0.4-4.7,1-5.7-0.2c-1.6-2.1,2.9-10,5.8-7.4
				C106.5,48.4,108.9,47.8,108.7,46L108.7,46z"/>
		</g>
	</g>
	<g>
		<g>
			<path fill="#D41F26" d="M96.9,65.5c-0.1,2.4,1,4.8,2,6.9c1,2.1,2.4,4.8,4.8,5.6c4.7,1.6,7.8-5.9,9.5-9c0.8-1.4,1.2-3.8-1.2-3.8
				c-2.3-0.1-3.7,3.4-4.7,5.1c-0.5,0.8-1.3,2.8-2.2,3.3c-0.5,0.2-0.7-0.2-1.3-1.1c-1.3-1.8-2.9-4.6-2.8-6.9
				C101.1,62.9,97.1,62.9,96.9,65.5L96.9,65.5z"/>
		</g>
	</g>
</g>
<g>
	<g>
		<g>
			<path fill="#D41F26" d="M156,13.8c0.5-3.9-4.1-7.1-7.7-6.1c-3.8,1.1-5.4,5.7-6.2,9.1c-0.9,3.8-1.3,8.5,2.7,10.7
				c3.4,1.9,10.3,0.8,11.3-3.5c0.3-1.2-0.8-2.5-2.1-2.1c-2,0.6-4.2,2.7-6.4,1.9c-2.3-0.9-1.6-3.6-1.2-5.5c0.3-1.7,0.7-3.4,1.6-4.9
				c1.3-2.1,4.3-2,4.9,0.8C153.4,16,155.8,15.3,156,13.8L156,13.8z"/>
		</g>
	</g>
	<g>
		<g>
			<path fill="#D41F26" d="M141.3,33.2c-0.7,2.4,1.2,4.4,2.5,6.2c1.7,2.4,2.8,4.9,4.9,7c1.3,1.4,3.4,0.6,4-1.1
				c0.8-2.2,1-4.4,1.5-6.7c0.4-2.2,1.7-4.1,2-6.3c0.2-1.1-0.6-2-1.8-1.8c-5.3,0.9-4.9,9.7-6.4,13.5c1.3-0.4,2.7-0.7,4-1.1
				c-1.7-1.7-2.6-3.8-4-5.8c-1.1-1.5-2.2-2.9-3-4.5C144.2,31.1,141.8,31.6,141.3,33.2L141.3,33.2z"/>
		</g>
	</g>
	<g>
		<g>
			<path fill="#D41F26" d="M157.9,8.8c-0.2,2.6,0.7,5,1.2,7.5c0.7,3.4,1,6.9,1.6,10.4c0.3,1.6,2.5,1.7,3.3,0.4
				c1.5-2.5,2.1-5.4,2.9-8.2c0.9-3,3.2-5.9,3.3-9.1c0-0.8-0.9-1.2-1.6-0.9c-5.4,2.9-5,11.6-7.7,16.4c1.1,0.1,2.2,0.3,3.3,0.4
				c-0.6-3.1-0.9-6.3-1.6-9.4c-0.6-2.5-1.7-4.9-1.6-7.5C161.1,6.7,158.1,6.8,157.9,8.8L157.9,8.8z"/>
		</g>
	</g>
</g>
<g>
	<g>
		<g>
			<path fill="#D41F26" d="M181.1,52.5c-2.8-1.8-5.6-3.2-8.2-0.2c-2,2.4-2.5,6.1-2.5,9.1c0,3.2,0.9,6.1,4.1,7.2
				c3.2,1.2,7.8-0.1,9.2-3.4c0.2-0.5,0.1-1.1-0.5-1.2c-2-0.5-3.2,0.6-5,1c-2.6,0.5-3.8-0.8-3.8-3.3c0-1.5,0.1-3,0.5-4.5
				c0.2-0.7,0.5-2.2,1.2-2.6c1.2-0.8,2.4,0.4,3.4,0.9C181.3,56.5,183,53.7,181.1,52.5L181.1,52.5z"/>
		</g>
	</g>
	<g>
		<g>
			<path fill="#D41F26" d="M187.4,54.2c-1.3-0.5-1.7-0.4-1.2,0.3c0.1,0.1,0.2,0.3,0.2,0.4c0.1,0.6,0.5,1.3,0.7,1.8
				c0.6,1.6,1,3.2,1.5,4.8c0.7,2.3,1.2,5.1,2.6,7.1c1.2,1.7,3.9,1.1,4-1.1c0.2-5.8,2.9-11.8,5.2-17.1c0.7-1.7-0.8-3.2-2.5-2.5
				c-2.8,1.2-3.5,4.9-4.2,7.5c-1.1,4-2.6,7.8-2.8,12c1.3-0.4,2.7-0.7,4-1.1c-2-2.8-2.4-6.9-3.6-10.1c-0.8-2.3-1.8-5.8-4.7-5.9
				c-1.6-0.1-2.6,2.2-1.4,3.3c0.1,0.1,0.2,0.2,0.4,0.3C186.2,54.3,186.9,54.5,187.4,54.2L187.4,54.2z"/>
		</g>
	</g>
	<g>
		<g>
			<path fill="#D41F26" d="M176.1,75.9c0.7,1.4,2.4,2,3.5,2.9c0.9,0.8,1.6,1.6,2.3,2.5c1.2,1.5,2.9,3.9,5.1,3.5
				c1.8-0.4,2.8-2.5,3.7-3.9c1.3-2.2,3.1-4.5,4-6.9c0.4-1.2-0.9-2.2-2-2c-2,0.4-3.1,2.6-4.1,4.2c-0.6,1-1.1,2-1.6,2.9
				c-0.2,0.3-0.8,1-0.8,1.4c-0.1,0.1-0.2,0.3-0.3,0.4c1,0.1,1.3,0,0.8-0.3c0-0.4-1.7-1.9-2.1-2.3c-0.7-0.8-1.3-1.5-2.2-2.2
				c-1.5-1.2-3.9-3.3-5.8-1.9C175.9,74.5,175.7,75.2,176.1,75.9L176.1,75.9z"/>
		</g>
	</g>
	<g>
		<g>
			<path fill="#D41F26" d="M186.4,90c-0.4-3.3-3.2-5.1-6.4-3.9c-3,1.1-5.7,4-6.8,7c-3.4,8.9,12.5,12.6,13.3,3.9
				c0.1-0.7-0.7-1.4-1.3-1.3c-2.3,0.3-2.9,2.7-5.4,2.3c-2-0.4-3.7-1.4-2.8-3.6c0.5-1.2,4.5-6.4,5.6-3.9
				C183.4,92.3,186.7,92.4,186.4,90L186.4,90z"/>
		</g>
	</g>
	<g>
		<g>
			<path fill="#D41F26" d="M198.3,89.4c1-3.8-5-4.5-7.3-3.2c-2.8,1.6-3.1,6.4-2.6,9.2c0.5,3.2,3.3,5,6.3,5.5
				c2.7,0.4,7.4-0.1,8.2-3.3c0.4-1.7-1.3-2.7-2.7-2.1c-1.4,0.6-2.2,1.5-4,1.4c-1.2-0.1-3-0.4-3.5-1.7c-0.4-1-0.3-4.1,0.4-5
				c0.8-1,2.4,0,3.4,0.3C197.1,90.8,198.1,90.2,198.3,89.4L198.3,89.4z"/>
		</g>
	</g>
</g>
<g>
	<g>
		<g>
			<path fill="#D41F26" d="M62.1,87.3c-2.1-4.4-7.4-5-10.1-1c-2,3-3.1,8.8-0.3,11.6c2.2,2.2,9.3,3.7,11.1,0.1c0.9-1.7-0.3-3-2.1-2.7
				c-1.7,0.3-3.8,0.6-5.5-0.3c-1.5-0.8-0.7-3.9-0.2-5.1c0.2-0.6,0.7-2,1.5-2.2c1-0.3,2.1,1.3,2.7,1.8C60.8,90.9,63,89.2,62.1,87.3
				L62.1,87.3z"/>
		</g>
	</g>
	<g>
		<g>
			<path fill="#D41F26" d="M52,103c-1.1,1.6,0.3,4.2,0.9,5.7c0.8,1.7,1.9,3.9,3.7,4.7c2.1,0.8,4-0.6,5.2-2.1
				c1.2-1.5,3.1-4.2,2.6-6.2c-0.3-0.9-1.4-1.5-2.3-0.9c-1.2,0.8-2.9,6.2-4.2,5.9c-0.8-0.2-1.8-2.6-2.1-3.2c-0.6-1.1-0.8-2.7-1.5-3.7
				C53.8,102.2,52.6,102.2,52,103L52,103z"/>
		</g>
	</g>
	<g>
		<g>
			<path fill="#D41F26" d="M56.7,117.6c-3.5-3.4-9.6,0-10.3,4.2c-0.4,2.2,0.4,4.5,2.5,5.7c1.8,1,4.5,1.2,6.5,0.4
				c1.2-0.6,1.2-2.6,0-3.2c-1.2-0.6-2.4-0.5-3.6-0.7c-0.8-0.2-1.1-0.4-1.1-1.3c0.3-2.3,3.2-2,4.8-2.2
				C56.9,120.3,57.8,118.7,56.7,117.6L56.7,117.6z"/>
		</g>
	</g>
	<g>
		<g>
			<path fill="#D41F26" d="M66.2,116c-4.1-1-7,2.5-7.3,6.3c-0.3,4.4,3.1,7,7.1,7.4c1.5,0.1,4.4-0.2,4.3-2.3c0-2.1-2.5-1.7-3.9-1.8
				c-1.6-0.2-3.3-0.8-3.4-2.6c-0.1-1.6,0.9-3.2,2.6-3.4C67.7,119.4,68.3,116.5,66.2,116L66.2,116z"/>
		</g>
	</g>
</g>
<g>
	<g>
		<g>
			<path fill="#D41F26" d="M133.5,94.2c-3-0.3-5.8-0.3-8,2.1c-1.9,2.1-2.8,5.7-1.3,8.3c1.3,2.2,3.9,3.7,6.4,4.1
				c2.4,0.4,6.1-0.5,5.9-3.6c-0.1-1.1-1.4-2.2-2.5-1.4c-1,0.7-1.6,1.3-2.9,1c-1.3-0.2-2.8-1-3.4-2.2c-0.6-1.2,0-3,0.9-3.9
				c1.2-1.1,3.3-1.6,4.8-1.8C135.2,96.6,135.2,94.4,133.5,94.2L133.5,94.2z"/>
		</g>
	</g>
	<g>
		<g>
			<path fill="#D41F26" d="M136.4,95c-0.5,2,0.6,4.9,1.2,6.8c0.7,2.2,1.5,4.4,3,6.2c0.6,0.7,1.9,0.9,2.7,0.3c1.8-1.2,2.4-3,3.3-4.8
				c1-2,3.2-3.5,3.4-5.8c0.1-0.5-0.4-1.1-0.9-1.2c-2.3-0.5-3.9,1.5-5.1,3.2c-1,1.3-1.4,3.9-2.9,4.8c0.9,0.1,1.8,0.2,2.7,0.3
				c-1.2-1.4-1.7-3.7-2.2-5.4c-0.5-1.8-0.7-3.9-1.9-5.4C138.7,92.9,136.7,93.6,136.4,95L136.4,95z"/>
		</g>
	</g>
	<g>
		<g>
			<path fill="#D41F26" d="M140.3,110.9c-2-0.1-4.3-0.2-6,1c-1.9,1.3-2.4,3.3-2.6,5.4c-0.3,3.3,0,8.5,4.2,9c1.8,0.2,3.5-0.5,5-1.4
				c1.4-0.8,3.7-2.3,3.2-4.2c-1-3.8-5.8,1.6-7.6,1c0.3,0.1,0.1,0.1,0-0.5c-0.1-0.3-0.1-0.6-0.1-0.9c-0.1-1-0.1-2.1,0-3.1
				c0.1-0.7,0.1-1.4,0.8-1.6c1.1-0.4,2.5-0.1,3.6-0.5C143.3,114.5,142.8,111,140.3,110.9L140.3,110.9z"/>
		</g>
	</g>
</g>
<g>
	<g>
		<g>
			<path fill="#D41F26" d="M61.8,4.7c-1.3,0.2-2.6,0-3.9,0.4c-1.6,0.5-2.8,1.9-3.6,3.3c-1.5,2.8-2.5,6.5-1.7,9.6
				c1.3,5.5,8.5,6.7,13,4.6c1.4-0.7,4.6-3.2,2.1-4.8c-1.1-0.7-2.1,0-3.1,0.4c-1,0.4-2.1,0.6-3.2,0.7c-3,0.1-4.5-1.1-4.1-4.1
				c0.2-1.3,0.8-4.3,2.1-4.9c1-0.5,2.6-0.2,3.7-0.5C66,8.3,64.9,4.1,61.8,4.7L61.8,4.7z"/>
		</g>
	</g>
	<g>
		<g>
			<path fill="#D41F26" d="M68,6c0,2.6,1.9,5.8,3,8c1,2.3,2.6,6,5.2,6.8c3.1,0.9,4.5-2.6,5.1-5c0.8-2.9,1.7-6.5,1.5-9.6
				c-0.1-1.5-1.9-2.4-3.1-1.3c-1.6,1.6-1.7,4.3-2,6.4c-0.2,1.4-0.5,2.8-0.9,4.2c0,0-0.4,1.1-0.4,1.1c0.4-0.2,0.8-0.2,1.2-0.1
				c0-0.1,0-0.1-0.1-0.2c0-0.4-1.5-2.2-1.7-2.7c-0.6-1.2-1.2-2.4-1.8-3.6c-0.8-1.8-1.3-4-2.5-5.5C70.3,3.1,68,4.4,68,6L68,6z"/>
		</g>
	</g>
	<g>
		<g>
			<path fill="#D41F26" d="M62.9,25.7c-0.6,3.5,2.6,10,6.5,10.4c2.4,0.3,3.9-1.9,4.9-3.7c0.6-1.1,1-2.2,1.7-3.2
				c1.1-1.4,2.6-2.3,3.6-3.8c1-1.6-1-3.5-2.6-2.6c-3.3,1.8-5.4,4.9-6.9,8.2c0,0.1-0.7,1-0.3,0.8c0.2-0.1,0.1,0-0.3-0.3
				c-0.5-0.6-1-1.2-1.4-1.9c-0.8-1.3-1.1-2.6-1.6-4C66,24.2,63.3,23.7,62.9,25.7L62.9,25.7z"/>
		</g>
	</g>
	<g>
		<g>
			<path fill="#D41F26" d="M70.8,37.8c-4.4-0.1-8.2,0.9-10.4,5c-1.7,3.2-2.2,8.1,0.5,10.9c2.2,2.3,5.8,2.3,8.7,1.5
				c2.4-0.7,6.9-2.5,6.2-5.7c-0.1-0.6-0.7-0.9-1.2-0.9c-1.7-0.1-3,1.3-4.5,2c-1.4,0.6-3.7,1.2-5.2,0.5c-2-0.9-1.4-4-0.7-5.6
				c1.2-3,3.8-3.3,6.6-3.4C73.5,42.1,73.5,37.9,70.8,37.8L70.8,37.8z"/>
		</g>
	</g>
</g>
<g>
	<g>
		<g>
			<path fill="#D41F26" d="M229.1,94.8c-2.3-3.4-7.7-2.1-10.4,0c-2.8,2.2-5,6.6-3.8,10.2c1.7,5.3,12.2,6.6,15.2,2
				c0.3-0.5,0.4-1.5,0-2c-0.1-0.1-0.1-0.2-0.1-0.2c-0.2-0.4-0.7-0.7-1.2-0.7c-0.2,0-1.2,0.3-1.9,0.5c-0.7,0.3-1.3,0.4-2,0.4
				c-1.4,0.1-3.9,0-5-1.1c-1.2-1.2,0.2-3.8,1.2-4.9c0.7-0.8,1.7-1.4,2.7-1.7c1.4-0.3,2.5,0.4,3.8,0.2
				C228.8,97.5,230,96.1,229.1,94.8L229.1,94.8z"/>
		</g>
	</g>
	<g>
		<g>
			<path fill="#D41F26" d="M231.7,94.8c0.5,0.5,1.1,0.7,1.5,1.3c0.5,0.7,0.7,1.7,0.9,2.6c0.5,1.9,0.9,4,2,5.7
				c1.1,1.7,3.3,2.8,5.2,1.7c1.8-1,2.4-3.4,2.9-5.2c0.6-2.2,1.7-4.4,1.9-6.6c0.3-2.5-2.7-4-4-1.5c-1,1.9-1.6,4.4-2.1,6.5
				c-0.2,0.8-0.9,2-0.8,2.7c0,0.1-0.1,0.1-0.1,0.2c-0.3,0.4,0,0.4,0.8-0.1c0.2-0.2,0,0.5,0,0c0-0.1-0.6-0.9-0.6-1
				c-1.2-2.7-2.2-11.5-7.3-9C231.1,92.5,230.9,94,231.7,94.8L231.7,94.8z"/>
		</g>
	</g>
	<g>
		<g>
			<path fill="#D41F26" d="M229.3,113.5c-3.5-0.4-6.7-0.5-9.1,2.4c-2,2.3-3.1,6.5-2.4,9.5c0.6,2.7,2.7,4,5.3,4.4
				c2.7,0.4,6.6,0.8,8.2-2c0.5-0.9-0.1-2-1.1-2c-2,0-8,1.1-8.2-1.9c-0.1-1.9,0.7-4.7,2.3-5.9c1.5-1.2,3.9-0.5,5.7-0.8
				C232.2,117,231.3,113.7,229.3,113.5L229.3,113.5z"/>
		</g>
	</g>
	<g>
		<g>
			<path fill="#D41F26" d="M242.9,113.5c-3.3-1.3-6.7-1.3-8.9,1.8c-1.7,2.4-2.2,5.8-1.7,8.7c0.5,3.1,2.5,4.8,5.4,5.7
				c2.6,0.8,6.7,2.1,9.2,0.5c1.6-1,1-3.6-1-3.5c-2.5,0-8.4-0.4-9.2-3.2c-0.4-1.4-0.1-3.5,0.4-4.8c1.1-2.5,3.6-1.4,5.7-2.2
				C244.4,116,244.4,114.1,242.9,113.5L242.9,113.5z"/>
		</g>
	</g>
</g>
</svg>
