<?xml version="1.0" encoding="utf-8"?>
<!-- Generator: Adobe Illustrator 18.1.1, SVG Export Plug-In . SVG Version: 6.00 Build 0)  -->
<svg version="1.1" xmlns="http://www.w3.org/2000/svg" xmlns:xlink="http://www.w3.org/1999/xlink" x="0px" y="0px"
	 viewBox="0 0 350 250" enable-background="new 0 0 350 250" xml:space="preserve">
<g id="Layer_4_1_">
	<rect fill="#FDEBEE" width="350" height="250"/>
</g>
<g id="Layer_3">
	<g id="Layer_1_1_">
		<rect x="122.6" y="69.5" fill="#273C90" width="107.8" height="76.7"/>
	</g>
	<g id="Layer_3_1_">
		<polygon fill="#F5F6F6" points="122.6,108.2 127.8,108.2 176.9,74.4 176.9,69.5 171.7,69.5 122.6,103.3 		"/>
		<polygon fill="#F5F6F6" points="176.9,108.2 171.7,108.2 122.6,74.4 122.6,69.5 127.8,69.5 176.9,103.3 		"/>
	</g>
	<g id="Layer_4">
		<polygon fill="#C52A29" points="176.9,69.5 176.9,70.5 148,90.4 146.3,88 173.2,69.5 		"/>
		<polygon fill="#C52A29" points="148.9,92.8 126.6,108.2 122.6,108.2 122.6,107.4 147.3,90.4 		"/>
		<polygon fill="#C52A29" points="122.6,73.3 148.8,91.4 150.5,89 122.6,69.7 		"/>
		<polygon fill="#C52A29" points="149.1,88.6 176.9,107.7 176.9,104.2 150.8,86.2 		"/>
	</g>
	<g id="Layer_2_1_">
		<rect x="145.2" y="69.5" fill="#F5F6F6" width="9" height="38.7"/>
		<rect x="122.6" y="84.4" fill="#F5F6F6" width="54.4" height="9"/>
		<rect x="122.6" y="85.7" fill="#C52A29" width="54.4" height="6.2"/>
		<rect x="146.6" y="69.5" fill="#C52A29" width="6.2" height="38.7"/>
	</g>
	<g id="Layer_5">
		<polygon fill="#FFFFFF" points="149.7,116.3 152.4,123.3 159.7,121.1 155.9,127.6 162.1,131.9 154.7,133 155.2,140.5 149.7,135.4 
			144.1,140.5 144.7,133 137.2,131.9 143.4,127.6 139.7,121.1 146.9,123.3 		"/>
		<polygon fill="#FFFFFF" points="206.4,132.2 207.2,134.4 209.4,133.7 208.3,135.7 210.2,137 207.9,137.3 208.1,139.6 206.4,138.1 
			204.7,139.6 204.8,137.3 202.5,137 204.4,135.7 203.3,133.7 205.5,134.4 		"/>
		<polygon fill="#FFFFFF" points="200.5,78.2 201.4,80.3 203.6,79.6 202.4,81.7 204.3,83 202,83.3 202.2,85.6 200.5,84 198.8,85.6 
			199,83.3 196.7,83 198.6,81.7 197.4,79.6 199.7,80.3 		"/>
		<polygon fill="#FFFFFF" points="189.1,100.6 190,102.7 192.2,102.1 191,104.1 192.9,105.4 190.6,105.7 190.8,108 189.1,106.4 
			187.4,108 187.6,105.7 185.3,105.4 187.2,104.1 186,102.1 188.3,102.7 		"/>
		<polygon fill="#FFFFFF" points="215.3,92 216.1,94.1 218.4,93.5 217.2,95.5 219.1,96.8 216.8,97.1 217,99.4 215.3,97.9 
			213.6,99.4 213.8,97.1 211.5,96.8 213.4,95.5 212.2,93.5 214.4,94.1 		"/>
		<polygon fill="#FFFFFF" points="210.1,107 210.6,108 211.8,108.2 210.9,109 211.1,110.1 210.1,109.6 209.1,110.1 209.3,109 
			208.5,108.2 209.6,108 		"/>
	</g>
</g>
<g id="Layer_1">
	<g id="XMLID_1_">
		<g>
			<path fill="#D32E2E" d="M239.3,27.4v192.4c0,1.1-0.9,2-2,2h-2.5c1.1,0,2-0.9,2-2V27.4c0-1.1-0.9-2-2-2h2.5
				C238.4,25.4,239.3,26.3,239.3,27.4z"/>
			<path fill="#D32E2E" d="M236.8,27.4v192.4c0,1.1-0.9,2-2,2H113.2V25.4h121.6C235.9,25.4,236.8,26.3,236.8,27.4z M230,146.2V69.5
				H122.6v76.7H230z"/>
			<path fill="#B72025" d="M113.2,25.4v196.4h-0.5c-1.1,0-2-0.9-2-2V27.4c0-1.1,0.9-2,2-2H113.2z"/>
		</g>
		<g>
		</g>
	</g>
</g>
<g id="Layer_2">
	<text transform="matrix(1 0 0 1 121.558 206)" fill="#FFFFFF" font-family="'Roboto-Black'" font-size="13">CITIZEN OF</text>
	<text transform="matrix(1 0 0 1 121.5578 59.0433)" fill="#FFFFFF" font-family="'Roboto-Black'" font-size="22">PASSPORT</text>
	<g>
		<g>
			<path fill="#FFFFFF" d="M192.5,202.4c4.8,7.5,8.2-4.9,10.8-7.8c-0.9-0.4-1.7-0.7-2.6-1.1c-0.1,2.3-1.3,16,4.5,13.9
				c4.8-1.7,1.5-10.5,4.8-13.1c-0.8-0.1-1.6-0.2-2.4-0.3c1.1,2.4,2.1,15.6,7.9,11.4c1-0.8,1.1-2.3,1.9-3.1c1.6-1.5,2.2-0.1,3.9,1
				c3.7,2.4,5.8,0.1,9.5-0.6c1.9-0.4,1.1-3.3-0.8-2.9c-2.7,0.5-4.6,2.4-7.8,0.4c-1-0.6-1.4-1.7-2.5-2.2c-1.2-0.5-2.3-0.3-3.3,0.5
				c-1.5,1.1-1.8,5.8-3.9,2.6c-1.4-2.3-1.2-6-2.3-8.6c-0.4-1-1.7-0.8-2.4-0.3c-2.2,1.7-2.1,5.9-2.6,8.4c-0.2,0.9-0.2,1.8-0.6,2.6
				c-0.7,1.8-0.2,1.2-0.7-0.2c-1-2.8-0.5-6.6-0.3-9.5c0.1-1.3-1.7-2-2.6-1.1c-1,1.1-1.4,2.1-2,3.4c-0.5,1.1-3,6.7-4.1,5
				C194,199.3,191.4,200.8,192.5,202.4L192.5,202.4z"/>
		</g>
	</g>
</g>
</svg>
