<?xml version="1.0" encoding="utf-8"?>
<!-- Generator: Adobe Illustrator 18.1.1, SVG Export Plug-In . SVG Version: 6.00 Build 0)  -->
<svg version="1.1" xmlns="http://www.w3.org/2000/svg" xmlns:xlink="http://www.w3.org/1999/xlink" x="0px" y="0px"
	 viewBox="0 0 350 250" enable-background="new 0 0 350 250" xml:space="preserve">
<g id="Layer_4_1_">
	<rect fill="#E1F3F7" width="350" height="250"/>
</g>
<g id="Layer_3">
	<rect x="122.5" y="69.5" fill="#212121" width="35.8" height="76.7"/>
	<rect x="158.6" y="69.5" fill="#FDE938" width="35.8" height="76.7"/>
	<rect x="194.2" y="69.5" fill="#C52A29" width="35.8" height="76.7"/>
</g>
<g id="Layer_1">
	<g id="XMLID_1_">
		<g>
			<path fill="#89D3E2" d="M239.3,27.4v192.4c0,1.1-0.9,2-2,2h-2.5c1.1,0,2-0.9,2-2V27.4c0-1.1-0.9-2-2-2h2.5
				C238.4,25.4,239.3,26.3,239.3,27.4z"/>
			<path fill="#89D3E2" d="M236.8,27.4v192.4c0,1.1-0.9,2-2,2H113.2V25.4h121.6C235.9,25.4,236.8,26.3,236.8,27.4z M230,146.2V69.5
				H122.6v76.7H230z"/>
			<path fill="#5AC7DA" d="M113.2,25.4v196.4h-0.5c-1.1,0-2-0.9-2-2V27.4c0-1.1,0.9-2,2-2H113.2z"/>
		</g>
		<g>
		</g>
	</g>
</g>
<g id="Layer_2">
	<text transform="matrix(1 0 0 1 121.558 206)" fill="#FFFFFF" font-family="'Roboto-Black'" font-size="13">CITIZEN OF</text>
	<text transform="matrix(1 0 0 1 121.5578 59.0433)" fill="#FFFFFF" font-family="'Roboto-Black'" font-size="22">PASSPORT</text>
	<g>
		<g>
			<path fill="#FFFFFF" d="M192.5,202.4c4.8,7.5,8.2-4.9,10.8-7.8c-0.9-0.4-1.7-0.7-2.6-1.1c-0.1,2.3-1.3,16,4.5,13.9
				c4.8-1.7,1.5-10.5,4.8-13.1c-0.8-0.1-1.6-0.2-2.4-0.3c1.1,2.4,2.1,15.6,7.9,11.4c1-0.8,1.1-2.3,1.9-3.1c1.6-1.5,2.2-0.1,3.9,1
				c3.7,2.4,5.8,0.1,9.5-0.6c1.9-0.4,1.1-3.3-0.8-2.9c-2.7,0.5-4.6,2.4-7.8,0.4c-1-0.6-1.4-1.7-2.5-2.2c-1.2-0.5-2.3-0.3-3.3,0.5
				c-1.5,1.1-1.8,5.8-3.9,2.6c-1.4-2.3-1.2-6-2.3-8.6c-0.4-1-1.7-0.8-2.4-0.3c-2.2,1.7-2.1,5.9-2.6,8.4c-0.2,0.9-0.2,1.8-0.6,2.6
				c-0.7,1.8-0.2,1.2-0.7-0.2c-1-2.8-0.5-6.6-0.3-9.5c0.1-1.3-1.7-2-2.6-1.1c-1,1.1-1.4,2.1-2,3.4c-0.5,1.1-3,6.7-4.1,5
				C194,199.3,191.4,200.8,192.5,202.4L192.5,202.4z"/>
		</g>
	</g>
</g>
</svg>
