<?xml version="1.0" encoding="utf-8"?>
<!-- Generator: Adobe Illustrator 18.1.1, SVG Export Plug-In . SVG Version: 6.00 Build 0)  -->
<svg version="1.1" xmlns="http://www.w3.org/2000/svg" xmlns:xlink="http://www.w3.org/1999/xlink" x="0px" y="0px"
	 viewBox="0 0 350 250" enable-background="new 0 0 350 250" xml:space="preserve">
<g id="Layer_2">
	<g id="Layer_1_1_">
		<rect x="150.6" y="45.7" fill="#4FAF4C" width="76" height="94.2"/>
		<rect x="226.6" y="45.7" fill="#F5F6F6" width="76" height="94.2"/>
	</g>
	<g id="Layer_2_1_">
		<g>
			<path fill="#C52A29" d="M249.4,107.8c-4.9,7.2-12,11.4-20.7,11.4c-13.7,0-24.9-11.4-24.9-25.5s11.1-25.4,24.9-25.5
				c8.2-0.1,15.2,4,20,10.3c0,0-12-9.2-21.3-6.2c-4.1,1.3-6.5,2.5-9.2,5.7c-3.6,4.3-5.7,13.5-5.7,15.8c0.1,3.2,0.3,11,4.8,15.4
				c2.7,2.6,5.1,4.1,9.4,5.8C237.9,119.4,249.4,107.8,249.4,107.8z"/>
			<polygon fill="#C52A29" points="234.8,100.9 231.6,96.2 226,96.3 229.3,91.7 227.5,86.3 232.8,88.2 237.3,84.7 237.2,90.4 
				241.8,93.7 236.4,95.4 			"/>
		</g>
	</g>
</g>
<g id="Layer_3">
	<g id="XMLID_1_">
		<g>
			<path fill="#F5F5F5" d="M151.6,96.1l21.4,9.6c0,0-4.5,21.2,0,25.8c7.6,7.9,92.5,10.2,102,0.3c7.1-7.4,6.1-67,0-76.5
				c-5.6-8.7-95-4-102,1.4c-6.3,4.8,0,31.7,0,31.7L151.6,96.1z M350,0v250H0V0H350z"/>
		</g>
		<g>
			<path fill="none" stroke="#000000" stroke-width="2" stroke-miterlimit="10" d="M275,55.4c-5.6-8.7-95-4-102,1.4
				c-6.3,4.8,0,31.7,0,31.7l-21.4,7.7l21.4,9.6c0,0-4.5,21.2,0,25.8c7.6,7.9,92.5,10.2,102,0.3C282.1,124.5,281.1,64.9,275,55.4z"/>
		</g>
	</g>
</g>
<g id="Layer_1">
	<path fill="#212121" d="M23.8,249.9c3.9-50.6,32.7-89.9,67.7-89.9s63.8,39.2,67.7,89.9L23.8,249.9z"/>
	<circle fill="#212121" cx="91.4" cy="122.9" r="37.2"/>
</g>
</svg>
