<?xml version="1.0" encoding="utf-8"?>
<!-- Generator: Adobe Illustrator 18.1.1, SVG Export Plug-In . SVG Version: 6.00 Build 0)  -->
<svg version="1.1" xmlns="http://www.w3.org/2000/svg" xmlns:xlink="http://www.w3.org/1999/xlink" x="0px" y="0px"
	 viewBox="0 0 350 250" enable-background="new 0 0 350 250" xml:space="preserve">
<g id="Layer_2">
	<rect x="162.5" y="48.5" fill="#3AA4DC" width="125.7" height="29.9"/>
	<rect x="162.5" y="108.3" fill="#3AA4DC" width="125.7" height="29.9"/>
	<rect x="147.5" y="78.4" fill="#F5F6F6" width="140.7" height="29.9"/>
	<polygon fill="#FDE938" stroke="#FDD839" stroke-width="0.25" stroke-miterlimit="10" points="225.3,80.4 225.9,86.9 227.6,80.6 
		227,87.1 229.8,81.2 228.1,87.5 231.9,82.1 229.1,88.1 233.7,83.4 230,88.8 235.4,85.1 230.7,89.7 236.7,86.9 231.3,90.7 237.6,89 
		231.7,91.8 238.2,91.2 231.9,92.9 238.4,93.5 231.9,94 238.2,95.7 231.7,95.2 237.6,98 231.3,96.2 236.7,100 230.7,97.2 
		235.4,101.9 230,98.1 233.7,103.5 229.1,98.8 231.9,104.8 228.1,99.4 229.8,105.8 227,99.8 227.6,106.4 225.9,100 225.3,106.6 
		224.8,100 223.1,106.4 223.6,99.8 220.9,105.8 222.6,99.4 218.8,104.8 221.6,98.8 216.9,103.5 220.7,98.1 215.3,101.9 220,97.2 
		214,100 219.4,96.2 213,98 219,95.2 212.4,95.7 218.8,94 212.2,93.5 218.8,92.9 212.4,91.2 219,91.8 213,89 219.4,90.7 214,86.9 
		220,89.7 215.3,85.1 220.7,88.8 216.9,83.4 221.6,88.1 218.8,82.1 222.6,87.5 220.9,81.2 223.6,87.1 223.1,80.6 224.8,86.9 	"/>
	<g>
		<g>
			<path fill="#F37124" d="M223.6,92.1C223.6,92.1,223.6,92.1,223.6,92.1c0-0.6-0.8-0.6-0.8-0.1c0,0,0,0.1,0,0.1
				C222.8,92.6,223.6,92.6,223.6,92.1L223.6,92.1z"/>
		</g>
	</g>
	<g>
		<g>
			<path fill="#F37124" d="M226.9,92.5c0.5,0,0.5-0.8,0-0.8C226.3,91.7,226.3,92.5,226.9,92.5L226.9,92.5z"/>
		</g>
	</g>
	<g>
		<g>
			<path fill="#F37124" d="M222.4,95.7c1.4,2.4,4.7,2.1,5.7-0.4c0.2-0.5-0.6-0.7-0.8-0.2c-0.8,1.9-3.3,2-4.2,0.2
				C222.8,94.8,222.1,95.3,222.4,95.7L222.4,95.7z"/>
		</g>
	</g>
</g>
<g id="Layer_3">
	<g id="XMLID_1_">
		<g>
			<path fill="#F5F5F5" d="M151.6,96.1l21.4,9.6c0,0-4.5,21.2,0,25.8c7.6,7.9,92.5,10.2,102,0.3c7.1-7.4,6.1-67,0-76.5
				c-5.6-8.7-95-4-102,1.4c-6.3,4.8,0,31.7,0,31.7L151.6,96.1z M350,0v250H0V0H350z"/>
		</g>
		<g>
			<path fill="none" stroke="#000000" stroke-width="2" stroke-miterlimit="10" d="M275,55.4c-5.6-8.7-95-4-102,1.4
				c-6.3,4.8,0,31.7,0,31.7l-21.4,7.7l21.4,9.6c0,0-4.5,21.2,0,25.8c7.6,7.9,92.5,10.2,102,0.3C282.1,124.5,281.1,64.9,275,55.4z"/>
		</g>
	</g>
</g>
<g id="Layer_1">
	<path fill="#212121" d="M23.8,249.9c3.9-50.6,32.7-89.9,67.7-89.9s63.8,39.2,67.7,89.9L23.8,249.9z"/>
	<circle fill="#212121" cx="91.4" cy="122.9" r="37.2"/>
</g>
</svg>
