<?xml version="1.0" encoding="utf-8"?>
<!-- Generator: Adobe Illustrator 18.1.1, SVG Export Plug-In . SVG Version: 6.00 Build 0)  -->
<svg version="1.1" xmlns="http://www.w3.org/2000/svg" xmlns:xlink="http://www.w3.org/1999/xlink" x="0px" y="0px"
	 viewBox="0 0 350 250" enable-background="new 0 0 350 250" xml:space="preserve">
<g id="Layer_2">
	<g id="Layer_1_1_">
		<rect x="152.1" y="48.3" fill="#273C90" width="127.9" height="91.3"/>
	</g>
	<g id="Layer_3_1_">
		<polygon fill="#F5F6F6" points="152.1,94.3 158.2,94.3 216.5,54.1 216.5,48.3 210.3,48.3 152.1,88.5 		"/>
		<polygon fill="#F5F6F6" points="216.5,94.3 210.3,94.3 152.1,54.1 152.1,48.3 158.2,48.3 216.5,88.5 		"/>
	</g>
	<g id="Layer_4">
		<polygon fill="#C52A29" points="216.5,48.3 216.5,49.4 182.2,73.1 180.2,70.3 212.1,48.3 		"/>
		<polygon fill="#C52A29" points="183.3,76 156.8,94.3 152.1,94.3 152.1,93.4 181.4,73.1 		"/>
		<polygon fill="#C52A29" points="152.1,52.7 183.2,74.3 185.2,71.5 152.1,48.6 		"/>
		<polygon fill="#C52A29" points="183.5,71 216.5,93.8 216.5,89.6 185.5,68.2 		"/>
	</g>
	<g id="Layer_2_1_">
		<rect x="178.9" y="48.3" fill="#F5F6F6" width="10.7" height="46"/>
		<rect x="152.1" y="65.9" fill="#F5F6F6" width="64.4" height="10.7"/>
		<rect x="152.1" y="67.6" fill="#C52A29" width="64.4" height="7.4"/>
		<rect x="180.6" y="48.3" fill="#C52A29" width="7.4" height="46"/>
	</g>
	<g id="Layer_5">
		<polygon fill="#FFFFFF" points="184.2,104 187.5,112.3 196.1,109.7 191.6,117.5 199,122.5 190.1,123.9 190.8,132.8 184.2,126.7 
			177.6,132.8 178.3,123.9 169.4,122.5 176.8,117.5 172.4,109.7 180.9,112.3 		"/>
		<polygon fill="#FFFFFF" points="251.4,122.9 252.4,125.5 255.1,124.7 253.7,127 256,128.6 253.3,129 253.5,131.7 251.4,129.9 
			249.4,131.7 249.6,129 246.9,128.6 249.2,127 247.8,124.7 250.4,125.5 		"/>
		<polygon fill="#FFFFFF" points="244.5,58.6 245.5,61.2 248.1,60.3 246.8,62.7 249,64.3 246.3,64.7 246.5,67.4 244.5,65.6 
			242.5,67.4 242.7,64.7 240,64.3 242.2,62.7 240.9,60.3 243.5,61.2 		"/>
		<polygon fill="#FFFFFF" points="231,85.3 232,87.8 234.6,87 233.2,89.4 235.5,91 232.8,91.4 233,94.1 231,92.2 229,94.1 
			229.2,91.4 226.4,91 228.7,89.4 227.3,87 230,87.8 		"/>
		<polygon fill="#FFFFFF" points="262,75 263,77.6 265.7,76.8 264.3,79.2 266.6,80.7 263.9,81.1 264.1,83.9 262,82 260,83.9 
			260.2,81.1 257.5,80.7 259.8,79.2 258.4,76.8 261,77.6 		"/>
		<polygon fill="#FFFFFF" points="255.9,92.9 256.5,94.1 257.8,94.3 256.9,95.3 257.1,96.6 255.9,96 254.7,96.6 255,95.3 254,94.3 
			255.3,94.1 		"/>
	</g>
</g>
<g id="Layer_3">
	<g id="XMLID_1_">
		<g>
			<path fill="#F5F5F5" d="M151.6,96.1l21.4,9.6c0,0-4.5,21.2,0,25.8c7.6,7.9,92.5,10.2,102,0.3c7.1-7.4,6.1-67,0-76.5
				c-5.6-8.7-95-4-102,1.4c-6.3,4.8,0,31.7,0,31.7L151.6,96.1z M350,0v250H0V0H350z"/>
		</g>
		<g>
			<path fill="none" stroke="#000000" stroke-width="2" stroke-miterlimit="10" d="M275,55.4c-5.6-8.7-95-4-102,1.4
				c-6.3,4.8,0,31.7,0,31.7l-21.4,7.7l21.4,9.6c0,0-4.5,21.2,0,25.8c7.6,7.9,92.5,10.2,102,0.3C282.1,124.5,281.1,64.9,275,55.4z"/>
		</g>
	</g>
</g>
<g id="Layer_1">
	<path fill="#212121" d="M23.8,249.9c3.9-50.6,32.7-89.9,67.7-89.9s63.8,39.2,67.7,89.9L23.8,249.9z"/>
	<circle fill="#212121" cx="91.4" cy="122.9" r="37.2"/>
</g>
</svg>
