<?xml version="1.0" encoding="utf-8"?>
<!-- Generator: Adobe Illustrator 18.1.1, SVG Export Plug-In . SVG Version: 6.00 Build 0)  -->
<svg version="1.1" xmlns="http://www.w3.org/2000/svg" xmlns:xlink="http://www.w3.org/1999/xlink" x="0px" y="0px"
	 viewBox="0 0 350 250" enable-background="new 0 0 350 250" xml:space="preserve">
<g id="Layer_2">
	<g id="Layer_1_1_">
		<rect x="163" y="48.8" fill="#273C90" width="127.9" height="91.4"/>
	</g>
	<g id="Layer_3_1_">
		<polygon fill="#F5F6F6" points="163,140.2 175.3,140.2 290.9,60.4 290.9,48.8 278.7,48.8 163,128.7 		"/>
		<polygon fill="#F5F6F6" points="290.9,140.2 278.7,140.2 163,60.4 163,48.8 175.3,48.8 290.9,128.7 		"/>
	</g>
	<g id="Layer_4">
		<polygon fill="#C52A29" points="290.9,48.8 290.9,51.1 222.8,98.2 218.9,92.5 282.1,48.8 		"/>
		<polygon fill="#C52A29" points="225.1,103.8 172.5,140.2 163,140.2 163,138.4 221.2,98.2 		"/>
		<polygon fill="#C52A29" points="163,57.7 224.9,100.5 228.8,94.9 163,49.4 		"/>
		<polygon fill="#C52A29" points="225.5,93.9 290.9,139.2 290.9,130.9 229.4,88.3 		"/>
	</g>
	<rect x="216.4" y="48.8" fill="#F5F6F6" width="21.2" height="91.4"/>
	<rect x="163" y="83.9" fill="#F5F6F6" width="127.9" height="21.2"/>
	<rect x="150.6" y="87.2" fill="#C52A29" width="140.3" height="14.6"/>
	<rect x="219.7" y="48.8" fill="#C52A29" width="14.6" height="91.4"/>
</g>
<g id="Layer_3">
	<g id="XMLID_1_">
		<g>
			<path fill="#F5F5F5" d="M151.6,96.1l21.4,9.6c0,0-4.5,21.2,0,25.8c7.6,7.9,92.5,10.2,102,0.3c7.1-7.4,6.1-67,0-76.5
				c-5.6-8.7-95-4-102,1.4c-6.3,4.8,0,31.7,0,31.7L151.6,96.1z M350,0v250H0V0H350z"/>
		</g>
		<g>
			<path fill="none" stroke="#000000" stroke-width="2" stroke-miterlimit="10" d="M275,55.4c-5.6-8.7-95-4-102,1.4
				c-6.3,4.8,0,31.7,0,31.7l-21.4,7.7l21.4,9.6c0,0-4.5,21.2,0,25.8c7.6,7.9,92.5,10.2,102,0.3C282.1,124.5,281.1,64.9,275,55.4z"/>
		</g>
	</g>
</g>
<g id="Layer_1">
	<path fill="#212121" d="M23.8,249.9c3.9-50.6,32.7-89.9,67.7-89.9s63.8,39.2,67.7,89.9L23.8,249.9z"/>
	<circle fill="#212121" cx="91.4" cy="122.9" r="37.2"/>
</g>
</svg>
