<?xml version="1.0" encoding="utf-8"?>
<!-- Generator: Adobe Illustrator 18.1.1, SVG Export Plug-In . SVG Version: 6.00 Build 0)  -->
<svg version="1.1" xmlns="http://www.w3.org/2000/svg" xmlns:xlink="http://www.w3.org/1999/xlink" x="0px" y="0px"
	 viewBox="0 0 350 250" enable-background="new 0 0 350 250" xml:space="preserve">
<g id="Layer_2">
	<rect x="139.5" y="111.9" fill="#FDE938" width="146" height="34.8"/>
	<rect x="139.5" y="42.4" fill="#010101" width="146" height="34.8"/>
	<rect x="139.5" y="77.1" fill="#C52A29" width="146" height="34.8"/>
</g>
<g id="Layer_3">
	<g id="XMLID_1_">
		<g>
			<path fill="#F5F5F5" d="M151.6,96.1l21.4,9.6c0,0-4.5,21.2,0,25.8c7.6,7.9,92.5,10.2,102,0.3c7.1-7.4,6.1-67,0-76.5
				c-5.6-8.7-95-4-102,1.4c-6.3,4.8,0,31.7,0,31.7L151.6,96.1z M350,0v250H0V0H350z"/>
		</g>
		<g>
			<path fill="none" stroke="#000000" stroke-width="2" stroke-miterlimit="10" d="M275,55.4c-5.6-8.7-95-4-102,1.4
				c-6.3,4.8,0,31.7,0,31.7l-21.4,7.7l21.4,9.6c0,0-4.5,21.2,0,25.8c7.6,7.9,92.5,10.2,102,0.3C282.1,124.5,281.1,64.9,275,55.4z"/>
		</g>
	</g>
</g>
<g id="Layer_1">
	<path fill="#212121" d="M23.8,249.9c3.9-50.6,32.7-89.9,67.7-89.9s63.8,39.2,67.7,89.9L23.8,249.9z"/>
	<circle fill="#212121" cx="91.4" cy="122.9" r="37.2"/>
</g>
</svg>
