<?xml version="1.0" encoding="utf-8"?>
<!-- Generator: Adobe Illustrator 18.1.1, SVG Export Plug-In . SVG Version: 6.00 Build 0)  -->
<svg version="1.1" xmlns="http://www.w3.org/2000/svg" xmlns:xlink="http://www.w3.org/1999/xlink" x="0px" y="0px"
	 viewBox="0 0 350 250" enable-background="new 0 0 350 250" xml:space="preserve">
<g id="Layer_2">
	<g id="Layer_4">
		<rect x="151.6" y="48.1" fill="#F5F6F6" width="138.3" height="93"/>
	</g>
	<g id="Layer_2_1_">
		<g>
			<g>
				<g>
					<path fill="#273C90" d="M206.8,94c0-0.1,0.1-0.2,0.1-0.3c0,0,0-0.1,0-0.1c0,0,0-0.1,0-0.1c0,0,0,0,0,0c0.1-0.2,0-0.4-0.2-0.5
						c-0.2-0.1-0.4,0.1-0.4,0.3C206.2,93.6,206.3,94.2,206.8,94c0.3,0,0.2-0.5,0.1-0.8c-0.2,0.1-0.3,0.2-0.5,0.4c-0.1,0,0,0,0,0.1
						c0,0,0.1,0.1,0.1,0.1c0,0.1,0.1,0.2,0.2,0.2C206.7,94.1,206.8,94.1,206.8,94L206.8,94z"/>
				</g>
			</g>
			<g>
				<g>
					<path fill="#273C90" d="M206.3,92.2c-0.1,0.1-0.1,0.4-0.1,0.6c0,0.2,0,0.5,0.3,0.6c0.1,0.1,0.2,0,0.3,0
						c0.2-0.2,0.1-0.4,0.1-0.7c0-0.2-0.1-0.5-0.3-0.5C206.4,92.1,206.3,92.1,206.3,92.2L206.3,92.2z"/>
				</g>
			</g>
			<g>
				<g>
					<path fill="#273C90" d="M206.3,92.1c0,0.2-0.1,0.4-0.1,0.5c0,0.3,0.4,0.3,0.4,0c0-0.2-0.1-0.4-0.2-0.5
						C206.5,92,206.3,92,206.3,92.1L206.3,92.1z"/>
				</g>
			</g>
			<g>
				<g>
					<path fill="#273C90" d="M206.2,94.2c0,0.1,0,0.2,0,0.3c0,0.4,0.4,0.7,0.8,0.6c0.4-0.1,0.6-0.6,0.4-0.9c0,0.1,0,0.1,0,0.2
						c0-0.3-0.2-0.6-0.5-0.6C206.5,93.7,206.3,93.9,206.2,94.2L206.2,94.2z"/>
				</g>
			</g>
			<g>
				<g>
					<path fill="#273C90" d="M207.3,94.3c0,0,0-0.1,0-0.1c-0.4-0.1-0.9-0.1-1.3-0.2c0,0.8,0.2,1.6,0.5,2.4c0.6-0.2,1.1-0.5,1.7-0.7
						c-0.1-0.2-0.2-0.5-0.3-0.7c-0.5-1-1.8-0.2-1.7,0.7c0.2,1.2,0.5,2.3,0.9,3.4c0.4,1,2.2,0.3,1.8-0.8c-0.2-0.4-0.4-0.9-0.6-1.3
						c-0.4-1-1.9-0.9-1.9,0.3c0,1.2,0.5,2.2,0.7,3.3c0.6-0.2,1.2-0.3,1.9-0.5c-0.1-0.4-0.3-0.8-0.4-1.2c-0.4-1.1-2-0.7-1.8,0.5
						c0.1,0.6,0.3,0.9,0.7,1.4c0.6,0.7,1.5-0.1,1.4-0.8c-0.2-1.2-0.2-2.7-0.2-3.9c-0.6,0.1-1.1,0.3-1.7,0.5c1,2,2.5,3.4,4.3,4.6
						c0.3-0.6,0.7-1.2,1-1.8c-0.9-0.5-1.6-1.1-2.1-2c-0.5,0.4-1,0.8-1.5,1.2c1.6,1.4,3.3,2.4,5.3,3.2c0.1-0.6,0.2-1.2,0.2-1.9
						c-1,0.2-2.4,0.5-3.4,0.3c-0.8-0.2-1.1-0.9-1.8-1.2c-0.8-0.4-1.6,0.2-1.5,1.1c0.2,1.5,1.8,2.1,3,1.4c0.6-0.4,0.6-1.3,0-1.7
						c-1-0.6-2.5-0.9-3,0.5c-0.5,1.2,0.5,2.1,1.6,2.1c0.7,0,1.1-0.7,0.8-1.3c-0.2-0.5-0.5-0.8-0.9-1.1c-0.5-0.4-1.3-0.3-1.5,0.4
						c-0.2,0.7-0.1,1.2,0.5,1.8c0.7,0.7,2-0.2,1.4-1.1c-0.2-0.3-0.4-0.6-0.6-0.9c-0.4-0.7-1.7-0.5-1.6,0.4c0,0.7,0.2,1.1,0.6,1.6
						c0.6,0.7,1.6-0.2,1.2-1c-0.1-0.2-0.2-0.4-0.3-0.6c-0.4-0.8-1.7-0.3-1.5,0.6c0.1,0.3,0.2,0.5,0.3,0.8c0.3,1,1.9,0.5,1.6-0.4
						c-0.1-0.3-0.2-0.5-0.3-0.8c-0.5,0.2-1,0.4-1.5,0.6c0.1,0.2,0.2,0.4,0.3,0.6c0.5-0.2,1-0.4,1.4-0.6c-0.1-0.3-0.2-0.5-0.2-0.8
						c-0.5,0.1-1.1,0.3-1.6,0.4c0.2,0.3,0.4,0.6,0.6,0.9c0.5-0.3,1-0.6,1.5-0.9c0-0.1-0.1-0.2-0.1-0.2c-0.5,0.1-1,0.3-1.5,0.4
						c0.3,0.2,0.5,0.4,0.6,0.8c0.3-0.4,0.5-0.9,0.8-1.3c0.1,0.3,0.3,0.6,0.4,0.9c0-0.6,0-1.1,0-1.7c0,0-0.1,0-0.1,0.1
						c-0.5,0.3-1,0.6-1.5,0.9c0.4,0.2,0.7,0.9,1.1,1.2c0.4,0.3,0.9,0.3,1.4,0.4c1.4,0.1,2.8-0.1,4.2-0.3c0.8-0.1,1-1.5,0.2-1.9
						c-1.7-0.8-3.5-1.6-5-2.8c-0.8-0.7-2,0.2-1.5,1.2c0.6,1.2,1.5,2.1,2.7,2.8c1.2,0.7,2.1-1,1-1.8c-1.6-1.1-2.7-2.3-3.8-3.7
						c-0.6-0.8-1.8-0.3-1.6,0.7c0.2,1.2,0.3,2.7,0.3,3.9c0.6-0.1,1.1-0.1,1.7-0.2c-0.1-0.3-0.2-0.5-0.2-0.8
						c-0.6,0.1-1.2,0.2-1.8,0.2c0.1,0.4,0.2,0.8,0.4,1.2c0.4,1.2,2.1,0.7,1.9-0.5c-0.1-0.8-0.6-2-0.6-2.8c-0.6,0.1-1.3,0.2-1.9,0.3
						c0.2,0.4,0.4,0.9,0.6,1.3c0.6-0.3,1.2-0.5,1.8-0.8c-0.4-0.9-0.7-1.9-0.9-2.9c-0.6,0.2-1.1,0.5-1.7,0.7c0.1,0.2,0.2,0.5,0.3,0.7
						c0.4,1,2.1,0.3,1.7-0.7c-0.3-0.8-0.6-1.5-1-2.2c-0.5-0.7-1.6-0.1-1.2,0.7c0,0,0.1,0.1,0.1,0.1
						C206.4,94.9,207.2,94.9,207.3,94.3L207.3,94.3z"/>
				</g>
			</g>
			<g>
				<g>
					<path fill="#273C90" d="M208.6,102.4c0.2,0.5,0.4,1,0.8,1.4c0.5-0.4,0.9-0.7,1.4-1.1c-0.3-0.4-0.6-0.7-1-1
						c-0.6-0.6-1.8,0-1.4,0.8c0.1,0.3,0.2,0.6,0.3,0.9c0.5-0.2,1-0.4,1.5-0.6c-0.2-0.4-0.4-0.7-0.6-1.1c-0.4-0.7-1.4-0.3-1.5,0.4
						c-0.1,0.7,0.1,1.1,0.6,1.6c0.6,0.7,1.7-0.2,1.2-0.9c-0.2-0.3-0.4-0.7-0.7-1c-0.5-0.7-1.8-0.3-1.5,0.6c0.5,1.4,1.2,2.6,2.2,3.7
						c0.7,0.8,2.2-0.3,1.5-1.2c-0.7-0.9-1-1.8-1.1-3C209.8,102,209.2,102.1,208.6,102.4c0.8,1.1,1.6,2,2.6,2.9
						c0.7,0.6,1.9,0,1.6-0.9c-0.3-1.1-0.8-2-1.4-3c-0.5,0.4-1,0.7-1.5,1.1c0.8,0.9,2.4,3.1,3.9,2.2c1.6-1-0.5-2.8-1.2-3.6
						c-0.8-0.9-2.1,0.4-1.4,1.4c1,1.1,2.3,1.5,3.7,1.2c0.7-0.2,1-1.2,0.4-1.6c-1.2-1-2.4-1.1-3.8-0.4c-0.7,0.4-0.6,1.6,0.2,1.8
						c1.5,0.3,2.9,0.2,4.3-0.4c0.7-0.3,1-1.3,0.2-1.8c-1.1-0.6-2.3-0.9-3.6-0.8c-1.1,0.1-1.3,1.6-0.3,1.9c1.2,0.4,2.2,0.4,3.4,0.1
						c1-0.3,0.8-1.5,0-1.9c0,0-1.3-0.4-1.3-0.5c-0.4,0.4-0.8,0.8-1.2,1.2c1,0.4,2,0.7,3.1,0.8c0-0.7,0-1.3,0-2
						c-0.7,0-1.4-0.1-2.1-0.1c0,0.6,0,1.2,0,1.8c1.5-0.1,3-0.2,4.4-0.2c1.3-0.1,1.3-2.1,0-2c-1.5,0.1-3,0.3-4.4,0.4
						c-1.2,0.1-1.2,1.7,0,1.8c0.6,0.1,1.2,0.2,1.8,0.3c1.4,0.2,1.7-1.8,0.3-2c-0.9-0.1-1.8-0.3-2.6-0.7c-0.7-0.3-1.4,0.5-1.2,1.2
						c0.4,1.2,1.6,1.4,2.6,1.8c0-0.6,0-1.2,0-1.9c-0.9,0.2-1.5,0.2-2.4-0.1c-0.1,0.6-0.2,1.3-0.3,1.9c1-0.1,1.7,0.1,2.6,0.5
						c0.1-0.6,0.2-1.2,0.2-1.8c-1.1,0.4-2.1,0.6-3.3,0.4c0.1,0.6,0.2,1.2,0.2,1.8c0.5,0,1,0.1,1.5,0.1c0.1-0.5,0.3-1.1,0.4-1.6
						c-0.8,0.2-1.4-0.1-1.9-0.7c-0.5,0.5-0.9,0.9-1.4,1.4c0.1,0.1,1.2,1.2,1.2,1.3c0.2-0.3,0.3-0.5,0.5-0.8c0,0-1.6-1.6-1.7-1.8
						c-0.7-0.8-1.9,0.2-1.5,1.1c0.5,0.8,0.9,1.7,1.2,2.6c0.5-0.3,1.1-0.6,1.6-0.9c-0.9-0.8-1.7-1.6-2.3-2.6
						c-0.5-0.8-1.8-0.5-1.8,0.5c0.1,1.5,0.4,2.7,1.3,3.9c0.5-0.4,1-0.8,1.5-1.2c-0.8-0.9-1.5-1.9-2.1-2.9c-0.5,0.3-0.9,0.5-1.4,0.8
						c0.2,0.3,0.5,0.6,0.7,1c0.4-0.3,0.8-0.6,1.2-0.9c0-0.1,0-0.3-0.1-0.4c-0.5,0.1-1,0.3-1.5,0.4c0.2,0.4,0.4,0.8,0.6,1.2
						c0.4,0.9,1.8,0.3,1.5-0.6c-0.1-0.3-0.2-0.6-0.3-0.9c-0.5,0.3-1,0.6-1.4,0.8c0.3,0.4,0.6,0.7,0.9,1.1c0.8,0.8,2-0.4,1.2-1.2
						c-0.3-0.3-0.5-0.6-0.7-1C209.6,101,208.2,101.5,208.6,102.4L208.6,102.4z"/>
				</g>
			</g>
			<g>
				<g>
					<path fill="#273C90" d="M240.2,101.5c0,0.4,0.1,0.6,0.4,0.9c0.5,0.6,1.4,0,1.4-0.6c0-0.5,0-0.7-0.1-1.1c-0.2-1-1.5-0.6-1.6,0.2
						c-0.1,0.4,0,0.6,0.2,1c0.3,0.6,1.4,0.6,1.5-0.2c0-0.1,0-0.1,0-0.2c-0.5,0.1-0.9,0.2-1.4,0.4c0,0.1,0.1,0.1,0.1,0.2
						c0.6,0.6,1.5,0,1.4-0.8c-0.3-1.4-1-2.3-1.9-3.4c-0.5,0.5-0.9,0.9-1.4,1.4c0.3,0.3,0.6,0.6,0.9,0.8c0.8,0.8,2.1-0.2,1.5-1.2
						c-0.8-1.3-1.9-2.3-3.2-3.1c-0.3,0.6-0.7,1.1-1,1.7c0.4,0.2,0.7,0.4,1.1,0.6c0.8,0.5,1.9-0.5,1.3-1.3c-0.8-1.3-2.2-2.2-3.5-3
						c-1.1-0.7-2.1,1-1,1.7c0.9,0.6,2.2,1.3,2.8,2.2c0.4-0.4,0.9-0.9,1.3-1.3c-0.4-0.2-0.7-0.4-1.1-0.6c-1.1-0.6-2,1-1,1.7
						c1,0.7,1.9,1.3,2.5,2.4c0.5-0.4,1-0.8,1.5-1.2c-0.3-0.3-0.6-0.6-0.9-0.9c-0.9-0.9-2.3,0.5-1.4,1.4c0.7,0.7,1.4,1.4,1.7,2.4
						c0.5-0.3,0.9-0.5,1.4-0.8c0-0.1-0.1-0.1-0.1-0.2c-0.4-0.5-1.3-0.2-1.4,0.4c0,0.1,0,0.1,0,0.2c0.5-0.1,1-0.1,1.5-0.2
						c0,0,0-0.1,0-0.1c-0.5,0.1-1.1,0.1-1.6,0.2c0,0.2,0,0.5,0.1,0.7c0.5-0.2,0.9-0.4,1.4-0.6c0,0,0,0,0.1,0.1
						C241.6,100.4,240.1,100.6,240.2,101.5L240.2,101.5z"/>
				</g>
			</g>
			<g>
				<g>
					<path fill="#273C90" d="M219.9,101.1c0.5-0.1,0.7-0.2,1.1-0.4c0.9-0.4,0.2-1.6-0.6-1.5c-0.3,0-0.7,0.1-1,0.2
						c0.2,0.5,0.4,1,0.7,1.5c2-1,5.4-2,6.4-4.2c0.4-0.9-0.7-2-1.5-1.1c-0.4,0.4-0.9,0.9-1.3,1.3c-0.8,0.9,0.4,2.1,1.3,1.3
						c0.4-0.3,0.7-0.6,1.1-0.9c0.8-0.7-0.3-2.1-1.1-1.5c-0.5,0.4-1,0.8-1.5,1.2c-0.9,0.7-0.1,2.1,0.9,1.5c1.3-0.7,2.3-1.5,3.2-2.6
						c0.5-0.6,0.1-1.9-0.9-1.5c-0.9,0.3-1.5,0.8-1.9,1.7c-0.4,0.8,0.7,1.8,1.3,1c0.8-1,1.8-1.7,3.1-2.2c-0.2-0.5-0.4-1.1-0.7-1.6
						c-0.5,0.3-1,0.6-1.6,0.9c0.4,0.2,0.8,0.4,1.2,0.7c0-0.1,0-0.3,0-0.4c-0.2,0.3-0.4,0.5-0.6,0.8c0.2,0,0.4-0.1,0.7-0.1
						c-0.2-0.5-0.4-1-0.7-1.6c-0.5,0.3-1,0.7-1.5,1c0.3,0.5,0.6,1,0.9,1.5c1-0.6,2-1.1,3.1-1.6c1-0.4,0.6-2-0.5-1.7
						c-0.5,0.2-1,0.4-1.5,0.5c0.1,0.5,0.3,1,0.4,1.6c2.2-0.8,4.4-0.9,6.6,0c1.2,0.5,2-1.2,0.7-1.7c-2.6-1.1-5.4-1.1-7.9,0.2
						c-0.8,0.4-0.2,1.7,0.6,1.5c0.5-0.1,1-0.3,1.5-0.4c-0.2-0.6-0.3-1.1-0.5-1.7c-1.2,0.5-2.4,1-3.5,1.8c-0.9,0.6-0.1,2.1,0.9,1.5
						c0.5-0.3,1-0.7,1.6-1c0.8-0.5,0.3-1.9-0.7-1.6c-0.2,0.1-0.4,0.2-0.6,0.2c-0.4,0.2-0.7,0.5-0.6,1c0,0.1,0.1,0.3,0.1,0.4
						c0.1,0.5,0.7,0.7,1.1,0.5c0.6-0.3,1.1-0.5,1.7-0.8c0.9-0.4,0.3-1.9-0.7-1.6c-1.5,0.6-2.7,1.4-3.8,2.7c0.4,0.3,0.9,0.7,1.3,1
						c0.3-0.3,0.6-0.5,0.9-0.8c-0.3-0.5-0.6-1-0.9-1.5c-0.8,1-1.7,1.7-2.8,2.3c0.3,0.5,0.6,1,0.9,1.5c0.5-0.4,1-0.7,1.5-1.1
						c-0.4-0.5-0.7-1-1.1-1.5c-0.4,0.3-0.7,0.6-1.1,1c0.4,0.4,0.9,0.9,1.3,1.3c0.4-0.4,0.9-0.9,1.3-1.3c-0.5-0.4-1-0.8-1.5-1.1
						c-0.5,1-1.7,1.4-2.6,2c-1,0.6-2,1.2-3,1.7C218.3,100,218.9,101.2,219.9,101.1c0.3-0.1,0.6-0.2,0.9-0.3c-0.2-0.5-0.4-1-0.6-1.5
						c-0.4,0.3-0.6,0.4-0.9,0.7C218.8,100.5,219.3,101.3,219.9,101.1L219.9,101.1z"/>
				</g>
			</g>
			<g>
				<g>
					<path fill="#273C90" d="M239.8,99.4c0.2,0.4,0.3,0.7,0.4,1.1c0.2,0.5,0.2,1,0.7,1.2c0.4,0.2,0.9,0.1,1.1-0.3
						c0.3-0.5,0.1-1.1-0.1-1.6c-0.2-0.4-0.4-0.8-0.6-1.1c-0.2-0.3-0.6-0.5-1-0.3C240,98.5,239.7,99,239.8,99.4L239.8,99.4z"/>
				</g>
			</g>
			<g>
				<g>
					<path fill="#273C90" d="M240.7,101.3c-0.5,0.5-0.9,1-1.3,1.6c0.5,0.3,1.1,0.6,1.6,0.9c0.2-0.4,0.5-0.7,0.7-1.1
						c-0.5-0.3-1.1-0.6-1.6-0.9c-1.3,2.7-3.3,4.8-5.9,6.5c-1.1,0.7-0.1,2.4,1,1.7c0.6-0.3,1.1-0.7,1.7-1c-0.4-0.5-0.8-1-1.2-1.6
						c-2.3,1.9-5,3-7.9,3.5c0.2,0.7,0.4,1.3,0.5,2c0.6-0.2,1.2-0.3,1.8-0.5c-0.3-0.6-0.5-1.2-0.8-1.8c-0.4,0.3-0.8,0.4-1.2,0.5
						c0.2,0.6,0.3,1.2,0.5,1.9c0.6-0.2,1.3-0.4,1.9-0.7c-0.4-0.5-0.7-1-1.1-1.4c-0.1,0.1-0.3,0.1-0.4,0.2c0.2,0.3,0.5,0.7,0.7,1
						c0-0.1,0-0.1,0-0.2c0-1.1-1.8-1.4-2-0.3c0,0.1,0,0.1,0,0.2c-0.1,0.7,0.3,1.2,1,1.3c1.1,0.1,1.8-0.4,2.4-1.2
						c0.5-0.7-0.3-1.7-1.1-1.4c-0.6,0.2-1.3,0.4-1.9,0.7c-1.2,0.4-0.7,2.2,0.5,1.9c0.6-0.1,1.1-0.4,1.7-0.7c1-0.6,0.3-2-0.8-1.8
						c-0.6,0.1-1.2,0.3-1.8,0.4c-1.3,0.3-0.7,2.2,0.5,2c3.3-0.5,6.2-2,8.7-4c0.9-0.7-0.3-2.1-1.2-1.6c-0.6,0.3-1.1,0.7-1.7,1
						c0.3,0.6,0.7,1.1,1,1.7c2.8-1.8,4.9-4.3,6.5-7.2c0.5-1.1-1-2-1.6-0.9c-0.2,0.4-0.5,0.7-0.7,1.1c-0.6,1,1,2,1.6,0.9
						c0.3-0.6,0.6-1.2,0.8-1.9C242,101.3,241.1,100.9,240.7,101.3L240.7,101.3z"/>
				</g>
			</g>
			<g>
				<g>
					<path fill="#273C90" d="M227.8,111.3c-0.5,0-1.1,0-1.6,0.1c-1.2,0.1-1.2,1.9,0,1.8c0.5,0,1.1,0,1.6-0.1
						c0.9-0.1,1.3-1.2,0.5-1.7c-0.6-0.4-1.2-0.4-2-0.4c-0.7,0-1.3,0.1-1.7-0.5c-0.5-0.7-1.5-0.6-1.8,0.2c-0.7,2.1,2.4,2.8,3.8,2.4
						c0.9-0.3,0.8-1.5,0-1.8c-0.9-0.3-1.8-0.4-2.7-0.3c-1,0.1-1.4,1.6-0.3,1.9c0.5,0.1,0.9,0.2,1.4,0.3c0-0.6,0-1.2,0-1.8
						c-0.1,0-0.1,0-0.2,0.1c-0.6,0.2-0.8,0.9-0.4,1.3c0.1,0.1,0.1,0.1,0.2,0.2c1.2,1.1,2.4-1.2,0.9-1.6c-0.5-0.1-0.9-0.2-1.4-0.3
						c-0.1,0.6-0.2,1.2-0.3,1.9c0.8-0.1,1.5,0,2.2,0.2c0-0.6,0-1.2,0-1.8c-0.3,0.1-0.6,0.1-0.8,0c-0.2,0-0.5-0.3-0.6-0.1
						c-0.6,0.1-1.2,0.2-1.8,0.2c0.4,0.6,1,1.2,1.8,1.4c0.4,0.1,0.8,0.1,1.2,0.1c0.5,0,1.1-0.2,1.5,0
						C227.4,112.4,227.6,111.9,227.8,111.3c-0.6,0-1.1,0-1.6,0.1c0.1,0.6,0.2,1.2,0.2,1.8c0.5-0.1,1.1-0.2,1.6-0.3
						C228.9,112.6,228.7,111.4,227.8,111.3L227.8,111.3z"/>
				</g>
			</g>
			<g>
				<g>
					<path fill="#273C90" d="M210.4,106c0.5,0.3,0.9,0.6,1.4,0.9c0.3-0.6,0.5-1.2,0.8-1.8c-0.4-0.1-0.9-0.2-1.3-0.3
						c-1.2-0.2-1.7,1.2-0.8,1.8c0.5,0.4,1,0.8,1.5,1.1c0.3-0.6,0.7-1.2,1-1.7c-0.3-0.1-0.5-0.3-0.8-0.4c-1-0.5-2.1,0.8-1.2,1.6
						c2,1.9,3.9,3.6,6.6,4.5c0.1-0.7,0.2-1.4,0.3-2.1c-0.3,0-0.6,0-0.9,0c-1.2,0-1.4,1.7-0.3,2c1.3,0.3,2.6,0.7,3.9,1
						c0.1-0.7,0.2-1.4,0.3-2c-0.6,0-1.2,0-1.8-0.1c-1.1,0-1.3,1.6-0.3,2c2.1,0.6,5.2,1.5,7.3,0.6c0.7-0.3,0.8-1.3,0-1.6
						c-1-0.3-2-0.2-3-0.2c-1.3-0.1-2.6-0.4-3.8-0.7c-0.1,0.7-0.2,1.3-0.3,2c0.6,0,1.2,0.1,1.8,0.1c1.2,0.1,1.4-1.8,0.3-2
						c-1.3-0.3-2.6-0.6-3.9-1c-0.1,0.7-0.2,1.3-0.3,2c0.3,0,0.6,0.1,0.9,0.1c1.2,0.1,1.3-1.7,0.3-2.1c-2.2-0.8-4-2.4-5.7-3.9
						c-0.4,0.5-0.8,1.1-1.2,1.6c0.3,0.1,0.5,0.3,0.8,0.4c1.2,0.6,2-1,1-1.7c-0.5-0.4-1-0.7-1.5-1.1c-0.3,0.6-0.5,1.2-0.8,1.8
						c0.4,0.1,0.9,0.2,1.3,0.3c1,0.2,1.8-1.3,0.8-1.8c-0.5-0.3-1-0.5-1.5-0.7C210.2,104,209.4,105.3,210.4,106L210.4,106z"/>
				</g>
			</g>
			<g>
				<g>
					<path fill="#273C90" d="M234.5,102.9c0.1-0.2,0.2-0.3,0.3-0.5c2.2-3.7-3.5-7-5.7-3.4c-1.1,1.8-1.8,4.2-0.6,6.1
						c0.8,1.3,2.4,2,3.9,1.6c3.2-0.9,4.8-5.5,3.8-8.4c-1.3-4-5.8-4.4-8.8-2c-2,1.7-0.9,5.3,1.5,5.8c2.5,0.5,5.3,0,6.4-2.6
						c1.2-2.7-0.9-5.7-3.8-5.9c-2.4-0.2-4.2,1.3-5.4,3.3c-0.8,1.3-1.1,3.6-2.5,4.3c1.5,2,3.1,4,4.6,6c1.8-2,2.9-4.3,3.6-6.9
						c1-3.5-3.6-6.3-6.2-3.6c-2.2,2.3-4.9,4.7-8,5.6c1.5,1.9,3,3.9,4.5,5.8c0.4-0.8,0.6-1.2,1.5-1.2c-0.3-2.5-0.7-5-1-7.4
						c-2.6,0.4-5,1.4-7.5,2.2c1.2,0.3,2.5,0.7,3.7,1c-0.1-0.1-0.1-0.1-0.2-0.2c-1.2,2.1-2.5,4.3-3.7,6.4c2.5,0.7,5.1,0.8,7.6,0.9
						c-0.3-2.5-0.7-5-1-7.5c-1.1,0.3-2.3,0.5-3.4,0.8c-3,0.7-3.9,5.5-0.9,6.9c3.1,1.5,6.5,2.1,9.9,1.3c3.1-0.7,7.1-2.6,8.6-5.5
						c2.1-4.2-2.8-7.6-6.2-4.8c-1.5,1.2-3.2,2.3-4.9,3c-1.6,0.7-2.8,1.9-2.8,3.7c0,1.6,1.2,3.4,2.8,3.7c3.4,0.7,6.6-0.1,9.5-2
						c2.8-1.9,5.6-4,5.7-7.6c-0.7,1.2-1.3,2.3-2,3.5c0.3-0.2,0.5-0.3,0.8-0.5c2.8-1.6,2.5-5.3,0-7c-0.6-0.4-0.9-1.1-1.3-1.7
						c-1.2-1.6-2.6-2.2-4.5-2.4c-4.4-0.6-5.5,7.2-1.1,7.9c0,0,0,0,0.1,0c-0.5-0.5-1-1-1.4-1.4c1.3,1.8,2.3,3.3,4.2,4.7
						c0-2.3,0-4.7,0-7c-1.2,0.7-2.3,1.5-2.7,2.9c-0.2,1.2-0.2,1.4-0.1,0.8c0.2-0.2,0.2-0.3,0-0.3c-0.3,0.3-0.7,0.6-1.1,0.9
						c-1,0.8-2.6,2.1-4,1.9c0.3,2.4,0.6,4.7,0.9,7.1c2.4-1.1,4.6-2.3,6.8-3.9c-1.8-1.8-3.6-3.6-5.4-5.4c-0.6,0.9-2.7,1.8-3.8,2
						c-1.3,0.3-2.8,0.2-4-0.4c-0.3,2.3-0.6,4.6-0.9,6.9c1.1-0.3,2.3-0.5,3.4-0.8c4.3-1,3.2-7.3-1-7.5c-1.9-0.1-3.7-0.1-5.6-0.7
						c-3.5-1.1-6.7,3.9-3.7,6.4c0.1,0.1,0.1,0.1,0.2,0.2c1,0.8,2.4,1.5,3.7,1c2.5-0.9,4.9-1.9,7.5-2.3c4.3-0.6,3.2-7.5-1-7.4
						c-3.5,0.1-6.5,1.8-8.3,4.8c-1.7,2.8,1.2,6.9,4.5,5.8c4.7-1.6,7.6-4.8,11.1-8c-2.1-1.2-4.1-2.4-6.2-3.6
						c-0.6,1.5-1.5,2.9-2.5,4.2c-2.2,3,2.2,7.3,5.2,5.2c1.5-1,2.6-2.3,3.3-3.9c0.4-0.8,0.6-1.6,1-2.4c0.1-0.2,0.3-0.5,0.4-0.7
						c0.2-0.8,0.7-0.1-0.6-0.2c-0.6-0.2-1.2-0.3-1.8-0.5c0.1,0.1,0.3,0.1,0.4,0.2c-0.4-0.4-0.8-0.8-1.2-1.2c0.1,0.1,0.2,0.3,0.2,0.4
						c-0.2-0.6-0.3-1.2-0.5-1.8c0,0.2,0,0.3,0,0.5c0.2-0.6,0.3-1.2,0.5-1.8c-0.1,0.1-0.2,0.3-0.3,0.4c0.4-0.4,0.8-0.8,1.2-1.2
						c0.2-0.1,0.5-0.1,0.7-0.2c0.5,1.9,1,3.9,1.5,5.8c-0.1,0.1-2.9-0.7-2.6-1c-0.2,0.1-0.2,0.5-0.4,0.7c0.8-0.3,1.6-0.7,2.4-1
						c-0.1,0-0.3,0-0.4,0c1,0.6,2,1.1,3,1.7c-0.1-0.1-0.1-0.2-0.2-0.3c0.1,0.9,0.2,1.8,0.3,2.7c0.2-1.1,0.6-2.1,0.6-3.3
						c-2.2,0.3-4.3,0.6-6.5,0.9c0,0.2,0.1,0.4,0.1,0.6C229.2,105,233.3,105,234.5,102.9L234.5,102.9z"/>
				</g>
			</g>
			<g>
				<g>
					<path fill="#C52A29" d="M215.5,85c-1.4,1.9-2.4,4.8-1.6,7.1c1.1,3.2,5.2,3.8,7.1,1c3-4.4-1-14.6-7-10.3c-4.4,3.2-3,13.1,3.3,13
						c5.8-0.1,8.9-9.7,3.5-12.6c-5.6-3-11.5,3.3-9.5,8.8c0.9,2.5,3.3,4.4,6,4.4c3.2,0,5.7-2.7,5.7-5.9c0-2.5-1.4-5.4-3.6-6.6
						c-3.1-1.7-6.6-0.1-8.2,2.9c-1.2,2.4-1.1,5.4,0.7,7.4c2.1,2.3,5.5,2.6,8,0.9c5.2-3.5,2.3-11.9-3.8-12.2c-6.5-0.3-8,9.1-3.1,12.3
						c5.5,3.6,11.6-3.3,10-8.8c-0.8-2.6-3.2-4.6-5.9-4.7c-2.9-0.1-5.4,2.1-6.7,4.5c-3,5.2,2.4,12.4,8.3,10.4c2.4-0.8,4-3.2,5.5-5.1
						c2.1-2.5,4.4-5.1,3.4-8.6c-0.7-2.6-3.1-4.4-5.8-4.3c-3,0.2-6.1,3.1-6.8,5.9c-0.7,2.8,0.7,5.8,3.5,6.7c2.8,0.9,6.1-0.5,8.2-2.3
						c2.4-2.1,3.5-5.8,1.2-8.4c-2.3-2.6-6.1-2.4-8.9-0.7c-2.6,1.6-4.7,4.9-4,8c0.9,3.9,5.3,5.1,8.7,3.6c2.5-1.1,4.9-3,5.6-5.9
						c0.8-3.7-2.4-7-6.1-6.9c-2.9,0.1-6.6,2-7.5,4.9c-1.3,4,2.1,6.8,5.8,6.9c3.6,0.1,5.1-5.2,1.9-6.9c-0.9-0.4-0.2-0.1-0.1,0.4
						c0,0.7,0,1.4,0,2.1c-0.9,0.9-1.1,1.2-0.5,0.8c0.2-0.2,0.5-0.3,0.8-0.4c0.2-0.3-1.2,0.1-1.5-0.5c-0.2-0.7-0.4-1.3-0.5-2
						c-0.1-0.7,0.9-0.5-0.1-0.2c-0.3,0.2-0.7,0.5-1.1,0.7c0.5-0.1,0.9,0,1.3,0.2c0.3,0.6,0.7,1.1,1,1.7c0.2,0.7-0.3,0.2,0.2,0
						c0.2-0.1,0.3-0.2,0.5-0.3c1.1-0.3,0.7-1.3-1.4-2.9c-0.2,0-0.7,0.5-0.7,0.5c-1.4,0.7-0.5-0.4,0.5,0.7c0.3,0.6,0.7,1.1,1,1.7
						c0.2,0.6-0.3,1,0.1,0.4c1-1.3-1.4,0.2-1.7-0.6c-0.2-0.6-0.3-1.2-0.5-1.9c0.2-0.2,0.2-0.2,0.1-0.1c-0.3,0.4-0.7,0.9-1,1.3
						c-0.4,0.6-0.8,1.1-1.2,1.7c-0.5,0.8-1.1,1.5-1.7,2.3c-0.7,0.8-1,0.5,0.5,0.5c-0.1-0.1-0.2-0.1-0.2-0.2
						c-0.2-0.4-0.3-0.2-0.1,0.5c0.1,0,0.4-0.5,0.4-0.6c0.1-0.2,0.3-0.3,0.4-0.4c-0.7,0.3-1.2,0.2-1.4-0.3c0.7,0-0.7-0.3-0.3,0
						c-0.1,0.1-0.1,0.2-0.2,0.3c0.6,0.1,1.2,0.3,1.8,0.4c0.1,0.4,0.1,0.5,0,0.3c-0.6-0.4-1.2-0.1-1.9,0.7c-1.3-0.8,1-2.6,2.2-0.6
						c-0.1,0.5,0,0.6,0.1,0.4c0.6-0.7-0.2-0.7-2.4-0.1c0.1,0.1,0.2,0.2,0.2,0.4c0.6-1.4,1.5-1.9,2.5-1.2c0.8,0.7-1,1.2-1.5,0.1
						c-0.2-0.6-0.3-1.2-0.5-1.9c0-0.3,0.1,1.7-0.1,1.3c0,0.1,0,0.1,0,0.2c0.4-0.3,0.8-0.5,1.3-0.5c0.5,0.3,1.1,0.6,1.6,0.9
						c-0.1-0.1-0.2-0.2-0.1-0.6c0-0.2,0-0.3,0-0.5c0.2-0.8,0.2-0.8-0.1,0c-0.5,0.3-1.1,0.6-1.6,0.9c-0.1,0-0.1,0-0.2,0
						c-0.6-0.2-1.2-0.3-1.8-0.5c-0.6-0.3-0.1-0.6,0,0.5c0.1,0.4,0,0.7-0.1,1.1c0.3-0.5,0.6-1,0.9-1.5c-0.1,0.1-0.2,0.2-0.3,0.3
						c0.5-0.3,1-0.6,1.5-0.9c-0.1,0-0.3,0.1-0.4,0.1c0.9,0.1,1.7,0.2,2.6,0.3c0.1,0,0.1,0.1,0.2,0.1c0.3,0.5,0.6,1,0.9,1.5
						c-0.3-0.8-0.3-1.5,0.1-2.3C222.2,84.5,217.8,82,215.5,85L215.5,85z"/>
				</g>
			</g>
			<g>
				<g>
					<path fill="#C52A29" d="M232.1,80.2c-4.4-3.1-8.1,3.2-5.8,6.9c2.1,3.4,7.6,2.7,9.7-0.3c3-4.2-1.9-8-6-7.3
						c-4.1,0.7-6.7,5.8-3.7,9.2c2.6,2.9,7.5,2.3,10.1-0.3c3.3-3.2,0.1-7.6-3.6-8.4c-4.7-1.1-8.5,3.9-5.8,8c2.1,3.1,7.5,4.2,10.3,1.5
						c4.6-4.3-2.8-10.6-6.8-6.6c-1.8,1.8-1.7,4.7,0,6.6c1.5,1.6,3.7,2.3,5.9,2.3c2.2,0,4.6-2.4,3.6-4.8c-0.4-1.1-0.9-2-2-2.6
						c-4-2-7.4,2.7-4.6,6c0.8,0.9,1.6,1.7,2.4,2.6c3.4,3.7,9.2-2,5.6-5.6c-0.8-0.8-1.7-1.7-2.5-2.5c-1.2,2.1-2.5,4.2-3.7,6.4
						c0.1,0,0.1,0,0.2,0c-0.8-0.6-1.5-1.2-2.3-1.7c0,0.1,0.1,0.1,0.1,0.2c0.7-1.8,1.5-3.7,2.2-5.5c0.3,0,0.6-0.2,0.8,0.2
						c0.2,0.6,0.3,1.3,0.5,1.9c0-0.2,0-0.3,0-0.5c-0.2,0.6-0.3,1.3-0.5,1.9c0.1-0.1,0.2-0.2,0.2-0.4c-0.8,0.6-1.5,1.2-2.3,1.7
						c0.2,0,0.3-0.1,0.5-0.1c-0.7,0-1.3,0-2,0c0.6,0.1,0.7,0.1,0.4,0c-0.4-0.4-0.9-0.9-1.3-1.3c0.1,0.1,0.1,0.2,0.2,0.3
						c-0.1-1-0.3-1.9-0.4-2.9c0,0.1,0,0.2-0.1,0.4c0.3-0.5,0.6-1.1,1-1.6c0.5-0.2,0.6-0.3,0.3-0.3c0.7,0,1,0.6,0.8,1.6
						c-0.3,0.5-0.6,1.1-1,1.6c-0.5,0.6-1.4,0.5-1.7-0.1c-0.2-0.6-0.3-1.2-0.5-1.8c0,0.1,0,0.3,0,0.4c0.2-0.6,0.3-1.2,0.5-1.8
						c0.2-0.2,0.3-0.4,0.5-0.6c-0.2,0.2-0.4,0.3-0.7,0.3c-0.2,0.2,0.4-0.2,0.7,0.2c0.3,0.5,0.6,1.1,1,1.6c0.3,0.7-1.2,2.2-1.9,1.3
						c-0.3-0.5-0.6-1.1-0.9-1.6c0,0.1,0.1,0.3,0.1,0.4c0-0.6,0-1.3,0-1.9c0,0.1-0.1,0.2-0.1,0.4c0.3-0.5,0.6-1.1,0.9-1.6
						c0.3-0.1,0.2,0-0.2,0.2c-0.2,0-0.1,0,0.4-0.1c0.5,0.3,1.1,0.6,1.6,0.9c0,0.8,0.1,1.5,0.1,2.3c-0.8,0.3-1.6,0.7-2.4,1
						c0.2,0,0.3,0,0.5,0C233.9,86.3,234.7,82.1,232.1,80.2L232.1,80.2z"/>
				</g>
			</g>
			<g>
				<g>
					<path fill="#C52A29" d="M221.7,97.1c2.4-0.8,4.3-2.4,6.3-3.8c0.9-0.6,1.8-1.3,2.8-1.7c1.2-0.5,2.4-0.6,3.6-1.2
						c2.3-1.4,2.1-4.5,0-5.9c-3-2-6.7,0.1-9.4,1.8c-2.5,1.6-5.5,3.5-6.9,6.3C216.9,94.7,218.9,98.1,221.7,97.1L221.7,97.1z"/>
				</g>
			</g>
			<g>
				<g>
					<path fill="#C52A29" d="M227,93.3c2.5-0.7,4.8-1.3,7.4-0.5c4.5,1.4,6.5-6.1,1.9-7.1c-4.4-0.9-8.8-0.6-12.5,2.2
						C221.2,90,224.2,94.1,227,93.3L227,93.3z"/>
				</g>
			</g>
			<g>
				<g>
					<path fill="#C52A29" d="M231.6,84.9c-0.3,0-0.7,0-1,0.1c-0.5,0.1-1.2,0.5-1.6,0.9c-0.3,0.3-0.6,0.7-0.7,1.1
						c-0.2,0.4-0.3,0.8-0.3,1.3c0,0.3,0.1,0.6,0.1,0.9c0.1,0.4,0.3,0.8,0.6,1.1c0.1,0.3,0.4,0.5,0.6,0.6c0.3,0.3,0.7,0.5,1.1,0.6
						c0.9,0.2,1.8,0.1,2.6-0.3c0,0,0,0,0,0c-0.3,0.1-0.5,0.2-0.8,0.3c0,0,0,0,0,0c-0.3,0-0.6,0.1-0.9,0.1c0,0,0,0,0,0
						c-0.3,0-0.6-0.1-0.9-0.1c0,0,0,0,0,0c-0.3-0.1-0.5-0.2-0.8-0.3c0,0,0,0,0,0c0.5,0.3,1.1,0.5,1.7,0.5c0.6,0,1.2-0.2,1.7-0.5
						c0.7-0.5,1.3-1.2,1.6-2c0.1-0.5,0.2-0.9,0.1-1.4c0-0.5-0.2-0.9-0.4-1.3c-0.3-0.5-0.7-0.9-1.2-1.2
						C232.8,85,232.2,84.9,231.6,84.9L231.6,84.9z"/>
				</g>
			</g>
			<g>
				<g>
					<path fill="#C52A29" d="M216.8,85.1c1.2-0.2,2.2-0.8,3.4-1.1c1.2-0.3,2.4-0.3,3.6-0.3c2.4,0.1,4.8,0.8,6.9,2.1
						c4.3,2.8,8.5-4.5,4-6.8c-3.5-1.8-7.3-2.9-11.2-2.6c-3.3,0.2-8.4,1.1-10.1,4.3C212.1,83.1,214.2,85.6,216.8,85.1L216.8,85.1z"/>
				</g>
			</g>
			<g>
				<g>
					<path fill="#C52A29" d="M214.3,79.8c-2.7,0.5-4.3,3.5-5.4,5.8c-1.3,2.6-1.6,5.7-0.3,8.4c2.7,5.5,11,6.4,14.5,1.1
						c2.1-3.2-2.2-7.7-5.4-5.4c-0.9,0.6-2,1.9-2.6,0.4c-0.6-1.6,1.2-4,2.3-5C219.8,82.8,217.3,79.2,214.3,79.8L214.3,79.8z"/>
				</g>
			</g>
			<g>
				<g>
					<path fill="#C52A29" d="M214.5,79.9c-0.2,0.2-0.4,0.4-0.4,0.7c-0.1,0.4,0.6,0.6,0.6,0.2c0,0,0-0.1,0-0.1
						c-0.1,0.1-0.2,0.1-0.2,0.2c0.1,0,0.2,0,0.3,0c0.4,0,0.8-0.5,0.5-0.9c-0.5-0.6-1.2-0.4-1.7,0.1c-0.6,0.6,0.2,1.6,0.9,1.2
						c0.2-0.2,0.5-0.3,0.7-0.5c0.9-0.7-0.1-1.9-0.9-1.2c-0.3,0.3-0.6,0.5-0.9,0.7c0.3,0.4,0.6,0.8,0.9,1.1c0.2-0.2,0.5-0.5,0.7-0.7
						c0.6-0.6-0.2-1.6-0.9-1.2c-0.3,0.2-0.6,0.4-1,0.7c-0.8,0.5,0,1.8,0.8,1.3c0.7-0.5,1.5-1,2.2-1.5c0.3-0.2,0.5-0.7,0.3-1
						c-0.2-0.3-0.7-0.5-1-0.3c-0.7,0.5-1.5,1-2.2,1.5c0.3,0.4,0.5,0.9,0.8,1.3c0.3-0.2,0.6-0.4,1-0.7c-0.3-0.4-0.6-0.8-0.9-1.2
						c-0.2,0.2-0.4,0.5-0.6,0.7c-0.5,0.6,0.2,1.6,0.9,1.1c0.4-0.3,0.7-0.5,1.1-0.7c-0.3-0.4-0.6-0.8-0.9-1.2
						c-0.2,0.2-0.5,0.4-0.7,0.5c0.3,0.3,0.7,0.7,1,1c0.1-0.1,0.1-0.1,0.3-0.2c0.2-0.1,0.3-0.2,0.4-0.3c-0.4,0-0.7-0.1-1.1-0.1
						c0,0.1,0,0.2,0.1,0.2c0.1-0.1,0.1-0.2,0.2-0.3c0,0-0.1,0-0.1,0c0.1,0.2,0.1,0.4,0.2,0.6c0.3-0.1,0.5-0.3,0.7-0.6
						C215.3,80,214.8,79.6,214.5,79.9L214.5,79.9z"/>
				</g>
			</g>
			<g>
				<g>
					<path fill="#C52A29" d="M211,83.2c-0.1,0.1-0.3,0.3-0.4,0.4c0.4,0.3,0.9,0.5,1.3,0.8c0.1-0.3,0.1-0.6,0.2-0.8
						c0.2-0.9-0.9-1.3-1.5-0.6c-0.3,0.4-0.5,0.7-0.8,1.1c0.5,0.2,1,0.4,1.5,0.6c0.1-0.3,0.2-0.7,0.4-1c0.3-0.9-1-1.4-1.5-0.6
						c-0.5,0.9-1.1,1.8-1.7,2.7c0.5,0.3,1,0.6,1.5,0.9c0.3-0.5,0.5-1.1,0.7-1.7c-0.6-0.2-1.1-0.3-1.7-0.5c-0.5,1.6-1.1,3.1-1.7,4.6
						c0.6,0.2,1.2,0.3,1.8,0.5c0.2-0.9,0.5-1.9,0.7-2.8c0.2-1-1.2-1.7-1.7-0.7c-0.9,1.8-1.3,3.6-1.2,5.6c0.6,0,1.3,0,1.9,0
						c0-0.6-0.1-1.2-0.2-1.7c-0.1-1-1.5-1.3-1.8-0.3c-0.6,1.9-0.1,3.7,1.2,5.1c0.4-0.4,0.9-0.9,1.3-1.3c-0.2-0.2-0.4-0.4-0.6-0.6
						c-0.7-0.8-2,0.2-1.5,1.1c1.9,3.2,4.8,5.6,8.7,5.5c0-0.7,0-1.3,0-2c-0.6,0.1-1.1,0.1-1.7,0.2c-1,0.1-1.4,1.6-0.2,1.8
						c3.6,0.7,7-0.2,9.5-2.9c-0.5-0.4-1-0.8-1.5-1.2c-0.2,0.3-0.3,0.6-0.5,0.9c-0.5,1,0.7,1.9,1.5,1.2c0.7-0.7,1.4-1.4,1.9-2.2
						c0.6-1.1-0.9-1.9-1.6-0.9c-0.5,0.7-1,1.3-1.6,1.8c0.5,0.4,1,0.8,1.5,1.2c0.2-0.3,0.4-0.6,0.5-0.9c0.5-0.9-0.8-2-1.5-1.2
						c-2,2.1-4.8,3.1-7.7,2.5c-0.1,0.6-0.2,1.2-0.2,1.8c0.6,0,1.1,0,1.7,0c1.3,0,1.3-2,0-2c-3.1,0.1-5.5-1.8-7-4.4
						c-0.5,0.4-1,0.8-1.5,1.1c0.2,0.2,0.4,0.4,0.6,0.6c0.9,0.9,2.2-0.4,1.3-1.3c-0.9-1-1.1-2.1-0.7-3.3c-0.6-0.1-1.2-0.2-1.8-0.3
						c0.1,0.6,0.1,1.2,0.2,1.7c0.1,1.2,2,1.2,1.9,0c-0.1-1.7,0.2-3.1,0.9-4.6c-0.6-0.2-1.1-0.5-1.7-0.7c-0.3,0.9-0.5,1.9-0.7,2.8
						c-0.3,1.2,1.4,1.6,1.8,0.5c0.5-1.5,1-3.1,1.6-4.6c0.3-0.9-1.2-1.6-1.6-0.7c-0.2,0.6-0.5,1.1-0.7,1.7c-0.3,0.9,1.1,1.5,1.6,0.7
						c0.5-0.9,1.1-1.8,1.6-2.8c-0.5-0.2-1-0.4-1.5-0.6c-0.1,0.3-0.2,0.7-0.4,1c-0.3,0.9,1,1.3,1.5,0.6c0.3-0.4,0.5-0.7,0.8-1.1
						c-0.5-0.2-1-0.4-1.5-0.6c0,0.3-0.1,0.6-0.1,0.8c-0.1,0.7,0.8,1.4,1.3,0.8c0.1-0.2,0.3-0.3,0.4-0.5
						C212.6,83.5,211.6,82.4,211,83.2L211,83.2z"/>
				</g>
			</g>
			<g>
				<g>
					<path fill="#C52A29" d="M218.3,99.7c0.7,0,0.7-1.1,0-1.1C217.6,98.6,217.6,99.7,218.3,99.7L218.3,99.7z"/>
				</g>
			</g>
			<g>
				<g>
					<path fill="#C52A29" d="M218.3,99.7c0.7,0,0.7-1.1,0-1.1C217.6,98.6,217.6,99.7,218.3,99.7L218.3,99.7z"/>
				</g>
			</g>
			<g>
				<g>
					<path fill="#C52A29" d="M216.3,99.7c1.4,0.2,2.7-0.4,3.9-1c-0.4-0.4-0.8-0.8-1.1-1.1c-0.1,0.1-0.2,0.2-0.2,0.3
						c0.1,0.5,0.1,1,0.2,1.5c2.4-0.4,4.3-2.6,6.1-4.1c0.8-0.7-0.4-1.9-1.2-1.2c-1.6,1.4-3.2,3.2-5.3,3.8c-0.8,0.2-0.7,1.6,0.2,1.5
						c0.8-0.1,1.2-0.3,1.7-0.9c0.6-0.7-0.5-1.5-1.1-1.1c-1.1,0.5-2.3,0.7-3.2,1.3C215.7,98.8,215.7,99.6,216.3,99.7L216.3,99.7z"/>
				</g>
			</g>
			<g>
				<g>
					<path fill="#C52A29" d="M208.3,90.3c0.2-0.1,0.4-0.3,0.4-0.5c0-0.1,0-0.2,0-0.3c0-0.2,0.1-0.4,0-0.5c0-0.3-0.2-0.5-0.4-0.6
						c-0.2-0.1-0.5-0.1-0.7,0c-0.2,0.1-0.4,0.4-0.4,0.6c0,0,0,0,0,0c0-0.1,0.1-0.2,0.1-0.3c-0.2,0.4-0.4,0.8-0.2,1.2
						c0.3,0.5,1.1,0.3,1.1-0.3c0,0,0-0.1,0-0.1c0,0.1,0,0.2-0.1,0.3c0.1-0.3,0.2-0.5,0.1-0.8c-0.1,0.2-0.2,0.4-0.2,0.6c0,0,0,0,0,0
						c0.3-0.2,0.4-0.5,0.2-0.8c-0.2-0.3-0.6-0.3-0.9-0.1c-0.2,0.2-0.3,0.4-0.5,0.7c0.4,0.2,0.8,0.3,1.2,0.5c0.1-0.2,0.1-0.5,0.2-0.7
						c-0.4,0.2-0.8,0.3-1.2,0.5c0,0,0.1,0,0.1,0.1c-0.1-0.1-0.1-0.2-0.2-0.3c0,0,0,0,0,0.1c0.1,0.2,0.3,0.4,0.6,0.4
						c0.2,0,0.5-0.2,0.6-0.4c0,0,0,0,0-0.1c-0.1,0.1-0.1,0.2-0.2,0.3c0,0,0,0,0.1-0.1c0.3-0.3,0.3-0.8-0.1-1.1c-0.4-0.2-0.9,0-1,0.4
						c0,0.2-0.1,0.5-0.1,0.8c0,0.3,0.2,0.5,0.5,0.6c0.3,0.1,0.6,0,0.7-0.3c0.1-0.2,0.3-0.5,0.3-0.7c-0.2,0.1-0.4,0.3-0.6,0.4
						c0,0,0,0,0,0c-0.2-0.1-0.3-0.3-0.5-0.4c0-0.1,0,0,0,0c0,0,0,0.1,0,0c0.1-0.1,0.2-0.2,0.3-0.2c0,0-0.1,0-0.1,0
						c0.2,0.3,0.4,0.6,0.7,0.9c0-0.1,0.1-0.1,0.1-0.2c0,0,0-0.1,0,0c0,0,0.1-0.1,0.1-0.1c0,0-0.2,0.1,0,0c-0.2,0-0.3,0-0.5,0.1
						c0,0,0,0,0,0c0-0.5,0-0.9,0-1.4c-0.2,0-0.4,0.2-0.5,0.4c-0.1,0.2-0.1,0.3-0.1,0.5c0,0.1,0,0.3-0.1,0.4c0,0.3,0.1,0.6,0.3,0.7
						C207.7,90.4,208,90.4,208.3,90.3L208.3,90.3z"/>
				</g>
			</g>
			<g>
				<g>
					<path fill="#C52A29" d="M219,78.4c2.7-0.6,5.6-1,8.3-0.2c1.2,0.4,1.6-1.3,0.5-1.8c-0.4-0.2-0.9-0.3-1.3-0.5
						c-0.1,0.6-0.2,1.2-0.2,1.8c1.5,0.1,2.9,0.5,4.3,1.1c0.3-0.5,0.6-1.1,0.9-1.6c-0.4-0.2-0.8-0.4-1.2-0.5
						c-0.2,0.6-0.3,1.2-0.5,1.8c1.5,0.4,2.7,1.2,4.1,1.9c0.8,0.4,1.8-0.7,1.1-1.4c-1.3-1.2-3-1.8-4.6-2.4c-1-0.3-1.7,1.3-0.7,1.7
						c0.4,0.2,0.8,0.4,1.2,0.5c1.1,0.5,1.6-1.3,0.5-1.8c-1.6-0.7-3.3-1.1-5-1.3c-1.1-0.1-1.1,1.5-0.2,1.8c0.4,0.2,0.9,0.3,1.3,0.5
						c0.2-0.6,0.3-1.2,0.5-1.8c-2.9-0.8-6.6-0.7-9.4,0.6C217.6,77.4,218.2,78.6,219,78.4L219,78.4z"/>
				</g>
			</g>
			<g>
				<g>
					<path fill="#C52A29" d="M242.6,100.3c0.2-0.7-0.1-1.6-0.3-2.3c-0.1-0.2-0.2-0.2-0.3-0.3c-0.1,0-0.2,0-0.2,0.1
						c-0.1,0.1-0.1,0.2-0.1,0.3c0.1,0.3,0.2,0.7,0.2,1c0.1,0.3,0.1,0.7,0.2,1C242.2,100.5,242.5,100.6,242.6,100.3L242.6,100.3z"/>
				</g>
			</g>
			<g>
				<g>
					<path fill="#C52A29" d="M242.6,100.6c0-0.1,0.1-0.2,0.1-0.3c0-0.4-0.6-0.4-0.6,0c0,0.1,0,0.2,0.1,0.3
						C242.2,100.7,242.5,100.7,242.6,100.6L242.6,100.6z"/>
				</g>
			</g>
			<g>
				<g>
					<path fill="#C52A29" d="M242.3,99.5c1.2-0.9,0.9-3.6,0.1-4.8c-0.3-0.5-1.3-0.4-1.3,0.3c0.1,0.8,0.3,1.5,0.3,2.3
						c0,0.7-0.1,1.4,0.2,2C241.9,99.5,242.2,99.6,242.3,99.5L242.3,99.5z"/>
				</g>
			</g>
			<g>
				<g>
					<path fill="#C52A29" d="M242.8,99.6c0.3-0.4,0.4-1.2,0.1-1.6c-0.2-0.4-0.9-0.4-1,0c-0.1,0.3-0.1,0.5-0.1,0.8c0,0.2,0,0.4,0,0.6
						C241.8,99.9,242.5,100.1,242.8,99.6L242.8,99.6z"/>
				</g>
			</g>
			<g>
				<g>
					<path fill="#C52A29" d="M242.7,98.9c0.1-0.5-0.2-0.9-0.4-1.4c-0.2-0.4-0.4-0.8-0.8-1.1c-0.4-0.3-1.2,0.1-1.1,0.6
						c0,0.5,0.3,0.9,0.5,1.3c0.2,0.4,0.5,0.8,0.9,1C242.2,99.5,242.6,99.2,242.7,98.9L242.7,98.9z"/>
				</g>
			</g>
			<g>
				<g>
					<path fill="#C52A29" d="M242.2,97.9c-0.1-1.4-1.1-3.1-1.9-4.2c-0.6-0.9-2-0.1-1.5,0.9c0.3,0.7,0.8,1.3,1.2,2
						c0.4,0.6,0.7,1.3,1.2,1.8C241.6,98.6,242.3,98.4,242.2,97.9L242.2,97.9z"/>
				</g>
			</g>
			<g>
				<g>
					<path fill="#C52A29" d="M234.9,93c0.8,0.6,1.6,1.1,2.5,1.7c0.7,0.4,1.9,0.9,2.3,1.6c0.4-0.5,0.8-1,1.2-1.5
						c-0.2-0.1-0.4-0.2-0.5-0.4c-0.3,0.6-0.7,1.1-1,1.7c0.4,0.1,0.6,0.3,0.8,0.7c0.3-0.5,0.6-1,0.9-1.5c-0.1,0-0.1,0-0.2,0
						c0.2,0.1,0.5,0.2,0.7,0.3c0,0-0.1-0.1-0.1-0.1c-0.5,0.5-0.9,0.9-1.4,1.4c0.2,0.2,0.4,0.5,0.6,0.7c0.9,0.9,2.3-0.5,1.4-1.4
						c-0.2-0.2-0.4-0.5-0.6-0.7c-0.9-0.9-2.3,0.5-1.4,1.4c0.3,0.3,0.6,0.4,1,0.4c0.8,0,1.2-0.9,0.9-1.5c-0.5-0.8-1.1-1.3-2-1.6
						c-1-0.4-1.6,1-1,1.7c0.4,0.5,0.9,0.7,1.4,0.9c0.9,0.3,1.6-0.8,1.2-1.5c-0.5-0.9-1.5-1.4-2.4-1.9c-1-0.7-2.1-1.3-3.2-1.9
						C234.7,90.9,233.9,92.3,234.9,93L234.9,93z"/>
				</g>
			</g>
			<g>
				<g>
					<path fill="#C52A29" d="M239.3,92.1c0,1.6,1.5,2.7,1.6,4.3c0.6-0.1,1.1-0.2,1.7-0.2c-0.5-1.3-0.8-2.6-0.8-4.1
						c-0.5,0.1-1,0.1-1.5,0.2c0.3,1.4,0.5,2.8,0.8,4.2c0.1,0.7,1.1,0.7,1.5,0.2c0.5-0.7,0.4-1.5,0.3-2.2c0-1-0.1-2-0.1-3
						c-0.6,0-1.1,0-1.7,0c0.1,1.4,0.2,2.7,0.4,4.1c0.1,1.1,1.9,1.2,1.8,0c-0.1-1.3-0.2-2.7-0.3-4c-0.6,0.1-1.2,0.2-1.8,0.2
						c0.3,1.2,0.3,2.4,0.2,3.6c-0.1,1.1,1.7,1.1,1.8,0c0.1-1.4,0-2.7-0.3-4.1c-0.2-1-1.8-0.8-1.8,0.2c0.1,1.3,0.2,2.7,0.3,4
						c0.6,0,1.2,0,1.8,0c-0.2-1.4-0.3-2.7-0.5-4.1c-0.1-1.1-1.8-1.1-1.7,0c0.1,0.7,0.1,1.5,0.2,2.2c0,0.6,0.3,1.7,0,2.2
						c0.5,0.1,1,0.1,1.5,0.2c-0.3-1.4-0.6-2.8-0.9-4.2c-0.2-0.9-1.5-0.6-1.5,0.2c-0.1,1.5,0.2,3.1,0.7,4.5c0.3,0.9,1.8,0.8,1.7-0.2
						c-0.1-1.7-1.4-2.9-1.8-4.5C240.5,91,239.3,91.2,239.3,92.1L239.3,92.1z"/>
				</g>
			</g>
			<g>
				<g>
					<path fill="#C52A29" d="M241.8,91.7c-0.4,0.6-0.2,1.5-0.3,2.2c-0.1,0.8-0.4,1.7-0.3,2.5c0.1,0.7,0.9,1.2,1.5,0.6
						c0.7-0.8,0.8-2,0.8-3c0-0.9,0-2.1-0.8-2.6C242.3,91.3,242,91.5,241.8,91.7L241.8,91.7z"/>
				</g>
			</g>
			<g>
				<g>
					<path fill="#C52A29" d="M241.7,93.8c-0.1,0.7-0.1,1.4-0.1,2c-0.1,0.7-0.4,1.3,0.2,1.9c0.2,0.2,0.5,0.3,0.7,0.2
						c0.9-0.3,0.9-1.2,1-2c0.1-0.8,0-1.6-0.4-2.3C242.9,93,241.8,93.1,241.7,93.8L241.7,93.8z"/>
				</g>
			</g>
			<g>
				<g>
					<path fill="#C52A29" d="M241.9,94.7c-0.2,0.4-0.2,0.8-0.3,1.2c-0.1,0.4-0.3,0.7-0.4,1.1c-0.3,0.9,1,1.3,1.4,0.6
						c0.3-0.4,0.4-0.8,0.5-1.3c0.1-0.4,0.2-1,0-1.4C243,94.4,242.2,94,241.9,94.7L241.9,94.7z"/>
				</g>
			</g>
			<g>
				<g>
					<path fill="#C52A29" d="M237,84.3c0.6,0.9,1.1,1.8,1.4,2.8c0.3,0.9,0.2,2,0.7,2.8c0.3,0.5,1.1,0.5,1.4,0c0.6-1,0.2-2.4-0.2-3.5
						c-0.4-1.2-1.1-2.2-2-3C237.7,82.8,236.5,83.5,237,84.3L237,84.3z"/>
				</g>
			</g>
			<g>
				<g>
					<path fill="#C52A29" d="M238.7,86c1.3,1,1.4,2.3,1.6,3.8c0.1,1.2,1.8,1.2,1.9,0c0-2-0.6-4.6-2.8-5.2
						C238.4,84.4,238,85.5,238.7,86L238.7,86z"/>
				</g>
			</g>
			<g>
				<g>
					<path fill="#C52A29" d="M239.6,87.2c-0.2,1.1,0.5,2.1,1,3c0.5,1.1,2,0.3,1.8-0.8c-0.1-0.7-0.2-1.3-0.3-2
						c-0.6,0.2-1.3,0.3-1.9,0.5c0.4,1.2,0.7,2.3,0.9,3.6c0.2,1.2,1.9,0.8,2-0.3c0-0.7,0-1.4-0.2-2.1c-0.4-1.2-2.1-0.7-1.9,0.5
						c0.2,1.1,0.3,2.3,0.5,3.4c0.2,1.1,1.8,0.8,1.8-0.2c0-1.2-0.2-2.5-0.4-3.7c-0.6,0.2-1.3,0.4-1.9,0.5c0.1,0.5,0.2,1,0.1,1.5
						c0.7-0.1,1.3-0.2,2-0.3c-0.2-1.2-0.5-2.4-0.9-3.5c-0.3-1-2.1-0.9-1.9,0.3c0.1,0.7,0.2,1.5,0.3,2.2c0.6-0.3,1.2-0.5,1.8-0.8
						c-0.4-0.9-0.8-1.9-1.7-2.4C240.2,86.6,239.6,86.7,239.6,87.2L239.6,87.2z"/>
				</g>
			</g>
			<g>
				<g>
					<path fill="#C52A29" d="M241.1,91.1c-0.1,0.4,0,0.8,0.1,1.2c0.1,0.4,0.2,0.7,0.6,0.9c0.5,0.2,1,0,1.3-0.4
						c0.2-0.3,0.3-0.7,0.2-1.1c-0.5,0.2-1.1,0.4-1.6,0.7c0,0.1,0.1,0.2,0.1,0.2c0.2,0.4,0.7,0.5,1,0.3c0.4-0.2,0.6-0.6,0.5-1
						c0-0.1,0-0.2-0.1-0.3c-0.1-0.4-0.5-0.7-0.9-0.6c-0.4,0.1-0.7,0.4-0.7,0.8c0,0,0,0.1,0,0.1c0,0.1,0,0,0-0.1c0,0,0.2-0.2,0-0.1
						c0.1-0.1,0.2-0.1,0.4-0.2c0,0,0,0-0.1,0c0.1,0,0.3,0,0.4,0c0,0,0,0,0,0c0.1,0.1,0.2,0.1,0.4,0.2c0.1,0.3,0.2,0.3,0.1,0.2
						c0-0.1,0-0.1,0-0.2c0-0.1,0-0.2-0.1-0.3c-0.1-0.3-0.2-0.5-0.4-0.8C242,90.3,241.3,90.6,241.1,91.1L241.1,91.1z"/>
				</g>
			</g>
			<g>
				<g>
					<path fill="#C52A29" d="M234.9,80.4c0.6-0.3,0.5-1.2,0.1-1.6c-0.3-0.2-0.7-0.3-1-0.1c-0.3,0.2-0.3,0.6-0.2,0.9c0,0,0.1,0.2,0,0
						c0,0,0,0.1,0,0.1c0.1,0.2,0.1,0.3,0.2,0.4C234.3,80.5,234.7,80.5,234.9,80.4L234.9,80.4z"/>
				</g>
			</g>
			<g>
				<g>
					<path fill="#C52A29" d="M234.6,80.5c0.3,0.5,0.7,0.9,1.1,1.4c0.4-0.4,0.9-0.9,1.3-1.3c-0.4-0.5-0.8-0.9-1.2-1.4
						c-0.4,0.4-0.9,0.9-1.3,1.3c1,1,1.8,2.2,2.3,3.6c0.6-0.3,1.2-0.5,1.8-0.8c-0.5-0.9-1-1.8-1.6-2.7c-0.3,0.5-0.5,1-0.8,1.4
						c0.7,0,1.1,1.7,1.3,2.2c0.2,0.7,0.4,1.4,0.7,2.1c0.4,0.8,1.5,0.3,1.6-0.4c0.1-1.3-0.5-2.8-1.1-3.9c-0.5-1-1.2-1.9-2.5-1.9
						c-0.7,0-1.2,0.8-0.8,1.4c0.5,0.9,1,1.8,1.5,2.8c0.5,0.9,2.2,0.3,1.8-0.8c-0.7-1.7-1.7-3-2.9-4.3c-0.8-0.9-2.1,0.4-1.3,1.3
						c0.4,0.5,0.8,0.9,1.3,1.4c0.8,0.8,2.1-0.4,1.3-1.3c-0.4-0.4-0.7-0.7-1.1-1.1C235.2,79.1,234.1,79.7,234.6,80.5L234.6,80.5z"/>
				</g>
			</g>
			<g>
				<g>
					<path fill="#C52A29" d="M237.2,82.8c0.3,0.5,0.6,0.9,0.9,1.4c0.3,0.5,0.4,1,0.7,1.5c0.4,0.8,1.5,0.3,1.5-0.4
						c0.1-1.3-0.9-3-2-3.6C237.6,81.5,236.8,82.1,237.2,82.8L237.2,82.8z"/>
				</g>
			</g>
			<g>
				<g>
					<path fill="#C52A29" d="M238,83.9c0.2,0.8,0.9,1.4,1.3,2.1c0.5,0.8,0.8,1.6,1,2.5c0.3,0.9,1.8,0.8,1.7-0.2
						c-0.1-1-0.4-1.9-0.9-2.8c-0.5-0.9-1.3-1.5-1.9-2.3C238.7,82.6,237.8,83.3,238,83.9L238,83.9z"/>
				</g>
			</g>
			<g>
				<g>
					<path fill="#C52A29" d="M237.6,83.1c0.1,0.6,0.3,1.1,0.5,1.6c0.2,0.5,0.4,1.1,0.7,1.5c0.4,0.7,1.7,0.3,1.4-0.6
						c-0.2-0.5-0.4-1-0.7-1.5c-0.2-0.5-0.5-1-0.8-1.5C238.4,82.2,237.5,82.5,237.6,83.1L237.6,83.1z"/>
				</g>
			</g>
			<g>
				<g>
					<path fill="#C52A29" d="M238.5,84.1c0,0.4,0.3,0.8,0.5,1c0,0.1,0.1,0.1,0.1,0.1c0.2,0.2,0,0,0.1,0.1c0,0.1,0,0.1,0,0
						c0,0,0,0.1,0,0.1c0,0.1,0.1,0.3,0.2,0.4c0.3,0.6,1.3,0.5,1.5-0.2c0.2-0.7-0.3-1.3-0.8-1.7c-0.2-0.2-0.6-0.4-0.9-0.4
						C238.8,83.5,238.4,83.7,238.5,84.1L238.5,84.1z"/>
				</g>
			</g>
			<path fill="none" stroke="#273C90" stroke-miterlimit="10" d="M242.3,101.3c-2.7,7.1-9.5,12.1-17.5,12.1
				c-10.3,0-18.7-8.4-18.7-18.7c0-1.4,0.1-2.7,0.4-4"/>
			<path fill="none" stroke="#C52A29" stroke-miterlimit="10" d="M206.5,90.6c1.8-8.4,9.3-14.7,18.3-14.7c10.3,0,18.7,8.4,18.7,18.7
				c0,2.3-0.4,4.6-1.2,6.7"/>
			<path fill="none" stroke="#C52A29" stroke-miterlimit="10" d="M206.8,89.4c-1.9,4.6,5.3,12.1,12.1,10c1.5-0.5,3.9-1.6,6.3-4.2
				c1.3-1.3,3.1-3,7.5-2.8c3.9,0.2,9.6,6.4,9.6,8.8"/>
		</g>
	</g>
	<g id="Layer_3_1_">
		<g>
			<polygon fill="#212121" points="259,79.4 255.7,81.5 246.2,65.1 249.4,63 			"/>
			<polygon fill="#212121" points="249.4,73.7 246.2,75.9 241.6,68.1 244.7,66 			"/>
			<polygon fill="#212121" points="254.3,82.4 251.1,84.5 247.1,77.4 250.3,75.3 			"/>
			<polygon fill="#212121" points="258.9,67.8 255.7,70 251.1,62.2 254.3,60.1 			"/>
			<polygon fill="#212121" points="263.9,76.5 260.6,78.6 256.6,71.5 259.8,69.4 			"/>
		</g>
		<g>
			<polygon fill="#212121" points="195.2,82.3 198.5,84.3 207.7,67.7 204.4,65.7 			"/>
			<polygon fill="#212121" points="190.6,79.6 193.8,81.6 203,65 199.8,63 			"/>
			<polygon fill="#212121" points="186.1,76.9 189.4,78.9 198.6,62.2 195.3,60.3 			"/>
		</g>
		<g>
			<polygon fill="#212121" points="198.3,115.5 195.1,117.6 190.5,109.8 193.7,107.7 			"/>
			<polygon fill="#212121" points="203.3,124.1 200.2,126.2 196,119.2 199.1,117.1 			"/>
			<polygon fill="#212121" points="207.8,121.5 204.5,123.6 195,107.2 198.2,105.1 			"/>
			<polygon fill="#212121" points="198.8,126.7 195.6,128.8 186,112.3 189.2,110.3 			"/>
		</g>
		<g>
			<polygon fill="#212121" points="247.2,112.5 250.3,114.7 255.1,107 252,104.8 			"/>
			<polygon fill="#212121" points="242,121.1 245.2,123.2 249.4,116.2 246.2,114.1 			"/>
			<polygon fill="#212121" points="251.5,115.4 254.7,117.5 259.4,109.9 256.3,107.7 			"/>
			<polygon fill="#212121" points="246.4,123.9 249.6,126.1 253.7,119.1 250.6,116.9 			"/>
			<polygon fill="#212121" points="255.5,118.3 258.6,120.5 263.4,112.9 260.2,110.7 			"/>
			<polygon fill="#212121" points="250.3,126.9 253.5,129 257.7,122 254.5,119.9 			"/>
		</g>
	</g>
</g>
<g id="Layer_3">
	<g id="XMLID_1_">
		<g>
			<path fill="#F5F5F5" d="M151.6,96.1l21.4,9.6c0,0-4.5,21.2,0,25.8c7.6,7.9,92.5,10.2,102,0.3c7.1-7.4,6.1-67,0-76.5
				c-5.6-8.7-95-4-102,1.4c-6.3,4.8,0,31.7,0,31.7L151.6,96.1z M350,0v250H0V0H350z"/>
		</g>
		<g>
			<path fill="none" stroke="#000000" stroke-width="2" stroke-miterlimit="10" d="M275,55.4c-5.6-8.7-95-4-102,1.4
				c-6.3,4.8,0,31.7,0,31.7l-21.4,7.7l21.4,9.6c0,0-4.5,21.2,0,25.8c7.6,7.9,92.5,10.2,102,0.3C282.1,124.5,281.1,64.9,275,55.4z"/>
		</g>
	</g>
</g>
<g id="Layer_1">
	<path fill="#212121" d="M23.8,249.9c3.9-50.6,32.7-89.9,67.7-89.9s63.8,39.2,67.7,89.9L23.8,249.9z"/>
	<circle fill="#212121" cx="91.4" cy="122.9" r="37.2"/>
</g>
</svg>
