<?xml version="1.0" encoding="iso-8859-1"?>
<!-- Generator: Adobe Illustrator 18.1.1, SVG Export Plug-In . SVG Version: 6.00 Build 0)  -->
<svg version="1.1" xmlns="http://www.w3.org/2000/svg" xmlns:xlink="http://www.w3.org/1999/xlink" x="0px" y="0px"
	 viewBox="0 0 350 250" style="enable-background:new 0 0 350 250;" xml:space="preserve">
<g id="Layer_1">
	<rect x="0.003" style="fill:#4DAF4E;" width="175" height="250"/>
	<rect x="175" style="fill:#F5F5F5;" width="175" height="250"/>
</g>
<g id="Layer_2">
	<g>
		<path style="fill:#C62828;" d="M237.002,162.497c-13.336,19.17-32.709,30.209-56.336,30.17
			c-37.371-0.061-67.667-30.295-67.667-67.667s30.296-67.386,67.667-67.667c22.252-0.167,41.25,10.583,54.292,27.272
			c0,0-32.603-24.411-57.959-16.522c-11.25,3.5-17.703,6.588-25,15.25c-9.687,11.5-15.518,35.701-15.417,42
			c0.136,8.452,0.921,29.168,12.917,40.75c7.25,7,13.75,11,25.502,15.5C205.813,193.384,237.002,162.497,237.002,162.497z"/>
		<polygon style="fill:#C62828;" points="197.395,144.225 188.604,131.849 173.425,132.076 182.478,119.89 177.572,105.525 
			191.959,110.369 204.105,101.264 203.944,116.443 216.357,125.182 201.87,129.719 		"/>
	</g>
</g>
</svg>
