<?xml version="1.0" encoding="iso-8859-1"?>
<!-- Generator: Adobe Illustrator 18.1.0, SVG Export Plug-In . SVG Version: 6.00 Build 0)  -->
<svg version="1.1" xmlns="http://www.w3.org/2000/svg" xmlns:xlink="http://www.w3.org/1999/xlink" x="0px" y="0px"
	 viewBox="0 0 350 250" style="enable-background:new 0 0 350 250;" xml:space="preserve">
<g id="Layer_1">
	<rect style="fill:#293990;" width="350" height="250"/>
</g>
<g id="Layer_3">
	<polygon style="fill:#F5F5F5;" points="-0.001,126 16.894,126 176.4,15.896 176.399,0 159.504,0 -0.001,110.104 	"/>
	<polygon style="fill:#F5F5F5;" points="176.4,126 159.505,126 -0.001,15.896 -0.001,0 16.894,0 176.4,110.104 	"/>
</g>
<g id="Layer_4">
	<polygon style="fill:#C62828;" points="176.399,0 176.399,3.095 82.482,68.04 77.111,60.274 164.273,0 	"/>
	<polygon style="fill:#C62828;" points="85.618,75.806 13.033,126 -0.001,126 -0.001,123.533 80.248,68.04 	"/>
	<polygon style="fill:#C62828;" points="0,12.25 85.349,71.27 90.719,63.504 -0.001,0.769 	"/>
	<polygon style="fill:#C62828;" points="86.183,62.198 176.398,124.583 176.401,113.105 91.554,54.432 	"/>
</g>
<g id="Layer_2">
	<rect x="73.583" style="fill:#F5F5F5;" width="29.232" height="126"/>
	<rect x="-0.001" y="48.384" style="fill:#F5F5F5;" width="176.4" height="29.232"/>
	<rect x="-0.001" y="52.92" style="fill:#C62828;" width="176.4" height="20.16"/>
	<rect x="78.119" style="fill:#C62828;" width="20.16" height="126"/>
</g>
<g id="Layer_5">
	<polygon style="fill:#FFFFFF;" points="88,152.536 96.995,175.321 120.418,168.148 108.212,189.387 128.424,203.227 
		104.209,206.926 105.99,231.358 88,214.732 70.01,231.358 71.791,206.926 47.576,203.227 67.788,189.387 55.582,168.148 
		79.005,175.321 	"/>
	<polygon style="fill:#FFFFFF;" points="272,204.272 274.761,211.266 281.951,209.064 278.204,215.584 284.409,219.832 
		276.976,220.968 277.522,228.467 272,223.364 266.478,228.467 267.024,220.968 259.591,219.832 265.796,215.584 262.049,209.064 
		269.239,211.266 	"/>
	<polygon style="fill:#FFFFFF;" points="253,28.272 255.761,35.266 262.951,33.064 259.204,39.584 265.409,43.832 257.976,44.968 
		258.522,52.467 253,47.364 247.478,52.467 248.024,44.968 240.591,43.832 246.796,39.584 243.049,33.064 250.239,35.266 	"/>
	<polygon style="fill:#FFFFFF;" points="216,101.272 218.761,108.266 225.951,106.064 222.204,112.584 228.409,116.832 
		220.976,117.968 221.522,125.467 216,120.364 210.478,125.467 211.024,117.968 203.591,116.832 209.796,112.584 206.049,106.064 
		213.239,108.266 	"/>
	<polygon style="fill:#FFFFFF;" points="301,73.272 303.761,80.266 310.951,78.064 307.204,84.584 313.409,88.832 305.976,89.968 
		306.522,97.467 301,92.364 295.478,97.467 296.024,89.968 288.591,88.832 294.796,84.584 291.049,78.064 298.239,80.266 	"/>
	<polygon style="fill:#FFFFFF;" points="284.268,122.281 285.893,125.573 289.526,126.101 286.897,128.663 287.518,132.281 
		284.268,130.573 281.019,132.281 281.64,128.663 279.011,126.101 282.644,125.573 	"/>
</g>
</svg>
