<?xml version="1.0" encoding="iso-8859-1"?>
<!-- Generator: Adobe Illustrator 18.1.0, SVG Export Plug-In . SVG Version: 6.00 Build 0)  -->
<svg version="1.1" xmlns="http://www.w3.org/2000/svg" xmlns:xlink="http://www.w3.org/1999/xlink" x="0px" y="0px"
	 viewBox="0 0 350 250" style="enable-background:new 0 0 350 250;" xml:space="preserve">
<g id="Layer_1">
	<rect style="fill:#4DAF4E;" width="350" height="250"/>
</g>
<g id="Layer_2">
	<polygon style="fill:#FEEA39;" points="315,125 175,210 35,125 175,40 	"/>
</g>
<g id="Layer_3">
	<circle style="fill:#293990;" cx="175" cy="125" r="55.5"/>
</g>
<g id="Layer_4">
	<g>
		<g>
			<path style="fill:#F5F5F5;" d="M129.742,114.36c0.736-1.804,2.406-5.204-0.516-6.092c-3.053-0.929-3.407,3.301-3.85,5.204
				c0.982,0.133,1.964,0.266,2.946,0.399c-0.194-1.483,0.052-4.216-1.407-5.103c-0.612-0.372-1.305-0.19-1.818,0.235
				c-1.079,0.893-0.692,3.285-0.751,4.506c-0.095,1.975,2.764,1.858,3,0c0.211-1.66,0.398-3.312,0.422-4.987
				c0.024-1.688-2.514-2.042-2.946-0.399c-0.475,1.804-0.759,3.632-0.875,5.493c1,0,2,0,3,0c-0.196-1.785-0.001-3.505,0.278-5.272
				c0.124-0.786-0.191-1.63-1.048-1.845c-2.694-0.675-2.761,3.909-3.117,5.55c0.982,0.133,1.964,0.266,2.946,0.399
				c0.144-1.587,0.288-3.173,0.432-4.76c0.136-1.497-2.123-2.022-2.795-0.757c-1.186,2.231-1.716,4.628-1.46,7.151
				c0.191,1.89,2.926,1.966,3,0c0.073-1.949,0.335-3.846,0.791-5.741c0.24-0.997-0.459-1.831-1.446-1.899
				c-1.765-0.122-2.107,1.909-2.376,3.226c-0.411,2.01-0.562,4.056-0.483,6.104c0.074,1.924,3.074,1.934,3,0
				c-0.044-1.148-0.031-2.294,0.085-3.437c0.064-0.628,0.165-1.251,0.29-1.869c0.041-0.187,0.081-0.374,0.122-0.561
				c0.342-0.647,0.129-0.801-0.638-0.463c-0.482-0.633-0.964-1.266-1.446-1.899c-0.517,2.151-0.815,4.328-0.898,6.539c1,0,2,0,3,0
				c-0.203-2.001,0.102-3.853,1.051-5.637c-0.932-0.252-1.863-0.505-2.795-0.757c-0.144,1.587-0.288,3.173-0.432,4.76
				c-0.153,1.681,2.59,2.043,2.946,0.399c0.312-1.442,0.461-3.102,1.017-4.467c-0.23,0.299-0.46,0.598-0.689,0.896
				c0.042-0.023,0.083-0.046,0.125-0.068c-0.385,0.05-0.771,0.101-1.156,0.151c0.043,0.011,0.086,0.022,0.13,0.032
				c-0.349-0.615-0.698-1.23-1.048-1.845c-0.32,2.022-0.61,4.021-0.386,6.07c0.208,1.894,2.877,1.962,3,0
				c0.1-1.601,0.36-3.145,0.768-4.696c-0.982-0.133-1.964-0.266-2.946-0.399c-0.024,1.675-0.211,3.327-0.422,4.987c1,0,2,0,3,0
				c0.025-0.527,0.051-1.055,0.076-1.582c0.013-0.275,0.269-1.193-0.204-0.802c-0.606,0.078-1.212,0.156-1.818,0.235
				c0.047,0.029,0.095,0.058,0.142,0.086c-0.23-0.299-0.46-0.598-0.689-0.896c0.324,1.029,0.329,2.257,0.468,3.323
				c0.2,1.532,2.526,2.204,2.946,0.399c0.146-0.627,0.292-1.254,0.438-1.881c0.159-0.685,0.658-1.209-0.262-1.333
				c-0.793-0.107-0.673,0.238-0.956,0.941c-0.211,0.523-0.426,1.045-0.639,1.567C126.12,115.349,129.021,116.126,129.742,114.36
				L129.742,114.36z"/>
		</g>
	</g>
	<g>
		<g>
			<path style="fill:#F5F5F5;" d="M127.742,112.252c1.146,2.002,4.14,1.877,5.606,0.198c1.811-2.075-0.81-4.016-2.868-3.069
				c-1.82,0.837-3.021,3.677-0.667,4.722c1.09,0.484,2.173-0.038,3.165-0.496c1.519-0.701,2.957-1.545,4.343-2.48
				c1.332-0.898,0.546-3.316-1.156-2.742c-2.332,0.787-4.673,1.766-5.741,4.151c-0.52,1.161,0.336,2.547,1.694,2.203
				c2.292-0.58,4.428-1.515,6.403-2.816c0.963-0.634,1.013-2.525-0.358-2.742c-2.767-0.437-5.442,0.081-7.702,1.791
				c-0.973,0.736-0.997,2.38,0.358,2.742c2.142,0.572,3.939-0.383,6.056-0.419c1.928-0.033,1.934-3.033,0-3
				c-1.731,0.029-3.561,0.979-5.259,0.526c0.119,0.914,0.239,1.828,0.358,2.742c1.578-1.193,3.404-1.802,5.391-1.488
				c-0.119-0.914-0.239-1.828-0.358-2.742c-1.772,1.168-3.628,1.993-5.686,2.513c0.565,0.734,1.129,1.469,1.694,2.203
				c0.749-1.673,2.309-2.219,3.948-2.772c-0.385-0.914-0.771-1.828-1.156-2.742c-0.866,0.584-1.747,1.138-2.665,1.637
				c-0.366,0.199-0.737,0.392-1.112,0.574c-0.286,0.145-0.578,0.279-0.874,0.402c-0.436,0.067-0.438,0.263-0.007,0.588
				c-0.05-0.385-0.101-0.771-0.151-1.156c-0.052,0.136-0.104,0.273-0.156,0.409c0.23-0.299,0.46-0.598,0.689-0.896
				c-0.054,0.039-1.111,0.795-1.198,0.644C129.374,109.063,126.781,110.572,127.742,112.252L127.742,112.252z"/>
		</g>
	</g>
	<g>
		<g>
			<path style="fill:#F5F5F5;" d="M122.436,110.934c-0.029-0.003-0.058-0.006-0.087-0.01c0.432,0.248,0.863,0.495,1.295,0.743
				c-0.016-0.024-0.033-0.049-0.049-0.073c-0.811-1.201-2.782-0.795-2.795,0.757c-0.01,1.142-0.086,2.278-0.229,3.412
				c-0.102,0.805,0.762,1.5,1.5,1.5c0.895,0,1.398-0.693,1.5-1.5c0.143-1.133,0.219-2.269,0.229-3.412
				c-0.932,0.252-1.863,0.505-2.795,0.757c0.37,0.549,0.784,0.754,1.432,0.826c0.806,0.089,1.5-0.753,1.5-1.5
				C123.936,111.55,123.245,111.023,122.436,110.934L122.436,110.934z"/>
		</g>
	</g>
	<g>
		<g>
			<path style="fill:#F5F5F5;" d="M126.131,107.783c-0.076-0.349-0.151-0.699-0.227-1.048c-0.482,0.633-0.964,1.266-1.446,1.899
				c3.321,0.051,6.593-0.11,9.893-0.488c1.867-0.214,1.979-3.034,0-3c-1.96,0.033-3.92,0.067-5.88,0.1c0,1,0,2,0,3
				c3.642-0.151,7.283-0.302,10.925-0.452c1.939-0.08,1.922-2.878,0-3c-1.948-0.124-3.556,0.092-5.397,0.721
				c-1.534,0.524-1.374,2.999,0.399,2.946c3.346-0.1,6.692-0.199,10.038-0.299c1.953-0.058,1.905-2.84,0-3
				c-1.577-0.133-3.153-0.265-4.73-0.398c0,1,0,2,0,3c2.123,0.091,4.245,0.182,6.368,0.273c1.654,0.071,2.093-2.713,0.399-2.946
				c-0.314-0.043-0.629-0.087-0.943-0.13c-0.133,0.982-0.266,1.964-0.399,2.946c0.688-0.037,1.377-0.074,2.065-0.11
				c-0.133-0.982-0.266-1.964-0.399-2.946c-2.863,0.535-5.725,1.07-8.588,1.604c-1.681,0.314-1.266,2.966,0.399,2.946
				c1.682-0.02,3.363-0.04,5.045-0.06c0-1,0-2,0-3c-4.61,0.173-8.969,1.007-13.303,2.597c-1.803,0.662-1.111,3.29,0.798,2.893
				c3.201-0.666,6.403-1.333,9.604-1.999c1.765-0.367,1.179-2.8-0.399-2.946c-4.486-0.417-8.453,0.899-12.581,2.526
				c-1.775,0.7-1.004,3.601,0.798,2.893c2.076-0.816,4.152-1.631,6.228-2.447c1.291-0.507,1.551-2.489,0-2.893
				c-2.158-0.562-7.101,0.334-8.124,2.632c-0.243,0.546,0.028,1.316-0.133,1.723c-0.089,0.226,0.605,0.621,0.545,0.758
				c0.259-0.59-3.335,1.268-3.444,1.344c-0.996,0.692-0.983,2.424,0.358,2.742c0.92,0.218,1.275,0.251,2.163-0.094
				c-0.385-0.914-0.771-1.828-1.156-2.742c-0.528,0.223-1.055,0.446-1.583,0.67c-1.485,0.628-0.569,2.72,0.757,2.795
				c2.816,0.161,5.471-1.313,8.373-1.331c-0.133-0.982-0.266-1.964-0.399-2.946c-1.757,0.362-3.514,0.723-5.271,1.085
				c-1.904,0.392-1.082,3.225,0.798,2.893c1.495-0.264,2.99-0.528,4.484-0.792c-0.266-0.964-0.532-1.929-0.798-2.893
				c-1.128,0.34-2.256,0.679-3.383,1.019c-1.549,0.467-1.351,3.106,0.399,2.946c3.443-0.313,6.887-0.627,10.33-0.94
				c-0.133-0.982-0.266-1.964-0.399-2.946c-0.384,0.058-0.767,0.115-1.151,0.173c-1.737,0.261-1.212,2.877,0.399,2.946
				c2.022,0.087,4.043,0.174,6.065,0.261c1.93,0.083,1.926-2.917,0-3c-2.022-0.087-4.043-0.174-6.065-0.261
				c0.133,0.982,0.266,1.964,0.399,2.946c0.384-0.058,0.767-0.115,1.151-0.173c1.657-0.249,1.285-3.1-0.399-2.946
				c-3.443,0.313-6.887,0.627-10.33,0.94c0.133,0.982,0.266,1.964,0.399,2.946c1.128-0.34,2.256-0.679,3.383-1.019
				c1.876-0.565,1.079-3.225-0.798-2.893c-1.495,0.264-2.99,0.528-4.484,0.792c0.266,0.964,0.532,1.929,0.798,2.893
				c1.757-0.362,3.514-0.723,5.271-1.085c1.675-0.345,1.269-2.957-0.399-2.946c-2.784,0.017-5.747,1.481-8.373,1.331
				c0.252,0.932,0.505,1.863,0.757,2.795c0.528-0.223,1.055-0.446,1.583-0.67c1.548-0.654,0.431-3.358-1.156-2.742
				c-0.189,0.031-0.378,0.063-0.568,0.094c0.119,0.914,0.239,1.828,0.358,2.742c1.367-0.95,4.563-2.301,4.748-4.27
				c0.05-0.534-0.451-1.143-0.421-1.492c-0.484-0.632-0.525-0.317-0.123,0.944c1.439-0.777,2.986-1.223,4.641-1.337
				c0-0.964,0-1.929,0-2.893c-2.076,0.816-4.152,1.631-6.228,2.447c0.266,0.964,0.532,1.929,0.798,2.893
				c3.886-1.531,7.533-2.815,11.784-2.419c-0.133-0.982-0.266-1.964-0.399-2.946c-3.201,0.666-6.403,1.333-9.604,1.999
				c0.266,0.964,0.532,1.929,0.798,2.893c4.094-1.502,8.135-2.326,12.505-2.49c1.922-0.072,1.939-3.023,0-3
				c-1.682,0.02-3.363,0.04-5.045,0.06c0.133,0.982,0.266,1.964,0.399,2.946c2.863-0.535,5.725-1.07,8.588-1.604
				c1.657-0.31,1.284-3.036-0.399-2.946c-0.688,0.037-1.377,0.074-2.065,0.11c-1.581,0.085-2.163,2.704-0.399,2.946
				c0.314,0.043,0.629,0.087,0.943,0.13c0.133-0.982,0.266-1.964,0.399-2.946c-2.123-0.091-4.245-0.182-6.368-0.273
				c-1.948-0.083-1.9,2.84,0,3c1.577,0.133,3.153,0.265,4.73,0.398c0-1,0-2,0-3c-3.346,0.1-6.692,0.199-10.038,0.299
				c0.133,0.982,0.266,1.964,0.399,2.946c1.552-0.53,2.963-0.718,4.599-0.614c0-1,0-2,0-3c-3.642,0.151-7.283,0.302-10.925,0.452
				c-1.921,0.08-1.94,3.033,0,3c1.96-0.033,3.92-0.067,5.88-0.1c0-1,0-2,0-3c-3.3,0.378-6.571,0.54-9.893,0.488
				c-1.019-0.016-1.648,0.968-1.446,1.899c0.076,0.349,0.151,0.699,0.227,1.048C123.646,110.466,126.539,109.668,126.131,107.783
				L126.131,107.783z"/>
		</g>
	</g>
	<g>
		<g>
			<path style="fill:#F5F5F5;" d="M137.522,108.769c-1.095,0.707-1.333,1.009-1.747,2.237c-0.172,0.51,0.032,1.084,0.386,1.459
				c2.504,2.655,7.153-1.465,4.615-3.958c-0.367-0.361-0.956-0.553-1.459-0.386c-1.834,0.61-3.634,3.787-2.197,5.549
				c2.094,2.567,6.074-2.091,7.261-3.37c0.875-0.942,0.271-2.554-1.061-2.561c-2.593-0.014-8.215,3.033-5.526,6.338
				c2.601,3.197,9.155-2.704,11.186-4.276c0.843-0.653,0.401-2.36-0.662-2.507c-2.551-0.352-9.901,0.646-8.674,4.872
				c1.194,4.112,8.741-0.064,10.711-1.29c1.103-0.687,0.89-2.365-0.358-2.742c-2.45-0.738-7.91-1.37-8.787,2.137
				c-0.907,3.623,4.099,3.557,6.244,3.124c2.19-0.442,5.278-2.55,2.74-4.766c-1.862-1.626-6.128-0.695-6.707,1.873
				c-1.507,6.69,11.84,2.223,6.237-0.846c-1.914-1.049-6.154-0.063-5.731,2.721c0.533,3.508,5.41,1.556,7.252,0.726
				c1.243-0.56,0.773-2.396-0.358-2.742c-2.06-0.629-5.125-0.535-5.603,2.064c-0.136,0.738,0.116,1.252,0.689,1.694
				c1.279,0.985,2.933,0.519,4.451,0.409c0-1,0-2,0-3c-2.023,0.199-4.681-0.029-6.517,0.966c-0.722,0.391-0.923,1.363-0.538,2.052
				c1.015,1.818,3.464,0.968,5.078,0.571c1.874-0.461,1.08-3.352-0.798-2.893c-1.282,0.314-2.565,0.627-3.847,0.941
				c-1.658,0.405-1.282,2.938,0.399,2.946c0.78,0.004,1.559,0.008,2.339,0.012c-0.133-0.982-0.266-1.964-0.399-2.946
				c-0.459,0.067-0.917,0.134-1.376,0.2c0.266,0.964,0.532,1.929,0.798,2.893c1.843-0.312,3.322-0.326,5.14-0.162
				c-0.133-0.982-0.266-1.964-0.399-2.946c-1.21,0.208-2.421,0.417-3.631,0.625c-1.646,0.283-1.284,3.149,0.399,2.946
				c3.322-0.4,6.441-0.3,9.735,0.397c0.981,0.208,1.852-0.433,1.899-1.446c0.113-2.446,1.585-7.823-0.306-9.826
				c-1.924-2.039-7.893-0.894-10.293-0.93c-1.666-0.025-2.072,2.569-0.399,2.946c1.671,0.377,3.132,0.683,4.562,1.811
				c0.354-0.854,0.707-1.707,1.061-2.561c-2.291-0.111-4.104,0.008-6.126,1.094c-1.233,0.662-0.755,2.997,0.757,2.795
				c2.834-0.377,5.668-0.755,8.502-1.132c-0.133-0.982-0.266-1.964-0.399-2.946c-2.576,0.672-4.8,1.461-6.722,3.353
				c-0.993,0.977-0.179,2.449,1.061,2.561c2.054,0.186,4.053,0.223,6.113,0.113c-0.133-0.982-0.266-1.964-0.399-2.946
				c-2.026,0.783-4.051,1.566-6.077,2.349c-1.598,0.618-1.321,2.777,0.399,2.946c2.071,0.204,3.974,0.096,6.01-0.249
				c1.649-0.279,1.286-3.129-0.399-2.946c-0.362,0.039-0.725,0.079-1.087,0.118c-1.899,0.206-1.92,3.209,0,3
				c0.362-0.039,0.725-0.079,1.087-0.118c-0.133-0.982-0.266-1.964-0.399-2.946c-1.876,0.318-3.365,0.323-5.212,0.142
				c0.133,0.982,0.266,1.964,0.399,2.946c2.026-0.783,4.051-1.566,6.077-2.349c1.462-0.565,1.423-3.044-0.399-2.946
				c-2.06,0.11-4.059,0.073-6.113-0.113c0.354,0.854,0.707,1.707,1.061,2.561c1.55-1.526,3.364-2.051,5.399-2.582
				c1.584-0.413,1.315-3.175-0.399-2.946c-2.834,0.377-5.668,0.755-8.502,1.132c0.252,0.932,0.505,1.863,0.757,2.795
				c1.609-0.864,2.94-0.765,4.612-0.684c1.215,0.059,2.092-1.746,1.061-2.561c-1.837-1.45-3.591-2.065-5.886-2.583
				c-0.133,0.982-0.266,1.964-0.399,2.946c1.671,0.025,6.802-0.737,7.992,0.099c0.428,0.301-0.359,6.9-0.394,7.657
				c0.633-0.482,1.266-0.964,1.899-1.446c-3.528-0.747-6.943-0.937-10.532-0.505c0.133,0.982,0.266,1.964,0.399,2.946
				c1.21-0.208,2.421-0.417,3.631-0.625c1.779-0.306,1.165-2.805-0.399-2.946c-2.043-0.184-3.929-0.071-5.937,0.269
				c-1.916,0.324-1.08,3.166,0.798,2.893c0.459-0.067,0.917-0.134,1.376-0.2c1.706-0.248,1.245-2.938-0.399-2.946
				c-0.78-0.004-1.559-0.008-2.339-0.012c0.133,0.982,0.266,1.964,0.399,2.946c1.282-0.314,2.565-0.627,3.847-0.941
				c-0.266-0.964-0.532-1.929-0.798-2.893c-0.563,0.269-1.127,0.538-1.69,0.808c-0.179,0.684-0.359,1.368-0.538,2.052
				c1.209-0.654,3.645-0.422,5.003-0.556c1.892-0.186,1.944-3.14,0-3c-0.609,0.044-2.354,0.449-2.937,0
				c0.23,0.565,0.46,1.129,0.689,1.694c0.637,0.01,1.275,0.021,1.912,0.031c-0.119-0.914-0.239-1.828-0.358-2.742
				c-2.251,1.014-1.552,0.47-3.993,0.104c-3.134-0.47,3.199,0.331,3.462,0.41c-0.119-0.914-0.239-1.828-0.358-2.742
				c-1.456,0.906-2.651,1.418-4.29,2.041c-0.417,0.106-0.833,0.211-1.25,0.317c1.374-0.404,2.78-0.557,4.219-0.457
				c-0.221-0.836-0.441-1.671-0.662-2.507c-1.23,0.952-2.503,1.836-3.848,2.616c-0.41,0.25-0.831,0.482-1.261,0.695
				c-1.332,0.637-0.809,0.553,1.57-0.253c-0.354-0.854-0.707-1.707-1.061-2.561c-0.774,0.833-2.074,1.604-2.678,2.487
				c-1.034,0.344-1.153,0.707-0.358,1.088c0.758,0.68,0.696,0.548-0.186-0.395C140.653,110.316,139.151,107.718,137.522,108.769
				L137.522,108.769z"/>
		</g>
	</g>
	<g>
		<g>
			<path style="fill:#F5F5F5;" d="M160.189,107.252c-0.03-0.043-0.059-0.085-0.089-0.128c-0.462-0.664-1.314-0.97-2.052-0.538
				c-0.657,0.385-1.003,1.384-0.538,2.052c0.03,0.043,0.059,0.085,0.089,0.128c0.462,0.664,1.314,0.97,2.052,0.538
				C160.308,108.92,160.654,107.92,160.189,107.252L160.189,107.252z"/>
		</g>
	</g>
	<g>
		<g>
			<path style="fill:#F5F5F5;" d="M160.29,106.383c-0.021-0.091-0.041-0.182-0.062-0.274c-0.914,0.385-1.828,0.771-2.742,1.156
				c1.477,2.447,1.791,4.763,0.608,7.499c-0.472,1.09,0.087,2.14,1.295,2.257c6.633,0.642,13.265,1.285,19.898,1.927c0-1,0-2,0-3
				c-0.689,0.044-1.378,0.089-2.066,0.133c-1.615,0.104-2.125,2.527-0.399,2.946c2.033,0.494,4.066,0.988,6.099,1.481
				c1.071,0.26,2.198-0.717,1.845-1.845c-1.03-3.296,2.713-9.254-2.479-10.322c-0.133,0.982-0.266,1.964-0.399,2.946
				c0.687-0.003,1.373-0.007,2.06-0.01c1.986-0.01,1.86-2.766,0-3c-4.938-0.62-9.876-1.241-14.814-1.861
				c-2.163-0.272-6.934-1.879-8.786-0.717c-2.715,1.704-0.348,7.928,2.021,8.952c0.568,0.246,1.368,0.313,1.818-0.235
				c1.957-2.387-0.762-6.731-3.489-4.461c-3.037,2.528,1.731,4.962,4.226,3.739c2.914-1.429,2.736-6.266-1.046-5.925
				c-4.567,0.411-2.667,6.642,1.246,6.929c2.809,0.206,7.37-2.583,4.694-5.6c-2.145-2.419-8.336-1.807-7.576,2.345
				c0.822,4.488,9.594,5.038,12.176,2.153c3.751-4.191-4.266-5.991-6.969-5.226c-5.212,1.475-2,6.341,1.882,6.997
				c2.067,0.349,6.759,0.169,8.049-2.051c0.688-1.184,0.5-2.33-0.732-3.042c-1.675-0.968-3.187,1.623-1.514,2.59
				c-1.393-0.805-5.335-0.218-6.32-0.664c-1.536-0.695-2.98-4.5-6.749,0.095c0.606-0.078,1.212-0.156,1.818-0.235
				c-0.606-0.952-1.033-1.978-1.281-3.076c-1.457-0.683-1.131-0.771,0.977-0.266c2.115-0.006,4.379,0.55,6.481,0.814
				c4.629,0.582,9.259,1.163,13.888,1.745c0-1,0-2,0-3c-0.687,0.003-1.373,0.007-2.06,0.01c-1.644,0.008-2.098,2.597-0.399,2.946
				c0.558,0.115-0.028,6.912,0.383,8.227c0.615-0.615,1.23-1.23,1.845-1.845c-2.033-0.494-4.066-0.988-6.099-1.481
				c-0.133,0.982-0.266,1.964-0.399,2.946c0.689-0.044,1.378-0.089,2.066-0.133c1.948-0.125,1.91-2.815,0-3
				c-6.633-0.642-13.265-1.285-19.898-1.927c0.432,0.752,0.863,1.505,1.295,2.257c1.583-3.659,1.475-7.076-0.608-10.527
				c-0.893-1.479-3.114-0.495-2.742,1.156c0.021,0.091,0.041,0.182,0.062,0.274C157.822,109.062,160.715,108.266,160.29,106.383
				L160.29,106.383z"/>
		</g>
	</g>
	<g>
		<g>
			<path style="fill:#F5F5F5;" d="M173.702,112.641c2.97,0.121,7.27,4.406,10.167,1.497c0.345-0.346,0.58-0.978,0.386-1.459
				c-1.122-2.788-8.068-4.597-9.97-1.696c-3.256,4.965,6.081,4.124,8.148,3.497c1.307-0.397,1.544-2.637,0-2.893
				c-2.806-0.466-6.044-0.5-8.105,1.742c-0.495,0.539-0.52,1.179-0.235,1.818c1.028,2.299,6.523,4.107,8.465,2.25
				c0.47-0.45,0.576-1.262,0.235-1.818c-1.218-1.985-4.783-1.172-6.687-1.198c-1.985-0.027-1.857,2.765,0,3
				c2.236,0.282,4.022,0.095,6.156-0.599c1.32-0.43,1.531-2.569,0-2.893c-4.168-0.882-8.059-0.724-12.265-0.922
				c-3.605-0.169-7.213-0.658-10.874-0.753c0.5,0.5,1,1,1.5,1.5c0.689-1.323,1.377-2.646,2.066-3.968
				c1.256-0.406,1.449-2.025,0.358-2.742c-0.871-0.572-1.742-1.145-2.613-1.717c-1.618-1.063-3.123,1.533-1.514,2.59
				c0.871,0.572,1.742,1.145,2.613,1.717c0.119-0.914,0.239-1.828,0.358-2.742c-3.28,1.06-3.964,3.638-4.268,6.861
				c-0.078,0.823,0.751,1.48,1.5,1.5c3.207,0.084,6.12,0.545,9.178,0.936c1.479,0.189,3.585-0.324,5.106-0.319
				c2.726,0.009,5.394,0.386,8.058,0.95c0-0.964,0-1.929,0-2.893c-1.823,0.594-3.457,0.733-5.359,0.492c0,1,0,2,0,3
				c-0.094-0.001,4.288,0.024,4.097-0.288c0.078-0.606,0.156-1.212,0.235-1.818c-0.098,0.094-3.732-1.597-3.753-1.643
				c-0.078,0.606-0.156,1.212-0.235,1.818c1.45-1.25,3.178-1.573,5.186-0.97c0-0.964,0-1.929,0-2.893
				c-0.914,0.277-3.717,0.423-3.513,0.951c0.212,0.548,3.495,1.867,1.354-0.838c-1.017-1.284-4.151-1.994-5.773-2.06
				C171.771,109.562,171.775,112.563,173.702,112.641L173.702,112.641z"/>
		</g>
	</g>
	<g>
		<g>
			<path style="fill:#F5F5F5;" d="M185.222,112.141c6.69,0.264,13.159,3.22,19.416,5.394c1.865,0.648,2.525-2.169,0.798-2.893
				c-1.275-0.535-2.551-1.07-3.826-1.605c-0.133,0.982-0.266,1.964-0.399,2.946c3.187,0.425,6.012,1.907,8.844,3.323
				c-0.179-0.684-0.359-1.368-0.538-2.052c-1.315,2.946-15.172-0.603-17.894-1.002c-0.133,0.982-0.266,1.964-0.399,2.946
				c5.17,0.343,10.325,0.802,15.475,1.379c1.765,0.198,1.907-2.43,0.399-2.946c-3.453-1.183-6.805-1.783-10.44-1.919
				c-1.955-0.073-1.891,2.823,0,3c3.963,0.371,7.925,0.742,11.888,1.113c1.695,0.159,2.021-2.55,0.399-2.946
				c-3.214-0.786-6.448-1.33-9.761-1.442c-1.75-0.059-4.058,0.587-5.682,0.213c-0.169-0.363-0.337-0.727-0.506-1.09
				c1.815,0.098,3.509,0.604,5.08,1.518c0.252-0.932,0.505-1.863,0.757-2.795c-2.687-0.176-5.374-0.352-8.061-0.528
				c-1.785-0.117-1.9,2.403-0.399,2.946c3.293,1.192,6.372,1.66,9.871,1.519c1.718-0.069,2.002-2.397,0.399-2.946
				c-4.96-1.701-9.759-1.986-14.906-1.01c0.266,0.964,0.532,1.929,0.798,2.893c1.561-0.349,2.825-0.838,4.223-1.584
				c0.925-0.494,1.033-2.129,0-2.59c-2.068-0.923-7.333-0.987-5.729,2.967c1.091,2.69,4.967,1.733,5.425-0.761
				c0.133-0.726-0.11-1.265-0.689-1.694c-2.132-1.577-6.421-0.322-6.273,2.678c0.174,3.515,4.82,3.381,5.946,0.543
				c1.119-2.822-2.088-6.177-4.792-4.131c-3.373,2.551,0.244,6.066,2.923,6.825c0-0.964,0-1.929,0-2.893
				c-1.062,0.306-2.125,0.612-3.187,0.917c-1.316,0.379-1.385,2.016-0.358,2.742c1.375,0.971,2.381,1.073,4.012,0.84
				c1.665-0.238,1.281-3.06-0.399-2.946c-1.625,0.11-3.981-0.428-3.779,2.096c0.058,0.727,0.438,1.187,1.101,1.446
				c1.898,0.742,4.419,0.824,6.436,1.161c1.56,0.26,2.773-1.884,1.156-2.742c-1.195-0.633-2.389-1.267-3.584-1.9
				c-0.385,0.914-0.771,1.828-1.156,2.742c2.256,0.573,4.512,1.146,6.768,1.719c0.133-0.982,0.266-1.964,0.399-2.946
				c-0.931,0.027-1.862,0.055-2.793,0.082c-0.739,0.022-1.597,0.673-1.5,1.5c0.45,3.829,6.361,3.676,9.253,4.334
				c1.88,0.428,2.682-2.464,0.798-2.893c-0.472-0.108-7.042-1.369-7.05-1.441c-0.5,0.5-1,1-1.5,1.5
				c0.931-0.027,1.862-0.055,2.793-0.082c1.653-0.049,2.084-2.519,0.399-2.946c-2.256-0.573-4.512-1.146-6.768-1.719
				c-1.605-0.408-2.699,1.923-1.156,2.742c1.195,0.633,2.389,1.267,3.584,1.9c0.385-0.914,0.771-1.828,1.156-2.742
				c-2.047-0.342-4.495-0.402-6.436-1.161c0.367,0.482,0.734,0.964,1.101,1.446c0.092,1.144-1.308,1.045,0.779,0.904
				c-0.133-0.982-0.266-1.964-0.399-2.946c-0.567-0.179-1.134-0.358-1.701-0.537c-0.119,0.914-0.239,1.828-0.358,2.742
				c1.062-0.306,2.125-0.612,3.187-0.917c1.422-0.409,1.432-2.487,0-2.893c-0.038-0.144-0.077-0.287-0.115-0.431
				c-0.23-0.565-0.46-1.129-0.689-1.694c0.561,0.394,1.122,0.787,1.684,1.181c0-0.863,0-1.727,0-2.59
				c-1.087,0.672-2.255,1.099-3.506,1.282c-1.897,0.424-1.081,3.249,0.798,2.893c4.613-0.875,8.869-0.513,13.311,1.01
				c0.133-0.982,0.266-1.964,0.399-2.946c-3.183,0.129-6.088-0.331-9.073-1.411c-0.133,0.982-0.266,1.964-0.399,2.946
				c2.687,0.176,5.374,0.352,8.061,0.528c1.471,0.096,2.063-2.132,0.757-2.795c-2.69-1.367-13.164-4.23-12.251,2.076
				c0.303,2.089,2.277,2.977,4.149,3.163c2.203,0.219,4.515-0.317,6.747-0.297c3.365,0.03,6.649,0.545,9.911,1.343
				c0.133-0.982,0.266-1.964,0.399-2.946c-3.963-0.371-7.925-0.742-11.888-1.113c0,1,0,2,0,3c3.38,0.127,6.466,0.724,9.643,1.812
				c0.133-0.982,0.266-1.964,0.399-2.946c-5.149-0.577-10.304-1.037-15.475-1.379c-1.661-0.11-2.082,2.7-0.399,2.946
				c5.023,0.736,10.071,1.697,15.121,2.217c2.794,0.288,4.92,0.186,6.161-2.594c0.313-0.701,0.248-1.659-0.538-2.052
				c-3.364-1.681-6.609-3.232-10.358-3.732c-1.834-0.245-1.793,2.362-0.399,2.946c1.275,0.535,2.551,1.07,3.826,1.605
				c0.266-0.964,0.532-1.929,0.798-2.893c-6.576-2.284-13.176-5.223-20.213-5.501C183.292,109.065,183.295,112.065,185.222,112.141
				L185.222,112.141z"/>
		</g>
	</g>
	<g>
		<g>
			<path style="fill:#F5F5F5;" d="M197.895,121.362c0.23,0.134,0.46,0.267,0.69,0.401c0.252-0.932,0.505-1.863,0.757-2.795
				c-0.781,0.016-1.563,0.032-2.344,0.047c-1.927,0.039-1.936,3.008,0,3c2.538-0.011,4.781,0.411,7.142,1.293
				c0-0.964,0-1.929,0-2.893c-1.233,0.26-2.467,0.519-3.7,0.779c-1.463,0.308-1.396,2.544,0,2.893
				c1.748,0.437,3.495,0.875,5.243,1.312c1.872,0.469,2.664-2.387,0.798-2.893c-0.823-0.223-1.646-0.446-2.469-0.669
				c-1.89-0.512-2.587,2.239-0.798,2.893c1.647,0.602,3.295,1.205,4.942,1.807c1.819,0.665,2.591-2.225,0.798-2.893
				c-1.974-0.736-3.868-1.124-5.951-1.304c-1.448-0.126-2.095,2.185-0.757,2.795c2.604,1.189,5.443,1.456,8.155,2.378
				c3.697,1.257,7.167,3.121,10.615,4.929c0.941,0.493,2.336-0.1,2.257-1.295c-0.181-2.738,0.461-7.359-1.073-9.781
				c-1.504-2.374-5.58-2.696-7.975-3.409c-1.867-0.556-2.606,2.268-0.798,2.893c1.066,0.369,1.25,0.383,2.378,0.418
				c1.73,0.054,1.983-2.455,0.399-2.946c-1.459-0.452-2.918-0.905-4.377-1.357c0,0.964,0,1.929,0,2.893
				c0.305-0.076,0.609-0.151,0.914-0.227c1.892-0.47,1.078-3.251-0.798-2.893c-3.08,0.589-7.509,3.175-6.16,7.045
				c0.834,2.394,4.075,3.474,5.351,0.936c0.305-0.607,0.252-1.319-0.235-1.818c-1.33-1.363-3.042-1.013-4.857-1.004c0,1,0,2,0,3
				c3.561-0.025,6.789-0.542,10.172-1.654c1.089-0.358,1.634-2.194,0.358-2.742c-3.096-1.33-5.784-1.57-9.034-0.538
				c-1.374,0.437-1.478,2.502,0,2.893c3.004,0.793,5.954,1.27,9.052,1.487c1.704,0.119,2.013-2.524,0.399-2.946
				c-2.107-0.551-11.152-2.54-9.626,2.432c1.076,3.506,10.643,3.517,12.077,0.579c0.372-0.761,0.179-1.575-0.538-2.052
				c-4.997-3.325-11.625,1.532-5.155,5.102c1.561,0.861,5.196,2.304,6.519,0.231c1.616-2.532-1.806-3.736-3.494-4.356
				c-1.366-0.502-2.169,1.138-1.694,2.203c0.942,2.116,2.168,3.359,4.242,4.365c1.354,0.657,2.756-0.675,2.052-2.052
				c-0.019-1.116-0.038-2.232-0.057-3.348c0.421-0.906,0.084-1.876-0.896-2.203c-0.24-0.08-0.481-0.16-0.721-0.241
				c-1.835-0.613-2.623,2.284-0.798,2.893c0.24,0.08,0.481,0.16,0.721,0.241c-0.299-0.734-0.598-1.469-0.896-2.203
				c-1.074,2.309-1.12,4.074,0.057,6.377c0.684-0.684,1.368-1.368,2.052-2.052c-1.651-0.63-2.706-1.726-3.166-3.289
				c-0.565,0.734-1.129,1.469-1.694,2.203c2.776,1.019-2.763-4.059,1.413-1.279c-0.179-0.684-0.359-1.368-0.538-2.052
				c-0.069,0.141-4.735,0.171-4.748,0.217c-0.309,1.025,3.163,0.936,4.09,1.179c0.133-0.982,0.266-1.964,0.399-2.946
				c-2.822-0.198-5.525-0.659-8.255-1.38c0,0.964,0,1.929,0,2.893c2.236-0.942,4.476-0.863,6.722,0.236
				c0.119-0.914,0.239-1.828,0.358-2.742c-3.091,1.016-6.128,1.524-9.374,1.546c-1.93,0.013-1.934,3.009,0,3
				c0.916-0.046,1.828-0.004,2.736,0.125c-0.078-0.606-0.156-1.212-0.235-1.818c0.781-2.27,2.18-3.462,4.197-3.575
				c-0.266-0.964-0.532-1.929-0.798-2.893c-0.305,0.076-0.609,0.151-0.914,0.227c-1.483,0.368-1.369,2.468,0,2.893
				c1.459,0.452,2.918,0.905,4.377,1.357c0.133-0.982,0.266-1.964,0.399-2.946c-0.527-0.104-1.053-0.207-1.58-0.311
				c-0.266,0.964-0.532,1.929-0.798,2.893c2.561,0.762,4.345,0.786,5.734,3.031c1.283,2.073,0.956,4.909,1.112,7.266
				c0.752-0.432,1.505-0.863,2.257-1.295c-2.67-1.4-5.343-2.804-8.121-3.979c-3.417-1.445-7.327-1.812-10.649-3.328
				c-0.252,0.932-0.505,1.863-0.757,2.795c1.935,0.168,3.381,0.537,5.153,1.197c0.266-0.964,0.532-1.929,0.798-2.893
				c-1.647-0.602-3.295-1.205-4.942-1.807c-0.266,0.964-0.532,1.929-0.798,2.893c0.823,0.223,1.646,0.446,2.469,0.669
				c0.266-0.964,0.532-1.929,0.798-2.893c-1.748-0.437-3.495-0.875-5.243-1.312c0,0.964,0,1.929,0,2.893
				c1.233-0.26,2.467-0.519,3.7-0.779c1.574-0.331,1.267-2.419,0-2.893c-2.641-0.988-5.122-1.413-7.94-1.401c0,1,0,2,0,3
				c0.781-0.016,1.563-0.032,2.344-0.047c1.471-0.03,2.063-2.036,0.757-2.795c-0.23-0.134-0.46-0.267-0.69-0.401
				C197.736,117.8,196.224,120.392,197.895,121.362L197.895,121.362z"/>
		</g>
	</g>
	<g>
		<g>
			<path style="fill:#F5F5F5;" d="M221.671,132.653c1.904,0.605,3.572,1.488,5.114,2.761c1.151,0.95,2.83,0.069,2.507-1.459
				c-0.216-1.023-0.235-1.807-0.042-2.837c-0.964,0-1.929,0-2.893,0c0.162,0.851,0.325,1.703,0.487,2.554
				c0.333,1.745,2.842,1.201,2.946-0.399c0.149-2.278,1.049-5.879-0.428-7.844c-0.976-1.297-2.646-1.234-3.752-2.341
				c-0.888-0.888-1.07-1.632-2.466-1.849c-1.926-0.298-2.583,2.151-0.798,2.893c0.482,0.2,1.393,0.51,1.702,0.959
				c0.448,0.651,0.394,1.815,0.573,2.588c0.243,1.047,0.583,1.885,1.18,2.793c0.737,1.122,2.978,0.837,2.795-0.757
				c-0.258-2.251-2.075-3.623-3.917-4.745c-0.922-0.561-2.343,0.15-2.257,1.295c0.172,2.291,0.956,5.764,3.669,6.076
				c0.508,0.058,1.052-0.327,1.295-0.743c1.254-2.143-1.564-7.493-4.423-6.329c-3.482,1.418-0.522,7.018,2.584,6.861
				c1.198-0.061,1.786-1.212,1.295-2.257c-0.296-0.631-0.444-0.814-0.952-1.29c-1.409-1.318-3.535,0.799-2.121,2.121
				c0.161,0.228,0.322,0.455,0.483,0.683c0.432-0.752,0.863-1.505,1.295-2.257c-0.361-0.52-0.838-0.81-1.431-0.872
				c-0.704-0.305-0.751-0.143-0.142,0.485c0.12,0.215,0.241,0.429,0.361,0.644c0.31,1.115,0.463,1.347,0.46,0.697
				c0.432-0.248,0.863-0.495,1.295-0.743c-0.037-0.004-0.641-2.71-0.669-3.076c-0.752,0.432-1.505,0.863-2.257,1.295
				c0.669,0.407,2.327,1.244,2.432,2.154c0.932-0.252,1.863-0.505,2.795-0.757c-1.098-1.672-0.571-3.686-1.673-5.308
				c-0.861-1.267-2.213-1.846-3.575-2.411c-0.266,0.964-0.532,1.929-0.798,2.893c0.689,0.107,1.294,1.353,1.86,1.765
				c0.617,0.449,1.349,0.523,1.974,0.906c1.693,1.037,0.725,4.714,0.61,6.469c0.982-0.133,1.964-0.266,2.946-0.399
				c-0.162-0.851-0.325-1.703-0.487-2.554c-0.273-1.429-2.624-1.435-2.893,0c-0.288,1.536-0.282,2.902,0.042,4.432
				c0.836-0.486,1.671-0.973,2.507-1.459c-1.946-1.606-4.031-2.767-6.438-3.532C220.624,129.174,219.835,132.07,221.671,132.653
				L221.671,132.653z"/>
		</g>
	</g>
	<g>
		<g>
			<path style="fill:#F5F5F5;" d="M221.489,126.063c2.008,1.39,4.754,1.604,7.122,1.388c1.907-0.174,1.925-3.176,0-3
				c-1.877,0.171-4.005,0.131-5.607-0.978C221.412,122.371,219.911,124.97,221.489,126.063L221.489,126.063z"/>
		</g>
	</g>
</g>
<g id="Layer_5">
	<path style="fill:none;stroke:#F5F5F5;stroke-linecap:round;stroke-miterlimit:10;" d="M123.437,105.416
		c68.813-5.791,106.547,19.823,106.547,19.823"/>
	<path style="fill:none;stroke:#F5F5F5;stroke-linecap:round;stroke-miterlimit:10;" d="M120.618,117.292
		c68.813-5.791,108.266,18.923,108.266,18.923"/>
	<path style="fill:none;stroke:#F5F5F5;stroke-linecap:round;stroke-miterlimit:10;" d="M123.437,105.416
		c-1.409,2.709-2.819,8.825-2.819,11.876"/>
	<path style="fill:none;stroke:#F5F5F5;stroke-miterlimit:10;" d="M229.984,125.239c0.516,0.823-0.656,9.933-1.1,11.042"/>
</g>
<g id="Layer_6">
	<polygon style="fill:#F5F5F5;" points="130.5,123.508 129.672,123.047 128.822,123.468 129.005,122.538 128.342,121.86 
		129.283,121.746 129.723,120.906 130.122,121.766 131.057,121.925 130.362,122.57 	"/>
	<polygon style="fill:#F5F5F5;" points="136.5,156.167 135.478,155.313 134.196,155.671 134.692,154.436 133.955,153.327 
		135.283,153.417 136.11,152.373 136.435,153.664 137.683,154.128 136.556,154.837 	"/>
	<polygon style="fill:#F5F5F5;" points="196.997,107.686 195.637,106.676 194.034,107.225 194.574,105.619 193.557,104.264 
		195.251,104.281 196.226,102.895 196.733,104.512 198.352,105.011 196.971,105.992 	"/>
	<polygon style="fill:#F5F5F5;" points="198.352,128.508 197.626,127.873 196.691,128.112 197.07,127.225 196.554,126.409 
		197.515,126.496 198.131,125.754 198.346,126.694 199.242,127.051 198.414,127.545 	"/>
	<polygon style="fill:#F5F5F5;" points="145,149.833 142.976,148.734 140.923,149.778 141.344,147.513 139.717,145.883 142,145.583 
		143.047,143.532 144.038,145.611 146.313,145.973 144.642,147.558 	"/>
	<polygon style="fill:#F5F5F5;" points="150.333,144.833 149.455,144.303 148.52,144.727 148.753,143.727 148.061,142.969 
		149.083,142.882 149.591,141.99 149.99,142.935 150.995,143.142 150.219,143.814 	"/>
	<polygon style="fill:#F5F5F5;" points="165.5,137 163.928,135.816 162.062,136.439 162.702,134.578 161.532,132.996 163.5,133.03 
		164.644,131.428 165.219,133.31 167.096,133.903 165.484,135.032 	"/>
	<polygon style="fill:#F5F5F5;" points="160.333,154.27 158.852,153.596 157.458,154.435 157.64,152.818 156.412,151.751 
		158.006,151.425 158.642,149.927 159.444,151.343 161.065,151.484 159.967,152.685 	"/>
	<polygon style="fill:#F5F5F5;" points="159.122,161.667 157.609,160.932 156.147,161.762 156.377,160.096 155.136,158.962 
		156.792,158.667 157.487,157.135 158.28,158.619 159.951,158.807 158.785,160.019 	"/>
	<polygon style="fill:#F5F5F5;" points="164.314,164.333 163.775,163.242 162.57,163.067 163.442,162.217 163.236,161.017 
		164.314,161.583 165.392,161.017 165.186,162.217 166.058,163.067 164.853,163.242 	"/>
	<polygon style="fill:#F5F5F5;" points="186.5,141.99 184.987,141.51 183.734,142.484 183.723,140.897 182.41,140.006 
		183.916,139.505 184.357,137.981 185.299,139.258 186.885,139.207 185.961,140.497 	"/>
	<polygon style="fill:#F5F5F5;" points="180.5,146.833 179.562,146.432 178.699,146.978 178.791,145.962 178.005,145.311 
		179,145.083 179.377,144.135 179.9,145.011 180.919,145.076 180.247,145.845 	"/>
	<polygon style="fill:#F5F5F5;" points="184.647,151.333 184.085,151.241 183.69,151.651 183.604,151.088 183.091,150.839 
		183.601,150.583 183.679,150.019 184.079,150.424 184.641,150.324 184.379,150.831 	"/>
	<polygon style="fill:#F5F5F5;" points="195.167,144.833 193.518,143.907 191.82,144.74 192.191,142.886 190.874,141.529 
		192.753,141.309 193.636,139.637 194.426,141.356 196.289,141.679 194.899,142.961 	"/>
	<polygon style="fill:#F5F5F5;" points="190.874,159.449 189.078,158.622 187.379,159.633 187.61,157.669 186.124,156.365 
		188.063,155.979 188.843,154.162 189.811,155.887 191.779,156.068 190.438,157.52 	"/>
	<polygon style="fill:#F5F5F5;" points="184.777,172.167 184.483,171.571 183.826,171.476 184.302,171.012 184.189,170.358 
		184.777,170.667 185.365,170.358 185.253,171.012 185.728,171.476 185.071,171.571 	"/>
	<polygon style="fill:#F5F5F5;" points="204.5,156.167 203.446,155.282 202.12,155.649 202.636,154.373 201.878,153.225 
		203.25,153.322 204.107,152.246 204.44,153.581 205.728,154.064 204.561,154.792 	"/>
	<polygon style="fill:#F5F5F5;" points="205.728,161.762 204.363,161.884 203.689,163.078 203.151,161.817 201.807,161.545 
		202.84,160.644 202.684,159.282 203.86,159.986 205.107,159.416 204.801,160.753 	"/>
	<polygon style="fill:#F5F5F5;" points="210.811,156.167 209.918,155.325 208.719,155.583 209.244,154.474 208.627,153.413 
		209.844,153.569 210.663,152.655 210.891,153.861 212.013,154.357 210.936,154.946 	"/>
	<polygon style="fill:#F5F5F5;" points="212.833,162.675 212.077,162.373 211.398,162.825 211.452,162.011 210.813,161.506 
		211.603,161.306 211.886,160.542 212.32,161.231 213.135,161.264 212.613,161.89 	"/>
	<polygon style="fill:#F5F5F5;" points="215,158.167 214.131,157.656 213.217,158.082 213.434,157.098 212.746,156.361 
		213.75,156.263 214.238,155.381 214.641,156.305 215.631,156.497 214.877,157.166 	"/>
	<polygon style="fill:#F5F5F5;" points="216.833,152.181 215.722,151.733 214.723,152.394 214.806,151.199 213.868,150.453 
		215.03,150.162 215.45,149.04 216.085,150.055 217.283,150.108 216.513,151.026 	"/>
	<polygon style="fill:#F5F5F5;" points="222.247,149.04 221.001,148.637 219.964,149.435 219.962,148.127 218.883,147.387 
		220.127,146.98 220.497,145.725 221.268,146.783 222.576,146.747 221.809,147.807 	"/>
	<polygon style="fill:#F5F5F5;" points="220.729,141.99 219.58,141.255 218.324,141.786 218.667,140.466 217.774,139.435 
		219.135,139.353 219.84,138.186 220.338,139.455 221.667,139.765 220.613,140.631 	"/>
	<polygon style="fill:#F5F5F5;" points="225.321,144.833 224.117,144.375 223.056,145.107 223.12,143.82 222.095,143.038 
		223.339,142.701 223.767,141.485 224.472,142.564 225.76,142.594 224.952,143.598 	"/>
	<polygon style="fill:#F5F5F5;" points="225.552,139.751 224.963,139.498 224.421,139.84 224.48,139.202 223.987,138.792 
		224.612,138.65 224.85,138.055 225.178,138.606 225.817,138.648 225.395,139.13 	"/>
</g>
</svg>
