<?xml version="1.0" encoding="iso-8859-1"?>
<!-- Generator: Adobe Illustrator 18.1.0, SVG Export Plug-In . SVG Version: 6.00 Build 0)  -->
<svg version="1.1" xmlns="http://www.w3.org/2000/svg" xmlns:xlink="http://www.w3.org/1999/xlink" x="0px" y="0px"
	 viewBox="0 0 350 250" style="enable-background:new 0 0 350 250;" xml:space="preserve">
<g id="Layer_1">
	<rect style="fill:#F5F5F5;" width="350" height="250"/>
	<rect style="fill:#F8981D;" width="350" height="83.333"/>
	<rect y="166.667" style="fill:#4DAF4E;" width="350" height="83.333"/>
</g>
<g id="Layer_2">
	<circle style="fill:none;stroke:#293990;stroke-miterlimit:10;" cx="175" cy="125" r="39.833"/>
	<circle style="fill:#293990;" cx="175" cy="124.75" r="11.25"/>
	<line style="fill:none;stroke:#293990;stroke-miterlimit:10;" x1="174.5" y1="85" x2="174.5" y2="165"/>
	<line style="fill:none;stroke:#293990;stroke-miterlimit:10;" x1="135" y1="125.5" x2="215" y2="125.5"/>
	<line style="fill:none;stroke:#293990;stroke-miterlimit:10;" x1="202.913" y1="96.586" x2="146.771" y2="153.103"/>
	<line style="fill:none;stroke:#293990;stroke-miterlimit:10;" x1="146.929" y1="96.742" x2="203.071" y2="153.258"/>
	<line style="fill:none;stroke:#293990;stroke-miterlimit:10;" x1="160.572" y1="87.864" x2="189.691" y2="162.033"/>
	<line style="fill:none;stroke:#293990;stroke-miterlimit:10;" x1="138.399" y1="109.26" x2="211.561" y2="140.831"/>
	<line style="fill:none;stroke:#293990;stroke-miterlimit:10;" x1="138.399" y1="140.74" x2="211.602" y2="109.26"/>
	<line style="fill:none;stroke:#293990;stroke-miterlimit:10;" x1="159.856" y1="161.851" x2="189.691" y2="87.864"/>
	<polygon style="fill:#293990;" points="174.5,102.92 176.654,114.172 182.949,104.601 180.633,115.821 190.113,109.387 
		183.679,118.867 194.899,116.551 185.328,122.846 196.58,125.5 185.328,127.154 195.405,133.86 183.679,131.133 190.635,140.74 
		180.633,134.179 183.333,145.838 176.654,135.828 174.5,147.08 172.346,135.828 166.399,145.626 168.367,134.179 159.417,140.583 
		165.321,131.133 154.252,133.922 163.672,127.154 152.42,125.5 163.672,122.846 154.043,116.011 165.321,118.867 158.97,108.863 
		168.367,115.821 167.033,104.32 172.346,114.172 	"/>
</g>
</svg>
