<?xml version="1.0" encoding="iso-8859-1"?>
<!-- Generator: Adobe Illustrator 18.1.1, SVG Export Plug-In . SVG Version: 6.00 Build 0)  -->
<svg version="1.1" xmlns="http://www.w3.org/2000/svg" xmlns:xlink="http://www.w3.org/1999/xlink" x="0px" y="0px"
	 viewBox="0 0 350 250" style="enable-background:new 0 0 350 250;" xml:space="preserve">
<g id="Layer_1">
	<rect y="166.667" style="fill:#C62828;" width="350" height="83.333"/>
	<rect y="83.333" style="fill:#F5F5F5;" width="350" height="83.333"/>
	<rect y="0" style="fill:#4DAF4E;" width="350" height="83.333"/>
</g>
<g id="Layer_2">
	<g>
		<g>
			<path style="fill:#C62828;" d="M151.502,99.346c-1.896,19.983,8.377,38.767,26.205,47.963c0.601,0.31,1.325,0.25,1.818-0.235
				c12.535-12.324,20.738-29.549,16.877-47.314c-0.41-1.886-3.303-1.088-2.893,0.798c3.629,16.699-4.375,32.862-16.106,44.395
				c0.606-0.078,1.212-0.156,1.818-0.235c-16.998-8.769-26.525-26.336-24.719-45.373C154.684,97.425,151.683,97.437,151.502,99.346
				L151.502,99.346z"/>
		</g>
	</g>
	<g>
		<g>
			<path style="fill:#C62828;" d="M172.4,97.099c-0.893,1.345-1.959,2.56-2.852,3.904c-1.071,1.613,1.526,3.117,2.59,1.514
				c0.893-1.345,1.959-2.56,2.852-3.904C176.061,97,173.464,95.496,172.4,97.099L172.4,97.099z"/>
		</g>
	</g>
	<g>
		<g>
			<path style="fill:#C62828;" d="M172.791,98.768c1.532,1.635,3.063,3.269,4.595,4.904c1.323,1.412,3.441-0.713,2.121-2.121
				c-1.532-1.635-3.063-3.269-4.595-4.904C173.589,95.235,171.471,97.36,172.791,98.768L172.791,98.768z"/>
		</g>
	</g>
	<g>
		<g>
			<path style="fill:#C62828;" d="M176.973,103.447c0.694,13.522,1.388,27.045,2.082,40.567c0.099,1.921,3.099,1.933,3,0
				c-0.694-13.522-1.388-27.045-2.082-40.567C179.874,101.526,176.874,101.514,176.973,103.447L176.973,103.447z"/>
		</g>
	</g>
	<g>
		<g>
			<path style="fill:#C62828;" d="M169.343,102.609c0.036,13.629,0.81,27.22,2.319,40.766c0.211,1.898,3.214,1.919,3,0
				c-1.51-13.545-2.283-27.137-2.319-40.766C172.337,100.678,169.337,100.675,169.343,102.609L169.343,102.609z"/>
		</g>
	</g>
	<g>
		<g>
			<path style="fill:#C62828;" d="M178.923,142.978c0.191,2.821,0.381,5.643,0.572,8.464c0.129,1.916,3.13,1.93,3,0
				c-0.191-2.821-0.381-5.643-0.572-8.464C181.794,141.062,178.793,141.048,178.923,142.978L178.923,142.978z"/>
		</g>
	</g>
	<g>
		<g>
			<path style="fill:#C62828;" d="M171.439,142.302c0.274,3.669,0.566,7.335,0.644,11.014c0.041,1.928,3.041,1.934,3,0
				c-0.078-3.68-0.369-7.346-0.644-11.014C174.296,140.388,171.294,140.373,171.439,142.302L171.439,142.302z"/>
		</g>
	</g>
	<g>
		<g>
			<path style="fill:#C62828;" d="M172.82,154.88c1.25,1.464,2.5,2.929,3.75,4.393c1.255,1.471,3.369-0.66,2.121-2.121
				c-1.25-1.464-2.5-2.929-3.75-4.393C173.686,151.288,171.572,153.419,172.82,154.88L172.82,154.88z"/>
		</g>
	</g>
	<g>
		<g>
			<path style="fill:#C62828;" d="M179.696,158.958c0.926-1.227,1.852-2.455,2.779-3.682c0.488-0.647,0.103-1.677-0.538-2.052
				c-0.769-0.449-1.563-0.111-2.052,0.538c-0.926,1.227-1.852,2.455-2.779,3.682c-0.488,0.647-0.103,1.677,0.538,2.052
				C178.412,159.946,179.206,159.607,179.696,158.958L179.696,158.958z"/>
		</g>
	</g>
	<g>
		<g>
			<path style="fill:#C62828;" d="M178.94,147.046c0.109,2.547,0.217,5.093,0.326,7.64c0.082,1.923,3.083,1.934,3,0
				c-0.109-2.547-0.217-5.093-0.326-7.64C181.858,145.123,178.857,145.113,178.94,147.046L178.94,147.046z"/>
		</g>
	</g>
	<g>
		<g>
			<path style="fill:#C62828;" d="M175.941,108.182c0.225-0.526,0.449-1.053,0.673-1.579c-0.932-0.252-1.863-0.505-2.795-0.757
				c-0.118,9.808-0.236,19.616-0.354,29.424c1,0,2,0,3,0c-0.583-9.919-1.167-19.839-1.75-29.758c-0.113-1.918-3.105-1.934-3,0
				c0.439,8.048,0.878,16.097,1.316,24.145c0.105,1.918,3.09,1.936,3,0c-0.402-8.616-0.805-17.233-1.207-25.849
				c-0.09-1.918-3.013-1.942-3,0c0.056,8.402,0.112,16.805,0.167,25.207c0.013,1.93,3.011,1.934,3,0
				c-0.052-9.176-0.103-18.351-0.155-27.527c-1,0-2,0-3,0c0.157,12.726,0.379,25.446,1.839,38.102c0.215,1.866,3.07,1.975,3,0
				c-0.375-10.564-0.751-21.129-1.126-31.693c-1,0-2,0-3,0c0.357,7.316,0.714,14.633,1.071,21.949
				c0.263,5.382,0.225,10.679,2.727,15.574c0.653,1.277,2.946,0.731,2.795-0.757c-1.149-11.337-2.298-22.674-3.447-34.01
				c-1,0-2,0-3,0c1.221,11.84,2.443,23.68,3.664,35.52c0.195,1.891,3.158,1.94,3,0c-0.918-11.273-1.837-22.546-2.755-33.819
				c-0.155-1.905-3.127-1.938-3,0c0.702,10.72,1.404,21.439,2.106,32.159c0.125,1.908,3.045,1.948,3,0
				c-0.219-9.431-0.438-18.862-0.657-28.293c-0.045-1.927-3.006-1.936-3,0c0.029,8.792,0.058,17.584,0.087,26.377
				c0.006,1.93,2.991,1.933,3,0c0.028-6.258,0.057-12.516,0.085-18.773c0.009-1.94-2.907-1.921-3,0
				c-0.303,6.292,0.143,12.463,1.292,18.652c0.352,1.896,3.244,1.093,2.893-0.798c-1.102-5.931-1.475-11.836-1.185-17.855
				c-1,0-2,0-3,0c-0.028,6.258-0.057,12.516-0.085,18.773c1,0,2,0,3,0c-0.029-8.792-0.058-17.584-0.087-26.377c-1,0-2,0-3,0
				c0.219,9.431,0.438,18.862,0.657,28.293c1,0,2,0,3,0c-0.702-10.72-1.404-21.439-2.106-32.159c-1,0-2,0-3,0
				c0.918,11.273,1.837,22.546,2.755,33.819c1,0,2,0,3,0c-1.221-11.84-2.443-23.68-3.664-35.52c-0.196-1.901-3.195-1.923-3,0
				c1.149,11.337,2.298,22.674,3.447,34.01c0.932-0.252,1.863-0.505,2.795-0.757c-2.749-5.378-2.224-12.152-2.512-18.05
				c-0.292-5.986-0.584-11.972-0.877-17.958c-0.094-1.919-3.069-1.938-3,0c0.375,10.564,0.751,21.129,1.126,31.693c1,0,2,0,3,0
				c-1.46-12.656-1.682-25.376-1.839-38.102c-0.024-1.929-3.011-1.935-3,0c0.052,9.176,0.103,18.351,0.155,27.527c1,0,2,0,3,0
				c-0.056-8.402-0.112-16.805-0.167-25.207c-1,0-2,0-3,0c0.402,8.616,0.805,17.233,1.207,25.849c1,0,2,0,3,0
				c-0.439-8.048-0.878-16.097-1.316-24.145c-1,0-2,0-3,0c0.583,9.919,1.167,19.839,1.75,29.758c0.113,1.914,2.977,1.947,3,0
				c0.118-9.808,0.236-19.616,0.354-29.424c0.017-1.387-2.189-2.178-2.795-0.757c-0.225,0.526-0.449,1.053-0.673,1.579
				C172.601,108.424,175.185,109.954,175.941,108.182L175.941,108.182z"/>
		</g>
	</g>
	<g>
		<g>
			<path style="fill:#C62828;" d="M179.891,137.559c-0.21-3.789-0.42-7.578-0.63-11.367c-0.106-1.918-2.956-1.944-3,0
				c-0.122,5.37-0.091,10.641,1.472,15.824c0.512,1.698,2.779,1.237,2.946-0.399c0.73-7.151,0.292-14.181-1.258-21.195
				c-0.366-1.658-2.977-1.283-2.946,0.399c0.045,2.466,0.089,4.931,0.134,7.397c0.035,1.928,3.035,1.934,3,0
				c-0.045-2.466-0.089-4.931-0.134-7.397c-0.982,0.133-1.964,0.266-2.946,0.399c1.492,6.756,1.852,13.521,1.15,20.397
				c0.982-0.133,1.964-0.266,2.946-0.399c-1.485-4.924-1.481-9.931-1.365-15.026c-1,0-2,0-3,0c0.21,3.789,0.42,7.578,0.63,11.367
				C176.998,139.479,179.998,139.491,179.891,137.559L179.891,137.559z"/>
		</g>
	</g>
	<g>
		<g>
			<path style="fill:#C62828;" d="M175.132,118.414c-0.188-0.431-0.376-0.862-0.563-1.292c-0.624-1.433-2.778-0.617-2.795,0.757
				c-0.027,2.18-0.055,4.359-0.082,6.539c1,0,2,0,3,0c-0.17-3.505-0.339-7.011-0.509-10.516c-0.093-1.922-2.949-1.94-3,0
				c-0.078,2.989-0.156,5.978-0.234,8.968c-0.051,1.945,2.869,1.909,3,0c0.429-6.232,0.858-12.463,1.287-18.695
				c0.133-1.939-2.825-1.9-3,0c-0.357,3.877-0.713,7.753-1.07,11.63c0.982-0.133,1.964-0.266,2.946-0.399
				c-0.889-4.655-1.009-9.171-0.33-13.865c-0.982-0.133-1.964-0.266-2.946-0.399c0.148,2.859,0.295,5.718,0.443,8.577
				c0.982-0.133,1.964-0.266,2.946-0.399c-1.154-3.311-0.727-6.269,1.252-9.119c-0.914-0.119-1.828-0.239-2.742-0.358
				c0.597,3.812,1.193,7.624,1.79,11.436c0.964-0.266,1.929-0.532,2.893-0.798c-0.643-3.528-1.287-7.056-1.93-10.584
				c-0.914,0.385-1.828,0.771-2.742,1.156c2.198,4.599,2.958,9.202,2.514,14.258c0.982-0.133,1.964-0.266,2.946-0.399
				c-1.255-3.18-1.669-6.219-1.318-9.605c-0.982,0.133-1.964,0.266-2.946,0.399c0.539,4.003,1.078,8.006,1.618,12.01
				c0.224,1.661,3.089,1.284,2.946-0.399c-0.382-4.498-0.764-8.996-1.147-13.493c-0.5,0.5-1,1-1.5,1.5
				c0.384,0.025,0.767,0.049,1.151,0.074c-0.5-0.5-1-1-1.5-1.5c0.091,5.107,0.183,10.214,0.274,15.321c1,0,2,0,3,0
				c-0.424-5.68-0.849-11.36-1.273-17.041c-0.932,0.252-1.863,0.505-2.795,0.757c1.789,4.005,1.236,8.887,1.271,13.189
				c0.032,3.959,0.065,7.918,0.097,11.877c0.065,7.918,0.13,15.836,0.194,23.753c0.016,1.988,2.761,1.858,3,0
				c0.433-3.363,0.865-6.727,1.298-10.09c-1,0-2,0-3,0c0.149,4.682,0.298,9.365,0.447,14.047c0.367-0.482,0.734-0.964,1.101-1.446
				c-1.543,0.424-1.759,0.704-2.317,2.212c0.914-0.119,1.828-0.239,2.742-0.358c-0.843-1.937-1.686-3.874-2.529-5.812
				c-0.605-1.39-2.85-0.655-2.795,0.757c0.043,1.12,0.087,2.241,0.13,3.361c0.076,1.951,2.839,1.908,3,0
				c0.138-1.633-0.147-2.675-1.074-4.012c-0.649-0.937-2.52-1.033-2.742,0.358c-0.322,2.025-0.063,3.14,1.421,4.592
				c0.898,0.878,2.612,0.268,2.561-1.061c-0.08-2.08-0.16-4.161-0.24-6.241c-0.982,0.133-1.964,0.266-2.946,0.399
				c0.885,2.488,1.769,4.977,2.654,7.465c0.646,1.816,3.284,1.105,2.893-0.798c-1.052-5.123-2.105-10.246-3.157-15.369
				c-0.397-1.933-3.144-1.058-2.893,0.798c0.516,3.807,1.032,7.614,1.548,11.421c0.228,1.685,2.991,1.265,2.946-0.399
				c-0.092-3.44-0.955-6.383-2.776-9.303c-0.749-1.201-2.877-0.791-2.795,0.757c0.157,2.981,0.314,5.962,0.47,8.944
				c0.101,1.915,3.008,1.945,3,0c-0.017-4.229-0.034-8.458-0.051-12.687c-0.008-1.935-2.939-1.928-3,0
				c-0.1,3.149-0.2,6.298-0.3,9.447c-0.053,1.664,2.604,2.075,2.946,0.399c1.495-7.313,0.92-14.39-1.898-21.321
				c-0.591-1.455-2.992-1.433-2.946,0.399c0.121,4.868,0.243,9.736,0.364,14.604c0.048,1.93,2.95,1.933,3,0
				c0.114-4.41,0.228-8.821,0.341-13.231c-1,0-2,0-3,0c0.163,3.87,0.325,7.74,0.488,11.61c0.081,1.922,2.97,1.94,3,0
				c0.059-3.817,0.118-7.635,0.178-11.452c0.03-1.931-2.97-1.932-3,0c-0.059,3.818-0.118,7.635-0.178,11.452c1,0,2,0,3,0
				c-0.163-3.87-0.325-7.74-0.488-11.61c-0.081-1.925-2.95-1.938-3,0c-0.114,4.41-0.228,8.821-0.341,13.231c1,0,2,0,3,0
				c-0.121-4.868-0.243-9.736-0.364-14.604c-0.982,0.133-1.964,0.266-2.946,0.399c2.603,6.403,3.286,12.938,1.898,19.726
				c0.982,0.133,1.964,0.266,2.946,0.399c0.1-3.149,0.2-6.298,0.3-9.447c-1,0-2,0-3,0c0.017,4.229,0.034,8.458,0.051,12.687
				c1,0,2,0,3,0c-0.157-2.981-0.314-5.962-0.47-8.944c-0.932,0.252-1.863,0.505-2.795,0.757c1.572,2.521,2.286,4.824,2.366,7.789
				c0.982-0.133,1.964-0.266,2.946-0.399c-0.516-3.807-1.032-7.614-1.548-11.421c-0.964,0.266-1.929,0.532-2.893,0.798
				c1.052,5.123,2.105,10.246,3.157,15.369c0.964-0.266,1.929-0.532,2.893-0.798c-0.885-2.488-1.769-4.977-2.654-7.465
				c-0.537-1.511-3.015-1.389-2.946,0.399c0.08,2.08,0.16,4.161,0.24,6.241c0.854-0.354,1.707-0.707,2.561-1.061
				c-0.217-0.558-0.433-1.115-0.65-1.673c-0.914,0.119-1.828,0.239-2.742,0.358c0.221,0.832,0.443,1.665,0.664,2.497c1,0,2,0,3,0
				c-0.043-1.12-0.087-2.241-0.13-3.361c-0.932,0.252-1.863,0.505-2.795,0.757c0.843,1.937,1.686,3.874,2.529,5.812
				c0.568,1.305,2.347,0.708,2.742-0.358c0.074-0.039,0.148-0.078,0.222-0.117c0.618-0.17,1.122-0.792,1.101-1.446
				c-0.149-4.682-0.298-9.365-0.447-14.047c-0.063-1.985-2.76-1.865-3,0c-0.433,3.363-0.865,6.727-1.298,10.09c1,0,2,0,3,0
				c-0.076-9.237-0.151-18.475-0.227-27.712c-0.059-7.229,1.271-15.867-1.746-22.621c-0.604-1.353-2.903-0.681-2.795,0.757
				c0.424,5.68,0.849,11.36,1.273,17.041c0.142,1.901,3.035,1.953,3,0c-0.091-5.107-0.183-10.214-0.274-15.321
				c-0.015-0.85-0.677-1.447-1.5-1.5c-0.384-0.025-0.767-0.049-1.151-0.074c-0.762-0.049-1.566,0.729-1.5,1.5
				c0.382,4.498,0.764,8.996,1.147,13.493c0.982-0.133,1.964-0.266,2.946-0.399c-0.539-4.003-1.078-8.006-1.618-12.01
				c-0.243-1.802-2.787-1.137-2.946,0.399c-0.388,3.732,0.047,6.912,1.425,10.402c0.622,1.576,2.794,1.34,2.946-0.399
				c0.493-5.607-0.5-10.703-2.923-15.773c-0.78-1.631-3.027-0.407-2.742,1.156c0.643,3.528,1.287,7.056,1.93,10.584
				c0.349,1.913,3.187,1.08,2.893-0.798c-0.597-3.812-1.193-7.624-1.79-11.436c-0.219-1.396-2.089-1.299-2.742-0.358
				c-2.434,3.507-2.96,7.397-1.554,11.431c0.527,1.512,3.039,1.387,2.946-0.399c-0.148-2.859-0.295-5.718-0.443-8.577
				c-0.082-1.584-2.691-2.161-2.946-0.399c-0.757,5.229-0.661,10.272,0.33,15.46c0.339,1.773,2.802,1.171,2.946-0.399
				c0.357-3.877,0.713-7.753,1.07-11.63c-1,0-2,0-3,0c-0.429,6.232-0.858,12.463-1.287,18.695c1,0,2,0,3,0
				c0.078-2.989,0.156-5.978,0.234-8.968c-1,0-2,0-3,0c0.17,3.505,0.339,7.011,0.509,10.516c0.093,1.919,2.976,1.942,3,0
				c0.027-2.18,0.055-4.359,0.082-6.539c-0.932,0.252-1.863,0.505-2.795,0.757c0.188,0.431,0.375,0.862,0.563,1.292
				C173.312,121.694,175.897,120.168,175.132,118.414L175.132,118.414z"/>
		</g>
	</g>
	<g>
		<g>
			<path style="fill:#C62828;" d="M193.668,99.805c8.039,15.969-0.363,34.895-11.406,46.943c-1.303,1.421,0.813,3.548,2.121,2.121
				c12.029-13.124,20.564-33.319,11.875-50.579C195.39,96.566,192.801,98.083,193.668,99.805L193.668,99.805z"/>
		</g>
	</g>
	<g>
		<g>
			<path style="fill:#C62828;" d="M182.77,153.561c-0.344-1.448-0.689-2.897-1.033-4.345c-0.313-1.318-2.068-1.39-2.742-0.358
				c-0.105,0.16-0.209,0.32-0.314,0.48c-1.059,1.621,1.537,3.126,2.59,1.514c0.105-0.16,0.209-0.32,0.314-0.48
				c-0.914-0.119-1.828-0.239-2.742-0.358c0.344,1.448,0.689,2.897,1.033,4.345C180.324,156.236,183.217,155.441,182.77,153.561
				L182.77,153.561z"/>
		</g>
	</g>
	<g>
		<g>
			<path style="fill:#C62828;" d="M182.709,153.656c-0.099-1.64-0.199-3.281-0.298-4.921c-0.116-1.918-3.117-1.932-3,0
				c0.099,1.64,0.199,3.281,0.298,4.921C179.825,155.574,182.826,155.587,182.709,153.656L182.709,153.656z"/>
		</g>
	</g>
	<g>
		<g>
			<path style="fill:#C62828;" d="M180.199,150.356c-18.588-6.722-29.23-28.521-26.001-47.345c0.324-1.888-2.567-2.7-2.893-0.798
				c-3.525,20.548,7.848,43.713,28.096,51.036C181.22,153.906,182.004,151.008,180.199,150.356L180.199,150.356z"/>
		</g>
	</g>
	<g>
		<g>
			<path style="fill:#C62828;" d="M169.708,139.134c-1.076-0.462-2.152-0.924-3.228-1.387c-1.374-0.59-2.742,0.625-2.052,2.052
				c1.421,2.939,3.657,4.647,6.86,5.241c1.435,0.266,2.546-1.366,1.459-2.507c-1.262-1.325-2.524-2.649-3.786-3.974
				c-1.044-1.096-2.896,0.037-2.507,1.459c0.996,3.636,3.191,5.956,6.64,7.376c1.666,0.686,2.455-1.838,1.156-2.742
				c-1.999-1.391-3.998-2.782-5.997-4.173c-1.384-0.963-3.135,1.269-1.818,2.356c1.154,0.952,2.308,1.904,3.462,2.857
				c0.707-0.707,1.414-1.414,2.121-2.121c-2.616-2.13-5.232-4.26-7.848-6.391c-1.471-1.198-3.477,0.69-2.121,2.121
				c2.856,3.016,5.711,6.031,8.567,9.047c1.346,1.421,3.349-0.666,2.121-2.121c-4.897-5.808-9.794-11.616-14.691-17.424
				c-1.116-1.324-3.194,0.375-2.356,1.818c2.245,3.865,5.106,6.876,8.815,9.359c1.525,1.021,2.804-1.125,1.818-2.356
				c-2.698-3.365-5.396-6.73-8.095-10.095c-1.102-1.375-3.126,0.378-2.356,1.818c1.926,3.602,4.446,6.384,7.77,8.74
				c1.412,1.001,2.998-1.178,1.818-2.356c-5.192-5.179-8.565-11.308-10.198-18.455c-0.43-1.881-3.323-1.085-2.893,0.798
				c1.741,7.62,5.438,14.261,10.97,19.779c0.606-0.785,1.212-1.571,1.818-2.356c-2.897-2.053-5.03-4.552-6.693-7.663
				c-0.785,0.606-1.571,1.212-2.356,1.818c2.698,3.365,5.396,6.73,8.095,10.095c0.606-0.785,1.212-1.571,1.818-2.356
				c-3.268-2.188-5.765-4.885-7.739-8.283c-0.785,0.606-1.571,1.212-2.356,1.818c4.897,5.808,9.794,11.616,14.691,17.424
				c0.707-0.707,1.414-1.414,2.121-2.121c-2.856-3.016-5.711-6.031-8.567-9.047c-0.707,0.707-1.414,1.414-2.121,2.121
				c2.616,2.13,5.232,4.26,7.848,6.391c1.482,1.207,3.616-0.888,2.121-2.121c-1.154-0.952-2.308-1.904-3.462-2.857
				c-0.606,0.785-1.212,1.571-1.818,2.356c1.999,1.391,3.998,2.782,5.997,4.173c0.385-0.914,0.771-1.828,1.156-2.742
				c-2.528-1.041-3.85-2.745-4.545-5.28c-0.836,0.486-1.671,0.973-2.507,1.459c1.262,1.325,2.524,2.649,3.786,3.974
				c0.486-0.836,0.973-1.671,1.459-2.507c-2.107-0.391-4.135-1.933-5.068-3.863c-0.684,0.684-1.368,1.368-2.052,2.052
				c1.076,0.462,2.152,0.924,3.228,1.387C169.948,142.478,171.478,139.895,169.708,139.134L169.708,139.134z"/>
		</g>
	</g>
	<g>
		<g>
			<path style="fill:#C62828;" d="M180.511,143.991c-0.127,1.164-0.254,2.328-0.381,3.492c-0.2,1.836,2.362,1.807,2.946,0.399
				c0.55-1.324,1.099-2.648,1.649-3.972c0.66-1.591-1.917-2.598-2.742-1.156c-0.436,0.762-0.872,1.524-1.307,2.286
				c-0.972,1.7,1.501,3.08,2.59,1.514c1.252-1.799,2.909-3.244,4.163-5.045c0.962-1.382-1.279-3.145-2.356-1.818
				c-1.218,1.502-2.703,2.705-3.921,4.207c-1.058,1.304,0.232,3.152,1.818,2.356c2.726-1.368,5.142-2.879,6.794-5.494
				c0.921-1.458-1.155-3-2.356-1.818c-1.614,1.589-3.517,2.821-5.132,4.411c-1.385,1.363,0.697,3.413,2.121,2.121
				c1.248-1.131,2.689-1.976,3.935-3.106c-0.785-0.606-1.571-1.212-2.356-1.818c-1.619,2.212-3.693,4.014-5.314,6.228
				c0.863,0.505,1.727,1.009,2.59,1.514c2.175-3.143,4.881-5.852,7.057-8.996c1.011-1.461-1.146-2.906-2.356-1.818
				c-1.436,1.291-3.13,2.228-4.567,3.52c0.707,0.707,1.414,1.414,2.121,2.121c1.841-2.315,4.11-4.219,5.951-6.534
				c-0.785-0.606-1.571-1.212-2.356-1.818c-0.864,1.562-1.729,3.124-2.593,4.685c0.863,0.505,1.727,1.009,2.59,1.514
				c0.96-2.018,1.92-4.036,2.88-6.054c-0.914-0.385-1.828-0.771-2.742-1.156c-0.33,1.199-0.659,2.398-0.989,3.597
				c-0.513,1.865,2.358,2.652,2.893,0.798c2.187-7.591,4.374-15.181,6.561-22.772c-0.964-0.266-1.929-0.532-2.893-0.798
				c-0.959,3.998-1.918,7.996-2.878,11.993c0.964,0.266,1.929,0.532,2.893,0.798c0.682-4.076,2.196-7.916,2.878-11.993
				c0.316-1.889-2.575-2.7-2.893-0.798c-0.682,4.076-2.196,7.916-2.878,11.993c-0.312,1.865,2.434,2.709,2.893,0.798
				c0.959-3.998,1.918-7.996,2.878-11.993c0.45-1.876-2.357-2.657-2.893-0.798c-2.187,7.591-4.374,15.181-6.561,22.772
				c0.964,0.266,1.929,0.532,2.893,0.798c0.33-1.199,0.659-2.398,0.989-3.597c0.437-1.591-1.993-2.729-2.742-1.156
				c-0.96,2.018-1.92,4.036-2.88,6.054c-0.818,1.72,1.643,3.227,2.59,1.514c0.864-1.562,1.729-3.124,2.593-4.685
				c0.788-1.424-1.257-3.2-2.356-1.818c-1.841,2.315-4.109,4.219-5.951,6.534c-1.182,1.487,0.654,3.441,2.121,2.121
				c1.436-1.291,3.13-2.228,4.567-3.52c-0.785-0.606-1.571-1.212-2.356-1.818c-2.175,3.143-4.881,5.852-7.057,8.996
				c-1.11,1.604,1.468,3.047,2.59,1.514c1.619-2.212,3.693-4.014,5.314-6.228c1.048-1.432-1.154-2.907-2.356-1.818
				c-1.248,1.131-2.689,1.976-3.935,3.106c0.707,0.707,1.414,1.414,2.121,2.121c1.614-1.589,3.517-2.821,5.132-4.411
				c-0.785-0.606-1.571-1.212-2.356-1.818c-1.369,2.167-3.504,3.307-5.718,4.417c0.606,0.785,1.212,1.571,1.818,2.356
				c1.218-1.502,2.703-2.705,3.921-4.207c-0.785-0.606-1.571-1.212-2.356-1.818c-1.252,1.799-2.909,3.244-4.163,5.045
				c0.863,0.505,1.727,1.009,2.59,1.514c0.436-0.762,0.872-1.524,1.307-2.286c-0.914-0.385-1.828-0.771-2.742-1.156
				c-0.55,1.324-1.099,2.648-1.649,3.972c0.982,0.133,1.964,0.266,2.946,0.399c0.127-1.164,0.254-2.328,0.381-3.492
				C183.72,142.075,180.718,142.09,180.511,143.991L180.511,143.991z"/>
		</g>
	</g>
	<g>
		<g>
			<path style="fill:#C62828;" d="M192.983,126.613c-0.389,2.404-1.241,4.551-2.618,6.56c0.932,0.252,1.863,0.505,2.795,0.757
				c0.006-0.264,0.012-0.529,0.018-0.793c0.044-1.931-2.956-1.931-3,0c-0.006,0.264-0.012,0.529-0.018,0.793
				c-0.036,1.577,1.997,1.921,2.795,0.757c1.501-2.189,2.496-4.656,2.921-7.277C196.182,125.522,193.292,124.709,192.983,126.613
				L192.983,126.613z"/>
		</g>
	</g>
	<g>
		<g>
			<path style="fill:#C62828;" d="M172.733,91.214c-0.895,3.371-5.014,3.799-6.662,0.77c-0.923-1.696-3.514-0.184-2.59,1.514
				c2.885,5.302,10.605,4.316,12.146-1.487C176.122,90.144,173.229,89.347,172.733,91.214L172.733,91.214z"/>
		</g>
	</g>
	<g>
		<g>
			<path style="fill:#C62828;" d="M173.097,92.283c1.771,5.897,9.981,5.882,11.673-0.065c0.529-1.86-2.365-2.654-2.893-0.798
				c-0.872,3.066-4.964,3.138-5.887,0.065C175.435,89.641,172.539,90.427,173.097,92.283L173.097,92.283z"/>
		</g>
	</g>
	<g>
		<g>
			<path style="fill:#C62828;" d="M143.203,98.017c-5.946,16.364-2.221,34.103,9.696,46.758c1.326,1.409,3.445-0.716,2.121-2.121
				c-11.229-11.925-14.51-28.467-8.924-43.839C146.757,96.997,143.859,96.213,143.203,98.017L143.203,98.017z"/>
		</g>
	</g>
	<g>
		<g>
			<path style="fill:#C62828;" d="M204.08,99.146c9.743,13.532,2.443,32.888-7.117,44.469c-1.22,1.478,0.891,3.612,2.121,2.121
				c10.366-12.558,18.157-33.423,7.586-48.105C205.552,96.08,202.949,97.576,204.08,99.146L204.08,99.146z"/>
		</g>
	</g>
	<g>
		<path style="fill:#C62828;" d="M173.201,146.369c-4.486,4.57-9.903,8.223-15.821,10.667c6.099-0.684,11.993-3.113,16.803-6.925"/>
		<g>
			<path style="fill:#C62828;" d="M172.14,145.308c-4.504,4.481-9.679,7.939-15.518,10.433c-1.335,0.57-0.689,2.982,0.757,2.795
				c6.463-0.835,12.374-3.159,17.56-7.129c1.512-1.158,0.02-3.765-1.514-2.59c-4.734,3.624-10.117,5.954-16.046,6.72
				c0.252,0.932,0.505,1.863,0.757,2.795c6.065-2.59,11.452-6.253,16.125-10.902C175.632,146.066,173.511,143.944,172.14,145.308
				L172.14,145.308z"/>
		</g>
	</g>
	<g>
		<path style="fill:#C62828;" d="M180.749,146.369c4.486,4.57,9.903,8.223,15.821,10.667c-6.099-0.684-11.993-3.113-16.803-6.925"/>
		<g>
			<path style="fill:#C62828;" d="M179.688,147.429c4.673,4.649,10.06,8.311,16.125,10.902c0.252-0.932,0.505-1.863,0.757-2.795
				c-5.929-0.766-11.312-3.096-16.046-6.72c-1.532-1.173-3.028,1.431-1.514,2.59c5.186,3.97,11.098,6.295,17.56,7.129
				c1.445,0.187,2.093-2.225,0.757-2.795c-5.839-2.494-11.014-5.952-15.518-10.433C180.439,143.945,178.317,146.065,179.688,147.429
				L179.688,147.429z"/>
		</g>
	</g>
	<g>
		<g>
			<g>
				<path style="fill:#C62828;" d="M195.821,127.705c0.219-2.187,0.679-4.261,1.346-6.349c-0.914,0.119-1.828,0.239-2.742,0.358
					c-0.133,0.68-0.266,1.361-0.398,2.041c0.914,0.385,1.828,0.771,2.742,1.156c0.613-4.478,1.227-8.955,1.84-13.433
					c-0.982-0.133-1.964-0.266-2.946-0.399c-0.116,1.439-0.394,2.516-0.883,3.838c-0.672,1.813,2.227,2.595,2.893,0.798
					c0.569-1.537,0.86-3.014,0.99-4.635c0.134-1.664-2.716-2.079-2.946-0.399c-0.613,4.478-1.227,8.955-1.84,13.433
					c-0.234,1.708,1.677,2.548,2.742,1.156c1.221-1.597,1.21-3.297,0.398-5.069c-0.572-1.248-2.382-0.766-2.742,0.358
					c-0.752,2.355-1.207,4.692-1.453,7.147C192.629,129.624,195.631,129.611,195.821,127.705L195.821,127.705z"/>
			</g>
		</g>
	</g>
	<g>
		<g>
			<path style="fill:#C62828;" d="M190.264,129.126c-1.214,3.247-2.972,6.215-5.23,8.846c-1.243,1.449,0.735,3.502,2.121,2.121
				c0.331-0.33,0.662-0.659,0.993-0.989c1.37-1.364-0.751-3.486-2.121-2.121c-0.331,0.33-0.662,0.659-0.993,0.989
				c0.707,0.707,1.414,1.414,2.121,2.121c2.609-3.042,4.598-6.417,6.001-10.17C193.834,128.113,190.936,127.331,190.264,129.126
				L190.264,129.126z"/>
		</g>
	</g>
</g>
</svg>
