<?xml version="1.0" encoding="iso-8859-1"?>
<!-- Generator: Adobe Illustrator 18.1.1, SVG Export Plug-In . SVG Version: 6.00 Build 0)  -->
<svg version="1.1" id="Layer_1" xmlns="http://www.w3.org/2000/svg" xmlns:xlink="http://www.w3.org/1999/xlink" x="0px" y="0px"
	 viewBox="0 0 350 250" style="enable-background:new 0 0 350 250;" xml:space="preserve">
<rect x="0.003" y="0" style="fill:#C62828;" width="349.997" height="83.333"/>
<rect x="0.003" y="83.333" style="fill:#F5F5F5;" width="349.997" height="83.333"/>
<rect x="0.003" y="166.667" style="fill:#212121;" width="349.997" height="83.333"/>
<polygon style="fill:#4DAF4E;" points="95.5,100.8 102.318,114.615 117.565,116.831 106.532,127.585 109.137,142.769 95.5,135.6 
	81.863,142.769 84.468,127.585 73.435,116.831 88.682,114.615 "/>
<polygon style="fill:#4DAF4E;" points="175.5,100.8 182.318,114.615 197.565,116.831 186.532,127.585 189.137,142.769 175.5,135.6 
	161.863,142.769 164.468,127.585 153.435,116.831 168.682,114.615 "/>
<polygon style="fill:#4DAF4E;" points="255.5,100.8 262.318,114.615 277.565,116.831 266.532,127.585 269.137,142.769 255.5,135.6 
	241.863,142.769 244.468,127.585 233.435,116.831 248.682,114.615 "/>
</svg>
