<?xml version="1.0" encoding="iso-8859-1"?>
<!-- Generator: Adobe Illustrator 18.1.1, SVG Export Plug-In . SVG Version: 6.00 Build 0)  -->
<svg version="1.1" xmlns="http://www.w3.org/2000/svg" xmlns:xlink="http://www.w3.org/1999/xlink" x="0px" y="0px"
	 viewBox="0 0 350 250" style="enable-background:new 0 0 350 250;" xml:space="preserve">
<g id="Layer_2">
	<rect style="fill:#212121;" width="350" height="70"/>
	<rect y="83.333" style="fill:#C62828;" width="350" height="83.333"/>
	<rect y="180" style="fill:#4DAF4E;" width="350" height="70"/>
	<rect y="70" style="fill:#F5F5F5;" width="350" height="13.333"/>
	<rect y="166.667" style="fill:#F5F5F5;" width="350" height="13.333"/>
</g>
<g id="Layer_3">
	
		<rect x="172.125" y="20.301" transform="matrix(0.8704 0.4923 -0.4923 0.8704 84.2093 -69.954)" style="fill:#F5F5F5;" width="5.75" height="209.398"/>
	
		<rect x="172.125" y="20.301" transform="matrix(-0.8704 0.4923 -0.4923 -0.8704 388.8615 147.6548)" style="fill:#F5F5F5;" width="5.75" height="209.398"/>
	<path style="fill:#F5F5F5;" d="M140.025,51.25c0,4.834-3.775,8.25-8.773,6.255c-4.49-1.792-17.401-29.147-13.503-32.005
		C121.5,22.75,140.025,46.416,140.025,51.25z"/>
	<path style="fill:#F5F5F5;" d="M210.026,53.25c0,4.834,3.775,8.25,8.773,6.255c4.49-1.792,17.401-29.147,13.503-32.005
		C228.552,24.75,210.026,48.416,210.026,53.25z"/>
	<path style="fill:#F5F5F5;" d="M210.026,198.113c0-4.834,3.775-8.25,8.773-6.255c4.49,1.792,17.401,29.147,13.503,32.005
		C228.552,226.613,210.026,202.947,210.026,198.113z"/>
	<path style="fill:#F5F5F5;" d="M140.025,198.113c0-4.834-3.775-8.25-8.773-6.255c-4.49,1.792-17.401,29.147-13.503,32.005
		C121.5,226.613,140.025,202.947,140.025,198.113z"/>
</g>
<g id="Layer_1">
	<ellipse style="fill:#C62828;" cx="175" cy="124.75" rx="46.5" ry="87.25"/>
	<g>
		<path style="fill:#212121;" d="M214.467,83.333c-12.382,25.444-9.964,56.348,0,82.833"/>
		<g>
			<path style="fill:#212121;" d="M213.172,82.576c-12.545,26.522-10.1,57.048-0.151,83.988c0.663,1.796,3.564,1.019,2.893-0.798
				c-9.649-26.128-12.345-55.897-0.151-81.677C216.584,82.355,213.998,80.83,213.172,82.576L213.172,82.576z"/>
		</g>
	</g>
	<g>
		<path style="fill:#212121;" d="M214.467,83.333c9.283,31.667,9.283,54.667,0,82.833"/>
		<g>
			<path style="fill:#212121;" d="M213.021,83.732c3.984,13.793,6.901,27.917,6.908,42.33c0.007,13.583-2.735,26.829-6.908,39.705
				c-0.597,1.841,2.299,2.629,2.893,0.798c4.253-13.121,7.024-26.665,7.016-40.502c-0.009-14.671-2.96-29.086-7.016-43.128
				C215.379,81.083,212.483,81.871,213.021,83.732L213.021,83.732z"/>
		</g>
	</g>
	<g>
		<g>
			<path style="fill:#212121;" d="M135.025,85.333c12.382,25.444,9.964,56.348,0,82.833"/>
			<g>
				<path style="fill:#212121;" d="M133.73,86.09c12.194,25.779,9.497,55.549-0.151,81.677c-0.67,1.814,2.229,2.596,2.893,0.798
					c9.949-26.941,12.394-57.467-0.151-83.988C135.496,82.832,132.908,84.353,133.73,86.09L133.73,86.09z"/>
			</g>
		</g>
		<g>
			<path style="fill:#212121;" d="M135.025,85.333c-9.283,31.667-9.283,54.667,0,82.833"/>
			<g>
				<path style="fill:#212121;" d="M133.579,84.935c-4.053,14.033-7.026,28.464-7.016,43.128c0.01,13.845,2.759,27.372,7.016,40.502
					c0.593,1.829,3.491,1.046,2.893-0.798c-4.176-12.882-6.9-26.117-6.908-39.705c-0.009-14.409,2.926-28.543,6.908-42.33
					C137.008,83.874,134.114,83.08,133.579,84.935L133.579,84.935z"/>
			</g>
		</g>
	</g>
	<ellipse style="fill:#F5F5F5;stroke:#F5F5F5;stroke-miterlimit:10;" cx="175" cy="125" rx="6.875" ry="8.5"/>
	<g>
		<path style="fill:#F5F5F5;" d="M176,113.755c0,1.938,5.937-16.59,5.937-37.055S176.049,37.708,176,39.645
			C174.986,79.848,176,83.319,176,113.755z"/>
		<path style="fill:#F5F5F5;" d="M176,209.755c0,1.938,5.937-16.59,5.937-37.055s-5.888-38.992-5.937-37.055
			C174.986,175.848,176,179.319,176,209.755z"/>
	</g>
	<path style="fill:#F5F5F5;" d="M173.486,113.755c0,1.938-5.937-16.59-5.937-37.055s5.888-38.992,5.937-37.055
		C174.5,79.848,173.486,83.319,173.486,113.755z"/>
	<path style="fill:#F5F5F5;" d="M173.486,209.755c0,1.938-5.937-16.59-5.937-37.055s5.888-38.992,5.937-37.055
		C174.5,175.848,173.486,179.319,173.486,209.755z"/>
</g>
</svg>
