<?xml version="1.0" encoding="iso-8859-1"?>
<!-- Generator: Adobe Illustrator 18.1.1, SVG Export Plug-In . SVG Version: 6.00 Build 0)  -->
<svg version="1.1" xmlns="http://www.w3.org/2000/svg" xmlns:xlink="http://www.w3.org/1999/xlink" x="0px" y="0px"
	 viewBox="0 0 350 250" style="enable-background:new 0 0 350 250;" xml:space="preserve">
<g id="Layer_1">
	<rect style="fill:#C62828;" width="350" height="250"/>
</g>
<g id="Layer_2">
	<rect x="116.667" style="fill:#F5F5F5;" width="116.667" height="250"/>
	<rect x="0" style="fill:#317E3D;" width="116.667" height="250"/>
</g>
<g id="Layer_3">
	<g>
		<g>
			<g>
				<path style="fill:#E45325;" d="M169.142,159.981c0.235,4.43,0.196,8.826,0.213,13.256c0.005,1.175-0.248,0.7,0.001,0.645
					c0.78-0.172-1.303-0.738-1.886-0.798c-2.651-0.273-5.339-0.022-7.996,0.024c-0.676,0.012-1.25,0.46-1.446,1.101
					c-1.861,6.085,10.751,2.795,12.932,2.497c-0.385-0.914-0.771-1.828-1.156-2.742c-3.306,1.64-6.051,4.694-8.905,6.978
					c-1.317,1.053,0.439,3.359,1.818,2.356c3.024-2.199,6.121-4.481,8.905-6.978c1.441-1.292-0.687-3.407-2.121-2.121
					c-2.6,2.331-5.475,4.455-8.298,6.508c0.606,0.785,1.212,1.571,1.818,2.356c2.648-2.118,5.236-4.989,8.298-6.508
					c1.665-0.826,0.376-2.951-1.156-2.742c-1.164,0.159-9.103,0.74-9.242,1.194c-0.482,0.367-0.964,0.734-1.446,1.101
					c2.128-0.037,4.283-0.236,6.41-0.128c1.314,0.067,3.489,0.996,4.677,0.78c0.89-0.162,1.203-0.506,1.566-1.319
					c0.561-1.255,0.281-3.556,0.295-4.857c0.037-3.536-0.093-7.072-0.28-10.602C172.04,158.06,169.039,158.048,169.142,159.981
					L169.142,159.981z"/>
			</g>
		</g>
		<g>
			<g>
				<path style="fill:#E45325;" d="M181.224,162.26c0.23,3.887,0.412,7.964-0.049,11.849c-0.576,4.859-5.941,7.422-8.707,11.432
					c-0.94,1.362,0.829,2.609,2.052,2.052c2.957-1.345,5.161-3.234,7.67-5.259c-0.854-0.354-1.707-0.707-2.561-1.061
					c-0.206,3.293-0.984,6.482-1.149,9.787c-0.039,0.786,0.719,1.534,1.5,1.5c7.559-0.325,3.7-12.133,4.172-16.715
					c0.198-1.919-2.804-1.905-3,0c-0.196,1.901,1.779,13.589-1.172,13.715c0.5,0.5,1,1,1.5,1.5c0.165-3.301,0.943-6.492,1.149-9.787
					c0.089-1.428-1.641-1.803-2.561-1.061c-2.279,1.839-4.386,3.573-7.063,4.79c0.684,0.684,1.368,1.368,2.052,2.052
					c2.922-4.237,8.654-5.829,9.094-11.211c0.366-4.483,0.336-9.101,0.071-13.584C184.11,160.342,181.11,160.329,181.224,162.26
					L181.224,162.26z"/>
			</g>
		</g>
		<g>
			<path style="fill:#ED6D23;" d="M200.511,141.214c6.639-3.778,10.877-5.321,17.285-9.477c-2.986,5.525-2.069,4.349-8.409,9.836
				c6.118-0.569,4.602,0.229,10.289-0.65c0.565-0.087,1.229-0.138,1.622,0.277c0.805,0.849-0.498,2.062-1.594,2.47
				c-6.49,2.414-13.282,4.014-20.166,4.75"/>
			<g>
				<path style="fill:#ED6D23;" d="M201.268,142.509c5.742-3.216,11.722-5.943,17.285-9.477c-0.684-0.684-1.368-1.368-2.052-2.052
					c-2.232,4.149-4.581,6.435-8.174,9.532c-0.953,0.822-0.213,2.666,1.061,2.561c1.878-0.156,3.726-0.171,5.605-0.205
					c0.593-0.011,1.181-0.03,1.772-0.076c0.702-0.054,2.266-0.63,1.483-0.124c-2.056,1.328-5.721,1.786-8.1,2.373
					c-3.497,0.862-7.034,1.462-10.609,1.879c-1.895,0.221-1.917,3.224,0,3c5.17-0.603,10.266-1.552,15.261-3.036
					c2.206-0.655,7.677-1.51,8.191-4.599c0.37-2.22-1.592-2.807-3.314-2.863c-3.206-0.103-7.07,0.384-10.289,0.65
					c0.354,0.854,0.707,1.707,1.061,2.561c3.773-3.253,6.293-5.771,8.643-10.14c0.681-1.266-0.733-2.891-2.052-2.052
					c-5.563,3.534-11.543,6.261-17.285,9.477C198.07,140.863,199.58,143.455,201.268,142.509L201.268,142.509z"/>
			</g>
		</g>
		<g>
			<path style="fill:#FEC111;" d="M143.075,77.095c-4.319,0.573-8.542,1.86-12.446,3.794c-0.64,0.317-1.295,0.671-1.717,1.247
				c-0.914,1.247-0.369,3.119,0.773,4.161c1.142,1.042,2.704,1.461,4.201,1.846c2.599,0.668,5.197,1.336,7.796,2.004"/>
			<g>
				<path style="fill:#FEC111;" d="M142.676,75.648c-3.67,0.534-7.209,1.493-10.623,2.948c-2.216,0.945-4.88,1.971-5.075,4.742
					c-0.452,6.416,10.054,7.163,14.303,8.255c1.871,0.481,2.669-2.412,0.798-2.893c-1.949-0.501-3.898-1.002-5.847-1.503
					c-0.945-0.243-1.922-0.439-2.851-0.741c-1.46-0.474-4.783-1.894-2.314-4.104c1.358-1.216,4.284-1.89,6.028-2.422
					c2.092-0.638,4.215-1.075,6.378-1.39C145.377,78.264,144.568,75.373,142.676,75.648L142.676,75.648z"/>
			</g>
		</g>
		<g>
			<path style="fill:#F78C1E;" d="M158.972,105.94c-1.214-1.488-5.584,4.022-6.421,5.75c-5.072,10.48-6.723,28.83,1.829,36.73
				c10.847,10.02,8.411,8.116,17.045,11.246c4.719,1.711,7.433,2.011,13.705,1.775c4.433-0.167,7.258-2.491,11.1-6.498
				c3.07-3.203,3.497-8.148,4.336-12.504c0.608-3.156-9.482-33.999-31.463-39.116"/>
			<g>
				<path style="fill:#F78C1E;" d="M159.729,104.645c-3.325-1.977-7.162,3.893-8.473,6.288c-3.12,5.703-4.322,12.988-4.396,19.422
					c-0.07,6.045,1.027,12.645,4.93,17.471c3.108,3.842,7.835,8.467,12.368,10.757c11.025,5.57,25.992,7.525,34.062-3.708
					c6.043-8.412,3.606-17.293-0.303-25.717c-5.63-12.132-14.936-23.838-28.414-27.281c-1.871-0.478-2.67,2.414-0.798,2.893
					c12.588,3.216,21.105,14.199,26.421,25.47c1.536,3.258,3.687,7.469,3.907,11.165c0.459,7.705-4.82,16.847-12.728,18.351
					c-12.102,2.302-23.961-4.443-31.659-13.193c-5.232-5.948-5.414-15.063-4.26-22.49c0.521-3.349,1.367-6.729,2.676-9.862
					c0.373-0.893,4.086-7.61,5.154-6.975C159.878,108.224,161.389,105.632,159.729,104.645L159.729,104.645z"/>
			</g>
		</g>
		<g>
			<path style="fill:#FAA629;" d="M161.045,116.211c-1.738,7.622,0.636,16.055,6.095,21.651c1.956,2.005,4.25,3.642,6.531,5.268
				c1.603,1.142,3.206,2.285,4.809,3.427c2.176,1.551,4.545,3.167,7.217,3.162c1.896-0.004,3.771-0.892,4.974-2.357
				c0.234-0.285,0.454-0.628,0.406-0.994c-0.028-0.213-13.552-14.277-17.227-22.912c-0.85-1.996-1.438-4.118-2.551-5.98
				c-1.113-1.862-2.91-3.493-5.072-3.681S160.838,114.051,161.045,116.211"/>
			<g>
				<path style="fill:#FAA629;" d="M159.599,115.812c-2.394,12.388,3.586,21.614,13.315,28.613
					c4.379,3.15,10.042,8.673,15.929,6.109c2.265-0.986,4.411-2.958,3.183-5.371c-1.322-2.596-4.495-5.018-6.371-7.244
					c-3.516-4.172-7.154-8.541-9.649-13.427c-2.138-4.188-3.029-10.127-8.128-11.868
					C164.924,111.617,160.212,112.239,159.599,115.812c-0.324,1.888,2.566,2.7,2.893,0.798c1.627-1.572,3.419-1.798,5.377-0.679
					c1.623,1.287,2.742,2.915,3.359,4.884c0.61,1.413,1.06,2.888,1.727,4.279c1.155,2.409,2.651,4.65,4.199,6.82
					c3.103,4.349,6.566,8.441,10.114,12.43c1.868,2.1,5.213,4.168-1.571,3.875c-4.472-0.193-9.284-4.889-12.636-7.364
					c-7.944-5.864-12.519-14.158-10.569-24.245C162.856,114.724,159.965,113.916,159.599,115.812L159.599,115.812z"/>
			</g>
		</g>
		<g>
			<path style="fill:#F47C20;" d="M150.203,64.559c-6.073,3.131-10.015,17.58-7.959,25.181
				c3.386,12.515,13.105,16.187,18.957,18.003c5.852,1.816,14.57,0.963,19.452-2.739c3.06-2.321,5.977-2.749,7.743-14.858
				c0.957-6.565,0.191-16.046-4.271-20.956c-5.68-6.25-11.452-10.196-18.087-10.25C161.88,58.906,152.98,62.428,150.203,64.559"/>
			<g>
				<path style="fill:#F47C20;" d="M149.445,63.264c-8.172,4.907-10.886,19.073-8.42,27.634
					c2.929,10.172,12.039,17.044,22.254,18.875c8.034,1.439,19.308-1.057,23.644-8.774c5.264-9.369,5.05-25.402-2.348-33.522
					c-4.71-5.17-11.202-10.107-18.538-10.038C160.54,57.492,153.912,60.14,149.445,63.264c-1.571,1.098-0.073,3.7,1.514,2.59
					c4.068-2.845,10.057-5.344,15.078-5.415c7.301-0.103,15.749,6.342,18.925,12.702c4.299,8.611,3.779,24.606-4.826,30.391
					c-9.334,6.274-23.183,3.886-30.889-4.136c-4.566-4.753-6.605-11.103-5.868-17.605c0.617-5.438,2.561-12.924,7.58-15.938
					C152.613,64.862,151.106,62.267,149.445,63.264L149.445,63.264z"/>
			</g>
		</g>
		<circle style="fill:#DC3126;stroke:#FFD740;stroke-miterlimit:10;" cx="152.63" cy="79.428" r="4.333"/>
	</g>
	<g>
		<path style="fill:#568B3E;" d="M148.356,197c0.262-1.078-4.594-7.877-12.731-11.125C140.511,193.483,143.453,195.338,148.356,197z
			"/>
		<g>
			<path style="fill:#568B3E;" d="M149.856,197c0.165-2.005-2.224-4.317-3.455-5.601c-2.93-3.056-6.484-5.344-10.377-6.97
				c-1.222-0.51-2.362,1.177-1.694,2.203c3.578,5.495,7.344,9.64,13.628,11.814c1.828,0.633,2.614-2.264,0.798-2.893
				c-5.498-1.902-8.711-5.637-11.835-10.436c-0.565,0.734-1.129,1.469-1.694,2.203c3.223,1.346,6.169,3.311,8.641,5.779
				c0.754,0.752,3.068,2.932,2.989,3.9C146.698,198.924,149.699,198.914,149.856,197z"/>
		</g>
	</g>
	<g>
		<path style="fill:#568B3E;" d="M154.71,200.177c4.04,4.456,12.412,5.299,17.415,5.073C172.125,205.25,162.125,198,154.71,200.177"
			/>
		<g>
			<path style="fill:#568B3E;" d="M153.649,201.238c4.702,4.753,12.08,5.727,18.476,5.512c1.562-0.053,1.942-1.947,0.757-2.795
				c-5.165-3.695-12.163-6.791-18.571-5.224c-1.874,0.458-1.081,3.352,0.798,2.893c5.583-1.366,11.79,1.723,16.26,4.921
				c0.252-0.932,0.505-1.863,0.757-2.795c-5.584,0.188-12.225-0.46-16.355-4.633C154.41,197.742,152.289,199.864,153.649,201.238
				L153.649,201.238z"/>
		</g>
	</g>
	<g>
		<path style="fill:#568B3E;" d="M179.578,204.25c3.172-3.831,15.937-8.125,15.971-6.414
			C195.578,199.289,184.375,205.21,179.578,204.25"/>
		<g>
			<path style="fill:#568B3E;" d="M180.639,205.311c1.853-2.057,4.626-3.319,7.14-4.367c1.284-0.535,2.601-1.008,3.937-1.394
				c0.491-0.142,2.743-0.306,2.97-0.601c-0.169-0.538-0.339-1.077-0.508-1.615c-0.165,0.175-0.341,0.338-0.529,0.488
				c-0.429,0.105-1.017,0.698-1.387,0.927c-1.164,0.718-2.399,1.342-3.645,1.904c-2.512,1.132-5.817,2.565-8.639,2.151
				c-1.889-0.277-2.704,2.613-0.798,2.893c4.102,0.602,8.326-1.157,11.947-2.924c1.623-0.792,6.663-2.867,5.829-5.478
				c-0.855-2.677-5.665-0.785-7.291-0.244c-3.87,1.289-8.355,3.041-11.147,6.139C177.228,204.62,179.343,206.749,180.639,205.311
				L180.639,205.311z"/>
		</g>
	</g>
	<g>
		<path style="fill:#568B3E;" d="M202.25,194.5c-0.069-2.42,11.057-9.656,11.625-8.586
			C214.701,187.472,205.463,193.787,202.25,194.5"/>
		<g>
			<path style="fill:#568B3E;" d="M203.75,194.5c0.089-1.2,3.321-3.226,4.238-3.887c1.009-0.727,2.048-1.417,3.119-2.049
				c0.347-0.205,2.35-0.935,2.473-1.232c0.073-0.177-0.961-1.254-1.251-1.198c-0.189,0.036-0.72,0.805-0.879,0.958
				c-0.939,0.905-1.99,1.692-3.059,2.436c-1.968,1.369-4.187,2.923-6.541,3.524c-1.869,0.478-1.077,3.372,0.798,2.893
				c3.417-0.873,6.688-3.257,9.401-5.421c1.192-0.951,5.661-4.985,2.123-6.136c-2.251-0.732-5.874,2.334-7.502,3.494
				c-2.105,1.499-5.707,3.732-5.921,6.618C200.607,196.426,203.608,196.417,203.75,194.5L203.75,194.5z"/>
		</g>
	</g>
	<path style="fill:none;stroke:#317E3D;stroke-miterlimit:10;" d="M236.5,185.875"/>
	<path style="fill:none;stroke:#317E3D;stroke-miterlimit:10;" d="M133.875,183.5"/>
</g>
</svg>
