<?xml version="1.0" encoding="iso-8859-1"?>
<!-- Generator: Adobe Illustrator 18.1.1, SVG Export Plug-In . SVG Version: 6.00 Build 0)  -->
<svg version="1.1" id="Layer_1" xmlns="http://www.w3.org/2000/svg" xmlns:xlink="http://www.w3.org/1999/xlink" x="0px" y="0px"
	 viewBox="0 0 350 250" style="enable-background:new 0 0 350 250;" xml:space="preserve">
<g id="Layer_1_1_">
	<rect style="fill:#293990;" width="350" height="250"/>
</g>
<g id="Layer_3">
	<polygon style="fill:#F5F5F5;" points="-0.001,126 16.894,126 176.4,15.896 176.399,0 159.504,0 -0.001,110.104 	"/>
	<polygon style="fill:#F5F5F5;" points="176.4,126 159.505,126 -0.001,15.896 -0.001,0 16.894,0 176.4,110.104 	"/>
</g>
<g id="Layer_4">
	<polygon style="fill:#C62828;" points="176.399,0 176.399,3.095 82.482,68.04 77.111,60.274 164.273,0 	"/>
	<polygon style="fill:#C62828;" points="85.618,75.806 13.033,126 -0.001,126 -0.001,123.533 80.248,68.04 	"/>
	<polygon style="fill:#C62828;" points="0,12.25 85.349,71.27 90.719,63.504 -0.001,0.769 	"/>
	<polygon style="fill:#C62828;" points="86.183,62.198 176.398,124.583 176.401,113.105 91.554,54.432 	"/>
</g>
<g id="Layer_2">
	<rect x="73.583" style="fill:#F5F5F5;" width="29.232" height="126"/>
	<rect x="-0.001" y="48.384" style="fill:#F5F5F5;" width="176.4" height="29.232"/>
	<rect x="-0.001" y="52.92" style="fill:#C62828;" width="176.4" height="20.16"/>
	<rect x="78.119" style="fill:#C62828;" width="20.16" height="126"/>
</g>
<g id="Layer_5">
	<polygon style="fill:#C62828;stroke:#F5F5F5;stroke-width:2;stroke-miterlimit:10;" points="234,86.272 237.741,93.851 
		246.105,95.067 240.052,100.967 241.481,109.297 234,105.364 226.519,109.297 227.948,100.967 221.895,95.067 230.259,93.851 	"/>
	<polygon style="fill:#C62828;stroke:#F5F5F5;stroke-width:2;stroke-miterlimit:10;" points="270,41.272 273.741,48.851 
		282.105,50.067 276.052,55.967 277.481,64.297 270,60.364 262.519,64.297 263.948,55.967 257.895,50.067 266.259,48.851 	"/>
	<polygon style="fill:#C62828;stroke:#F5F5F5;stroke-width:2;stroke-miterlimit:10;" points="307,78 309.645,83.359 315.56,84.219 
		311.28,88.391 312.29,94.281 307,91.5 301.71,94.281 302.72,88.391 298.44,84.219 304.355,83.359 	"/>
	<polygon style="fill:#C62828;stroke:#F5F5F5;stroke-width:2;stroke-miterlimit:10;" points="267,194.272 270.741,201.851 
		279.105,203.067 273.052,208.967 274.481,217.297 267,213.364 259.519,217.297 260.948,208.967 254.895,203.067 263.259,201.851 	
		"/>
</g>
</svg>
