<?xml version="1.0" encoding="iso-8859-1"?>
<!-- Generator: Adobe Illustrator 18.1.1, SVG Export Plug-In . SVG Version: 6.00 Build 0)  -->
<svg version="1.1" xmlns="http://www.w3.org/2000/svg" xmlns:xlink="http://www.w3.org/1999/xlink" x="0px" y="0px"
	 viewBox="0 0 350 250" style="enable-background:new 0 0 350 250;" xml:space="preserve">
<g id="Layer_1">
	<rect x="-0.332" style="fill:#C62828;" width="116.667" height="250"/>
	<rect x="233.333" style="fill:#C62828;" width="116.667" height="250"/>
	<rect x="116.667" style="fill:#F5F5F5;" width="116.667" height="250"/>
</g>
<g id="Layer_3">
	<g>
		<g>
			<path style="fill:#488FCC;" d="M130.8,95.167c0.45,8.157,2.077,16.133,4.634,23.888c3.344-0.922,6.688-1.844,10.033-2.766
				c-1.384-4.052-3.222-7.938-5.11-11.776c-2.593-5.271-9.655-1.287-8.825,3.721c1.493,9.013,2.079,17.835,4.615,26.705
				c3.41-0.94,6.819-1.88,10.229-2.82c-1.441-3.467-3.124-6.895-4.303-10.455c-1.661-5.015-9.296-4.267-9.363,1.267
				c-0.077,6.334,1.911,11.363,3.245,17.374c0.17-1.3,0.34-2.601,0.51-3.901c-0.17,0.252-0.34,0.503-0.51,0.755
				c-2.684,3.973,1.732,8.192,5.717,7.437c4.928-0.934,9.873-1.438,14.891-1.467c4.227-0.024,8.94,1.231,13.069,0.778
				c2.72-0.298,5.261-2.129,5.175-5.175c-0.237-8.411-0.195-16.784-0.089-25.2c0.081-6.464-1.317-15.383,1.879-21.195
				c-3.003-1.755-6.005-3.51-9.008-5.265c-2.029,4.514-6.597,5.3-11.069,6.014c-5.718,0.913-11.673,1.669-17.341,0.129
				c-0.43,3.177-0.86,6.353-1.29,9.53c10.172,0.954,20.204,0.032,30.057-2.65c-1.956-2.545-3.913-5.09-5.869-7.634
				c-6.565,9.889-8.507,21.743-6.124,33.297c1.139,5.525,10.729,4.381,9.998-1.353c-0.624-4.902-1.272-9.801-1.91-14.702
				c-0.648-4.976-8.48-7.316-9.694-1.312c-1.237,6.12-2.69,12.456-3.003,18.711c-0.21,4.196,1.413,8.565,5.997,9.431
				c11.369,2.149,8.869-17.324,9.096-23.521c0.218-5.963-8.406-6.772-10.113-1.369c-1.995,6.314-2.175,12.627-0.844,19.094
				c1.028,4.996,8.763,4.806,9.915,0c2.066-8.626-1.09-18.775-6.415-25.777c-5.744-7.554-14.738-3.718-18.303,3.692
				c-3.574,7.429-3.194,17.832,2.735,24.05c6.286,6.593,15.684,2.653,17.188-5.69c1.408-7.81-1.152-18.269-6.911-23.937
				c-6.451-6.348-16.503-2.778-19.159,5.441c-2.305,7.132-0.142,18.657,7.708,21.526c8.511,3.11,15.076-5.22,14.692-13.098
				c-0.205-4.196-1.991-10.18-5.432-12.883c-3.276-2.574-8.186-2.084-10.597,1.385c-5.593,8.045,2.25,19.911,8.56,24.664
				c5.428,4.089,10.794-5.123,5.347-9.147c-1.514-1.119-2.689-2.515-3.538-4.192c-0.697-1.377-0.648-3.194-1.288-4.456
				c0.083-2.274-1.398-1.809-4.441,1.396c0.376,0.995,0.678,2.012,0.906,3.051c0.077,1.068,0.419,3.548-1.022,3.182
				c-1.635-0.415-2.114-8.737-0.321-9.548c2.699-1.221,4.596,6.485,4.903,7.875c0.392,1.777,0.369,3.484,0.509,5.274
				c0.116,1.488,0.251,3.286-0.638,0.336c-0.956-3.173-1.679-5.873-0.632-9.176c1.526-4.811,2.792-1.724,4.197,1.405
				c1.716,3.82,3.051,7.68,2.038,11.894c3.305,0,6.61,0,9.915,0c-0.96-4.687-0.58-9.085,0.859-13.624
				c-3.371-0.456-6.742-0.912-10.113-1.369c-0.094,2.514-0.189,5.027-0.283,7.541c-0.047,1.257-0.094,2.514-0.141,3.77
				c-0.118,3.144-1.422,3.985,2.818,3.274c3.682-0.617,2.931-0.46,3.249-3.415c0.15-1.399,0.322-2.793,0.517-4.187
				c0.422-3.012,0.945-6.005,1.566-8.982c-3.231-0.437-6.463-0.875-9.694-1.312c0.532,4.901,1.054,9.802,1.6,14.702
				c3.333-0.451,6.665-0.902,9.998-1.353c-1.772-9.014,0.29-17.723,5.283-25.344c2.521-3.848-1.646-8.826-5.869-7.634
				c-8.952,2.526-18.009,3.494-27.294,2.969c-5.907-0.334-5.971,7.631-1.29,9.53c7.66,3.107,16.325,1.716,24.245,0.279
				c6.494-1.178,12.96-4.145,15.753-10.513c2.628-5.992-5.754-11.315-9.008-5.265c-3.826,7.114-3.059,15.222-3.182,23.058
				c-0.149,9.53-0.044,19.073,0.049,28.602c1.725-1.725,3.45-3.45,5.175-5.175c-4.741,0.554-10.132-0.812-14.993-0.64
				c-5.267,0.186-10.493,0.899-15.659,1.917c1.906,2.479,3.811,4.958,5.717,7.437c1.854-2.744,0.985-5.097-0.12-7.974
				c-1.428-3.72-2.197-7.377-2.334-11.364c-3.121,0.422-6.242,0.845-9.363,1.267c1.339,3.493,2.191,7.159,3.267,10.74
				c1.972,6.562,11.685,3.839,10.229-2.82c-1.81-8.278-4.545-16.753-5.36-25.168c-3.161,0.428-6.323,0.856-9.484,1.284
				c1.269,4.112,2.641,8.145,4.427,12.064c2.788,6.121,11.621,0.8,8.984-5.251c-2.93-6.722-4.571-13.796-5.579-21.039
				C138.687,89.153,130.531,90.295,130.8,95.167L130.8,95.167z"/>
		</g>
	</g>
	<g>
		<g>
			<path style="fill:#488FCC;" d="M174.129,83.419c-0.769,0.592-1.586,1.312-1.596,2.361c-0.011,1.15,1.21,1.703,2.158,1.238
				c0.774-0.379,1.129-1.377,1.297-2.17c0.106-0.501-0.03-1.014-0.454-1.33C175.169,83.244,174.529,83.111,174.129,83.419
				L174.129,83.419z"/>
		</g>
	</g>
	<g>
		<g>
			<path style="fill:#488FCC;" d="M131.779,117.086c-0.328,1.344-0.44,2.554-0.224,3.921c0.177,1.121,0.581,2.114,1.038,3.154
				c2.384-1.005,4.768-2.01,7.152-3.015c-0.091-0.416-0.245-0.811-0.461-1.186c-0.207-0.381-0.173-0.29,0.102,0.274
				c0.101,0.946,0.072,0.78-0.087-0.499c-0.152-0.401-0.322-0.794-0.509-1.18c-0.675-1.418-2.527-2.097-3.971-1.903
				c-1.578,0.212-2.85,1.321-3.313,2.855c-0.651,2.154,0.481,4.992,2.491,6.058c1.487,0.788,3.542,0.695,4.742-0.612
				c1.163-1.267,1.543-3.217,0.612-4.742c-0.098-0.16-0.776-1.278-0.273-0.373c-0.136-0.245-0.201-0.562-0.278-0.828
				c-0.186-0.64-0.409-1.263-0.512-1.923c-0.216-1.39-1.904-2.538-3.254-2.478C133.576,114.674,132.141,115.604,131.779,117.086
				L131.779,117.086z"/>
		</g>
	</g>
	<g>
		<g>
			<path style="fill:#C62828;" d="M145.611,154.82c0.245-0.267,0.49-0.535,0.735-0.802c2.489-2.719,1.136-6.222-1.988-7.53
				c-0.435-0.182-0.87-0.364-1.305-0.546c-0.413,3.052-0.826,6.105-1.239,9.157c10.974-1.141,21.853-1.534,32.856-0.558
				c10.676,0.946,21.254,2.746,31.915,3.816c-1.299-3.136-2.598-6.271-3.896-9.407c-3.914,4.48-6.739,9.313-8.207,15.107
				c-1.556,6.143,6.737,9.551,10.11,4.262c1.09-1.71,2.176-3.423,3.263-5.135c-3.144-1.838-6.288-3.676-9.432-5.513
				c-2.942,5.556-5.997,11.579-11.299,15.267c-5.296,3.685-11.57,2.909-17.173,0.34c-5.154-2.363-9.381-5.878-12.563-10.556
				c-2.754-4.048-4.213-9.476-8.873-11.775c-1.373,3.258-2.747,6.516-4.12,9.774c14.073,2.495,28.419,3.435,42.676,2.202
				c0.358-0.031,4.288-0.183,4.327-0.401c-0.973-2.165-1.646-2.569-2.019-1.214c-0.243,0.665-0.617,1.254-1.12,1.767
				c-2.009,2.356-5.197,3.16-8.152,3.334c-7.064,0.415-14.515-2.288-20.767-5.337c-1.411,3.348-2.823,6.696-4.234,10.043
				c11.395,1.588,23.078-1.755,34.274-3.744c6.769-1.203,3.889-11.474-2.841-10.306c-8.916,1.548-19.479,4.945-28.512,3.452
				c-5.691-0.941-10.198,6.945-4.234,10.043c8.706,4.523,19.037,7.95,28.963,6.687c8.298-1.055,16.913-6.822,17.907-15.757
				c0.443-3.986-1.18-7.503-5.018-9.109c-4.343-1.818-9.806-0.218-14.339,0.052c-11.427,0.68-22.805,0.007-34.068-2.027
				c-5.541-1.001-9.939,6.881-4.12,9.774c2.236,1.112,3.488,5.818,5.003,7.958c2.021,2.856,4.538,5.476,7.119,7.828
				c5.193,4.733,11.54,8.524,18.514,9.795c16.828,3.066,26.721-9.408,34.102-22.579c3.468-6.187-5.548-11.321-9.432-5.513
				c-1.129,1.688-2.258,3.375-3.383,5.065c3.37,1.421,6.74,2.841,10.11,4.262c0.934-3.995,2.47-7.277,5.333-10.255
				c2.588-2.692,1.872-8.571-2.432-9.21c-22.09-3.282-45.432-6.721-67.476-1.591c-4.305,1.002-4.586,8.182,0,8.991
				c0.463,0.082,0.925,0.163,1.388,0.245c-0.898-2.206-1.795-4.412-2.693-6.618c-0.181,0.317-0.361,0.634-0.542,0.951
				C136.32,153.733,142.169,158.58,145.611,154.82L145.611,154.82z"/>
		</g>
	</g>
	<g>
		<g>
			<path style="fill:#4DAF4E;" d="M183.394,58.299c-12.332-2.799-24.527-0.743-35.323,5.984c-3.488,2.173-8.12,6.095-4.898,10.555
				c3.153,4.364,11.447,2.936,16.002,2.992c7.42,0.092,14.845-0.161,22.242-0.746c6.57-0.519,14.319-0.593,20.645-2.556
				c4.198-1.302,6.998-5.902,3.99-9.784c-2.985-3.85-11.684-5.839-16.201-5.435c-1.95,0.175-3.466,2.662-1.74,4.201
				c2.488,2.218,6.34,4.206,9.724,4.63c1.186,1.024,1.98,0.92,2.38-0.312c-0.804,0.156-1.611,0.291-2.422,0.405
				c-2.56,0.403-5.132,0.73-7.706,1.026c-8.654,0.997-17.362,1.526-26.073,1.593c-4.173,0.032-8.422-0.428-12.58-0.271
				c-2.447-0.343-2.573-0.186-0.375,0.47c0.946-0.591,1.908-1.156,2.885-1.695c1.68-0.92,3.402-1.757,5.184-2.463
				c7.359-2.915,15.799-4.389,23.693-4.361C185.206,62.544,185.809,58.848,183.394,58.299L183.394,58.299z"/>
		</g>
	</g>
	<g>
		<g>
			<path style="fill:#4DAF4E;" d="M118.199,140.584c0.207,7.45,4.604,15.379,8.39,21.625c3.688,6.084,8.127,11.767,13.117,16.837
				c5.005,5.085,10.653,9.575,16.71,13.345c5.776,3.596,12.678,7.59,19.448,8.8c3.929,0.702,6.891-4.712,2.89-6.854
				c-5.527-2.959-11.462-4.92-16.883-8.17c-5.763-3.456-11.1-7.576-15.937-12.24c-4.662-4.494-8.811-9.472-12.313-14.921
				c-4.003-6.229-6.379-13.816-10.792-19.677C121.465,137.519,118.124,137.884,118.199,140.584L118.199,140.584z"/>
		</g>
	</g>
	<g>
		<g>
			<path style="fill:#4DAF4E;" d="M226.855,140.76c-3.872,5.191-5.078,12.233-8.487,17.812c-3.373,5.52-7.304,10.763-11.69,15.517
				c-4.035,4.374-8.49,8.408-13.44,11.723c-5.279,3.536-11.098,5.543-16.63,8.526c-3.961,2.135-1.081,7.562,2.89,6.854
				c12.705-2.266,25.095-12.55,33.342-21.981c8.684-9.93,18.617-23.39,18.645-37.197C231.49,139.351,228.243,138.899,226.855,140.76
				L226.855,140.76z"/>
		</g>
	</g>
	<g>
		<g>
			<path style="fill:#F5F5F5;" d="M195.576,190.295c0.553,0.335,1.106,0.671,1.659,1.006c0.385-0.914,0.771-1.828,1.156-2.742
				c-1.379-0.54-2.759-1.08-4.138-1.619c-1.61-0.63-2.59,1.907-1.156,2.742c1.121,0.653,2.175,1.382,3.139,2.253
				c0.443,0.401,0.868,0.821,1.272,1.261c0.201,0.219,0.408,0.439,0.591,0.673c0.095,0.099,0.177,0.208,0.245,0.327
				c0.177,0.387,0.428,0.249,0.753-0.414c0.482,0.633,0.964,1.266,1.446,1.899c0.517-1.833,0.521-3.669,0.021-5.506
				c-0.507-1.861-3.402-1.071-2.893,0.798c0.364,1.335,0.355,2.58-0.021,3.911c-0.239,0.849,0.461,2.015,1.446,1.899
				c2.618-0.308,2.791-2.944,1.384-4.714c-1.607-2.021-3.643-3.681-5.869-4.977c-0.385,0.914-0.771,1.828-1.156,2.742
				c1.379,0.54,2.759,1.08,4.138,1.619c1.623,0.635,2.563-1.888,1.156-2.742c-0.553-0.335-1.106-0.671-1.659-1.006
				C195.435,186.701,193.926,189.294,195.576,190.295L195.576,190.295z"/>
		</g>
	</g>
	<g>
		<g>
			<path style="fill:#F5F5F5;" d="M159.218,189.781c-1.859,2.439-1.959,5.781-0.445,8.411c0.841,1.46,3.228,0.493,2.742-1.156
				c-0.16-0.543-0.32-1.085-0.48-1.628c-0.544-1.848-3.441-1.061-2.893,0.798c0.16,0.543,0.32,1.085,0.48,1.628
				c0.914-0.385,1.828-0.771,2.742-1.156c-1.029-1.787-0.786-3.767,0.445-5.383C162.978,189.76,160.374,188.264,159.218,189.781
				L159.218,189.781z"/>
		</g>
	</g>
	<g>
		<g>
			<path style="fill:#F5F5F5;" d="M169.659,209.674c1.109-0.956,2.217-1.912,3.326-2.869c0.614-0.529,0.543-1.578,0-2.121
				c-0.609-0.609-1.506-0.531-2.121,0c-1.109,0.956-2.217,1.912-3.326,2.869c-0.614,0.529-0.543,1.578,0,2.121
				C168.146,210.283,169.043,210.205,169.659,209.674L169.659,209.674z"/>
		</g>
	</g>
</g>
<g id="Layer_2">
	<g>
		<g>
			<path style="fill:#212121;" d="M132,93.5c13.325,1.614,36.869,1.609,44.295-12.243c-0.863,0-1.727,0-2.59,0
				c3.099,7.149,11.406,10.391,18.436,12.228c8.471,2.213,17.653,3.036,26.361,2.015c-0.5-0.5-1-1-1.5-1.5
				c0.131,8.367-0.659,16.838-1.473,25.153c-1.305,13.345-3.117,27.01-7.479,39.747c-1.894,5.532-4.36,10.711-8.594,14.836
				c-5.269,5.133-13.252,11.134-20.998,10.717c-7.513-0.404-17.215-3.427-22.69-8.759c-5.863-5.71-10.365-13.765-13.793-21.121
				C132.877,135.05,131.084,113.191,133.5,92c0.218-1.915-2.783-1.899-3,0c-2.294,20.117-0.811,40.834,6.96,59.699
				c3.427,8.32,7.983,16.118,13.628,23.131c4.979,6.187,12.045,9.367,19.632,11.314c7.453,1.912,13.511,1.442,20.271-2.374
				c6.065-3.424,12.001-8.147,15.598-14.2c6.903-11.617,8.93-26.398,10.688-39.555c1.582-11.84,2.912-24.044,2.725-36.015
				c-0.012-0.74-0.681-1.596-1.5-1.5c-7.678,0.9-15.652,0.324-23.187-1.338c-7.011-1.546-15.911-4.246-19.02-11.419
				c-0.452-1.042-2.099-0.916-2.59,0c-3.625,6.763-12.121,9.06-19.156,10.271c-7.404,1.275-15.094,1.389-22.549,0.487
				C130.088,90.268,130.104,93.27,132,93.5L132,93.5z"/>
		</g>
	</g>
	<g>
		<g>
			<path style="fill:#212121;" d="M137.247,147.297c24.493-4.131,50.624-2.299,74.859,2.65c1.885,0.385,2.691-2.506,0.798-2.893
				c-24.822-5.069-51.381-6.879-76.454-2.65C134.55,144.725,135.356,147.616,137.247,147.297L137.247,147.297z"/>
		</g>
	</g>
	<g>
		<g>
			<path style="fill:#212121;" d="M174.314,85.516c-0.367,18.833-0.735,37.665-1.102,56.498c-0.038,1.931,2.962,1.931,3,0
				c0.367-18.833,0.735-37.665,1.102-56.498C177.352,83.585,174.352,83.585,174.314,85.516L174.314,85.516z"/>
		</g>
	</g>
	<g>
		<g>
			<path style="fill:#C62828;" d="M178.043,192.216c-3.041-4.336-7.71-6.957-13.102-6.415c-4.203,0.422-8.757,2.905-9.763,7.296
				c-1.072,4.673,2.557,7.613,6.746,8.452c5.717,1.146,11.582-0.344,16.404-3.486c1.612-1.05,0.11-3.649-1.514-2.59
				c-2.791,1.818-5.832,3.066-9.174,3.375c-1.269,0.117-2.528,0.077-3.792-0.068c-2.714-0.312-3.988-0.549-4.933-3.311
				c-0.893-2.609-0.173-3.992,2.163-5.371c1.505-0.888,3.381-1.35,5.117-1.378c3.844-0.062,7.094,1.924,9.258,5.009
				C176.553,195.299,179.155,193.802,178.043,192.216L178.043,192.216z"/>
		</g>
	</g>
	<g>
		<g>
			<path style="fill:#C62828;" d="M179.824,196.379c0.101-3.479,5.29-6.01,8.015-7.225c1.977-0.881,4.16-1.61,6.343-1.246
				c2.879,0.48,6.786,2.471,4.786,6.717c-2.874,6.1-17.061,4.058-20.196-0.102c-1.148-1.523-3.754-0.029-2.59,1.514
				c3.945,5.234,10.633,5.691,16.758,4.899c4.781-0.618,10.416-3.72,9.474-9.414c-2.104-12.715-25.294-5.267-25.589,4.857
				C176.768,198.31,179.768,198.308,179.824,196.379L179.824,196.379z"/>
		</g>
	</g>
	<g>
		<g>
			<path style="fill:#C62828;" d="M179.65,196.546c2.323-3.929,8.234-7.831,13.006-5.612c0.872,0.618,1.744,1.235,2.616,1.853
				c0.132,2.682-0.752,3.919-2.65,3.713c-1.391,0.315-3.102-0.126-4.484-0.361c-2.512-0.427-4.962-1.077-7.386-1.857
				c-1.842-0.592-2.631,2.303-0.798,2.893c4.286,1.378,11.014,3.716,15.461,1.828c3.146-1.336,4.253-4.819,2.446-7.731
				c-4.995-8.05-17.13-2.452-20.803,3.759C176.075,196.698,178.667,198.209,179.65,196.546L179.65,196.546z"/>
		</g>
	</g>
	<g>
		<g>
			<path style="fill:#C62828;" d="M177.787,193.868c-2.19-1.29-3.436-3.624-5.689-4.887c-1.585-0.889-3.422-1.383-5.244-1.246
				c-3.418,0.257-6.599,3.005-6.711,6.539c-0.115,3.624,2.793,6.519,6.2,7.206c4.238,0.855,8.035-1.329,11.103-4.032
				c1.452-1.279-0.677-3.394-2.121-2.121c-2.002,1.763-4.412,3.398-7.201,3.35c-3.021-0.051-6.277-2.8-4.383-5.919
				c1.689-2.781,5.316-2.346,7.644-0.683c1.822,1.302,2.926,3.229,4.888,4.384C177.94,197.441,179.451,194.849,177.787,193.868
				L177.787,193.868z"/>
		</g>
	</g>
	<g>
		<g>
			<path style="fill:#C62828;" d="M175.642,195.971c-3.829,4.338-7.658,8.677-11.486,13.015c-0.639,0.723-0.565,1.836,0.304,2.356
				c2.739,1.641,5.005,1.434,7.02-1.132c2.842-3.619,5.15-7.813,7.672-11.663c1.061-1.62-1.536-3.125-2.59-1.514
				c-1.486,2.27-2.972,4.539-4.458,6.809c-1.305,1.993-3.127,6.708-6.129,4.91c0.101,0.785,0.202,1.571,0.304,2.356
				c3.829-4.338,7.658-8.677,11.486-13.015C179.037,196.65,176.923,194.52,175.642,195.971L175.642,195.971z"/>
		</g>
	</g>
	<g>
		<g>
			<path style="fill:#C62828;" d="M176.202,199.165c2.648,3.118,5.56,5.964,8.783,8.486c1.703,1.333,4.761,4.465,7.225,3.336
				c2.368-1.085,1.254-3.71-0.205-4.971c-3.431-2.965-7.354-5.501-10.988-8.215c-1.547-1.156-3.045,1.447-1.514,2.59
				c2.077,1.552,4.155,3.104,6.232,4.656c1.187,0.887,2.381,1.765,3.561,2.66c2.408,1.825,0.68-0.099-0.133-0.667
				c-4.055-2.836-7.643-6.229-10.842-9.995C177.071,195.57,174.958,197.701,176.202,199.165L176.202,199.165z"/>
		</g>
	</g>
</g>
</svg>
