<?xml version="1.0" encoding="iso-8859-1"?>
<!-- Generator: Adobe Illustrator 18.1.0, SVG Export Plug-In . SVG Version: 6.00 Build 0)  -->
<svg version="1.1" xmlns="http://www.w3.org/2000/svg" xmlns:xlink="http://www.w3.org/1999/xlink" x="0px" y="0px"
	 viewBox="0 0 350 250" style="enable-background:new 0 0 350 250;" xml:space="preserve">
<g id="Layer_1">
	<rect style="fill:#293990;" width="350" height="125"/>
	<rect y="125" style="fill:#C62828;" width="350" height="125"/>
	<polygon style="fill:#F5F5F5;" points="0,250 0,0 175,125 	"/>
	<polygon style="fill:#FEEA39;" points="12,15.985 14.502,21.056 20.098,21.869 16.049,25.816 17.005,31.389 12,28.757 
		6.995,31.389 7.951,25.816 3.902,21.869 9.498,21.056 	"/>
	<polygon style="fill:#FEEA39;" points="12,216.985 14.502,222.056 20.098,222.869 16.049,226.816 17.005,232.389 12,229.757 
		6.995,232.389 7.951,226.816 3.902,222.869 9.498,222.056 	"/>
	<polygon style="fill:#FEEA39;" points="152,116.985 154.502,122.056 160.098,122.869 156.049,126.816 157.005,132.389 152,129.757 
		146.995,132.389 147.951,126.816 143.902,122.869 149.498,122.056 	"/>
	<polygon style="fill:#FEEA39;" points="58,83.036 62,113.833 87.319,95.181 67.5,120.333 99.464,124.5 68.167,128.167 
		87.319,153.819 62.833,134.333 58,165.964 55,134.833 28.681,153.819 49.167,128 16.536,124.5 48.5,119.667 28.681,95.181 54,114 	
		"/>
	<circle style="fill:#FEEA39;" cx="58.019" cy="124.935" r="18.481"/>
</g>
<g id="Layer_2">
</g>
</svg>
