<?xml version="1.0" encoding="iso-8859-1"?>
<!-- Generator: Adobe Illustrator 18.1.0, SVG Export Plug-In . SVG Version: 6.00 Build 0)  -->
<svg version="1.1" xmlns="http://www.w3.org/2000/svg" xmlns:xlink="http://www.w3.org/1999/xlink" x="0px" y="0px"
	 viewBox="0 0 350 250" style="enable-background:new 0 0 350 250;" xml:space="preserve">
<g id="Layer_1">
	<rect style="fill:#4DAF4E;" width="117" height="250"/>
	<rect x="117" style="fill:#C62828;" width="233" height="250"/>
</g>
<g id="Layer_8">
	<line style="fill:none;stroke:#FEC111;stroke-width:8;stroke-miterlimit:10;" x1="90.5" y1="89" x2="68.909" y2="86.473"/>
	<line style="fill:none;stroke:#FEC111;stroke-width:8;stroke-miterlimit:10;" x1="66" y1="87.625" x2="82.5" y2="102.876"/>
	<line style="fill:none;stroke:#FEC111;stroke-width:8;stroke-miterlimit:10;" x1="81" y1="105.104" x2="54.301" y2="116"/>
	<line style="fill:none;stroke:#FEC111;stroke-width:8;stroke-miterlimit:10;" x1="54.301" y1="116" x2="81" y2="129.752"/>
	<line style="fill:none;stroke:#FEC111;stroke-width:8;stroke-miterlimit:10;" x1="81" y1="129.752" x2="56.818" y2="150.992"/>
	<line style="fill:none;stroke:#FEC111;stroke-width:8;stroke-miterlimit:10;" x1="56.818" y1="150.992" x2="107.75" y2="162.75"/>
	<g>
		<line style="fill:none;stroke:#FEC111;stroke-width:8;stroke-miterlimit:10;" x1="144.202" y1="89" x2="165.793" y2="86.473"/>
		
			<line style="fill:none;stroke:#FEC111;stroke-width:8;stroke-miterlimit:10;" x1="168.702" y1="87.625" x2="152.202" y2="102.876"/>
		<line style="fill:none;stroke:#FEC111;stroke-width:8;stroke-miterlimit:10;" x1="153.702" y1="105.104" x2="180.401" y2="116"/>
		<line style="fill:none;stroke:#FEC111;stroke-width:8;stroke-miterlimit:10;" x1="180.401" y1="116" x2="153.702" y2="129.752"/>
		
			<line style="fill:none;stroke:#FEC111;stroke-width:8;stroke-miterlimit:10;" x1="153.702" y1="129.752" x2="177.884" y2="150.992"/>
		
			<line style="fill:none;stroke:#FEC111;stroke-width:8;stroke-miterlimit:10;" x1="177.884" y1="150.992" x2="128.301" y2="162.75"/>
	</g>
</g>
<g id="Layer_9">
	<circle style="fill:none;stroke:#FEC111;stroke-width:6;stroke-miterlimit:10;" cx="118" cy="130" r="65"/>
	<line style="fill:none;stroke:#FEC111;stroke-width:6;stroke-miterlimit:10;" x1="117" y1="66" x2="117" y2="195"/>
</g>
<g id="Layer_3">
	<circle style="fill:none;stroke:#FEEA39;stroke-width:5;stroke-miterlimit:10;" cx="117" cy="129" r="65"/>
	<line style="fill:none;stroke:#FEEA39;stroke-width:5;stroke-miterlimit:10;" x1="117.5" y1="65" x2="117.5" y2="194"/>
</g>
<g id="Layer_7">
	<line style="fill:none;stroke:#FEEA39;stroke-width:7;stroke-miterlimit:10;" x1="89.5" y1="89" x2="67.909" y2="86.473"/>
	<line style="fill:none;stroke:#FEEA39;stroke-width:7;stroke-miterlimit:10;" x1="65" y1="87.625" x2="81.5" y2="102.876"/>
	<line style="fill:none;stroke:#FEEA39;stroke-width:7;stroke-miterlimit:10;" x1="80" y1="105.104" x2="53.301" y2="116"/>
	<line style="fill:none;stroke:#FEEA39;stroke-width:7;stroke-miterlimit:10;" x1="53.301" y1="116" x2="80" y2="129.752"/>
	<line style="fill:none;stroke:#FEEA39;stroke-width:7;stroke-miterlimit:10;" x1="80" y1="129.752" x2="55.818" y2="150.992"/>
	<line style="fill:none;stroke:#FEEA39;stroke-width:7;stroke-miterlimit:10;" x1="55.818" y1="150.992" x2="106.75" y2="162.75"/>
	<g>
		<line style="fill:none;stroke:#FEEA39;stroke-width:7;stroke-miterlimit:10;" x1="143.202" y1="89" x2="164.793" y2="86.473"/>
		
			<line style="fill:none;stroke:#FEEA39;stroke-width:7;stroke-miterlimit:10;" x1="167.702" y1="87.625" x2="151.202" y2="102.876"/>
		<line style="fill:none;stroke:#FEEA39;stroke-width:7;stroke-miterlimit:10;" x1="152.702" y1="105.104" x2="179.401" y2="116"/>
		<line style="fill:none;stroke:#FEEA39;stroke-width:7;stroke-miterlimit:10;" x1="179.401" y1="116" x2="152.702" y2="129.752"/>
		
			<line style="fill:none;stroke:#FEEA39;stroke-width:7;stroke-miterlimit:10;" x1="152.702" y1="129.752" x2="176.884" y2="150.992"/>
		
			<line style="fill:none;stroke:#FEEA39;stroke-width:7;stroke-miterlimit:10;" x1="176.884" y1="150.992" x2="127.301" y2="162.75"/>
	</g>
</g>
<g id="Layer_10">
</g>
<g id="Layer_4">
	<path style="fill:#C62828;stroke:#B72025;stroke-miterlimit:10;" d="M157,81.5c0.132,22,0.149,34.701,0,46.705
		c-0.423,34.129-23.599,45.642-39.75,46.118c-16.671,0.492-40.75-12.092-40.75-46.368c0-13.473,0-28.455,0-46.455H157z"/>
</g>
<g id="Layer_5">
	<path style="fill:#F5F5F5;" d="M142.978,96c0.086,14,0.097,22.464,0,30.263c-0.275,22.174-15.17,29.613-25.664,29.923
		C106.482,156.506,91,148.289,91,126.019C91,117.265,91,108,91,96H142.978z"/>
	<rect x="82.313" y="86.504" style="fill:#FEEA39;" width="7" height="7"/>
	<rect x="82.313" y="128.041" style="fill:#FEEA39;" width="7" height="7"/>
	<rect x="145.514" y="86.504" style="fill:#FEEA39;" width="7" height="7"/>
	<rect x="114" y="86.037" style="fill:#FEEA39;" width="7" height="7"/>
	<rect x="146" y="128.041" style="fill:#FEEA39;" width="7" height="7"/>
	<polygon style="fill:#FEEA39;" points="99.683,156.745 94.998,161.745 90.313,156.745 94.998,151.745 	"/>
	<polygon style="fill:#FEEA39;" points="146.512,154.599 141.512,159.935 136.512,154.599 141.512,149.263 	"/>
</g>
<g id="Layer_6">
	<g>
		<path style="fill:#14499E;" d="M123.386,118c0.019,3,0.021,5.612,0,7.531c-0.06,5.457-3.323,7.329-5.622,7.405
			c-2.373,0.079-5.764-1.902-5.764-7.382c0-2.154,0-4.554,0-7.554H123.386z"/>
		<rect x="112.998" y="119.018" style="fill:#F5F5F5;" width="3" height="3.201"/>
		<rect x="119.464" y="126.466" style="fill:#F5F5F5;" width="3" height="3.201"/>
		<rect x="112.998" y="126.466" style="fill:#F5F5F5;" width="3" height="3.201"/>
		<rect x="116.297" y="122.62" style="fill:#F5F5F5;" width="3" height="3.201"/>
		<rect x="119.464" y="119.018" style="fill:#F5F5F5;" width="3" height="3.201"/>
	</g>
	<g>
		<path style="fill:#14499E;" d="M123.386,97c0.019,3,0.021,5.44,0,7.359c-0.06,5.457-3.323,7.243-5.622,7.32
			c-2.373,0.079-5.764-1.988-5.764-7.468c0-2.154,0-4.211,0-7.211H123.386z"/>
		<rect x="112.998" y="97.675" style="fill:#F5F5F5;" width="3" height="3.201"/>
		<rect x="119.464" y="105.122" style="fill:#F5F5F5;" width="3" height="3.201"/>
		<rect x="112.998" y="105.122" style="fill:#F5F5F5;" width="3" height="3.201"/>
		<rect x="116.297" y="101.276" style="fill:#F5F5F5;" width="3" height="3.201"/>
		<rect x="119.464" y="97.675" style="fill:#F5F5F5;" width="3" height="3.201"/>
	</g>
	<g>
		<path style="fill:#14499E;" d="M140.386,118c0.019,3,0.021,5.612,0,7.531c-0.06,5.457-3.323,7.329-5.622,7.405
			c-2.373,0.079-5.764-1.902-5.764-7.382c0-2.154,0-4.554,0-7.554H140.386z"/>
		<rect x="129.998" y="119.018" style="fill:#F5F5F5;" width="3" height="3.201"/>
		<rect x="136.464" y="126.466" style="fill:#F5F5F5;" width="3" height="3.201"/>
		<rect x="129.998" y="126.466" style="fill:#F5F5F5;" width="3" height="3.201"/>
		<rect x="133.297" y="122.62" style="fill:#F5F5F5;" width="3" height="3.201"/>
		<rect x="136.464" y="119.018" style="fill:#F5F5F5;" width="3" height="3.201"/>
	</g>
	<g>
		<path style="fill:#14499E;" d="M105.386,118c0.019,3,0.021,5.612,0,7.531c-0.06,5.457-3.323,7.329-5.622,7.405
			c-2.373,0.079-5.764-1.902-5.764-7.382C94,123.4,94,121,94,118H105.386z"/>
		<rect x="94.998" y="119.018" style="fill:#F5F5F5;" width="3" height="3.201"/>
		<rect x="101.464" y="126.466" style="fill:#F5F5F5;" width="3" height="3.201"/>
		<rect x="94.998" y="126.466" style="fill:#F5F5F5;" width="3" height="3.201"/>
		<rect x="98.297" y="122.62" style="fill:#F5F5F5;" width="3" height="3.201"/>
		<rect x="101.464" y="119.018" style="fill:#F5F5F5;" width="3" height="3.201"/>
	</g>
	<g>
		<path style="fill:#14499E;" d="M123.386,137c0.019,3,0.021,5.612,0,7.531c-0.06,5.457-3.323,7.329-5.622,7.405
			c-2.373,0.079-5.764-1.902-5.764-7.382c0-2.154,0-4.554,0-7.554H123.386z"/>
		<rect x="112.998" y="138.018" style="fill:#F5F5F5;" width="3" height="3.201"/>
		<rect x="119.464" y="145.466" style="fill:#F5F5F5;" width="3" height="3.201"/>
		<rect x="112.998" y="145.466" style="fill:#F5F5F5;" width="3" height="3.201"/>
		<rect x="116.297" y="141.62" style="fill:#F5F5F5;" width="3" height="3.201"/>
		<rect x="119.464" y="138.018" style="fill:#F5F5F5;" width="3" height="3.201"/>
	</g>
</g>
</svg>
