<?xml version="1.0" encoding="iso-8859-1"?>
<!-- Generator: Adobe Illustrator 18.1.1, SVG Export Plug-In . SVG Version: 6.00 Build 0)  -->
<svg version="1.1" xmlns="http://www.w3.org/2000/svg" xmlns:xlink="http://www.w3.org/1999/xlink" x="0px" y="0px"
	 viewBox="0 0 350 250" style="enable-background:new 0 0 350 250;" xml:space="preserve">
<g id="Layer_4">
	<rect style="fill:#F5F5F5;" width="350" height="250"/>
</g>
<g id="Layer_2">
	<g>
		<g>
			<g>
				<path style="fill:#293990;" d="M126.602,123.476c0.085-0.264,0.136-0.492,0.142-0.768c0.003-0.12,0.001-0.24,0.002-0.359
					c0.001-0.09,0.001-0.18,0-0.269c0.009-0.114,0-0.12-0.028-0.016c0.313-0.465-0.005-1.121-0.513-1.261
					c-0.526-0.145-1.099,0.268-1.086,0.828c0.016,0.697,0.163,2.281,1.226,2.109c1.072-0.173,0.705-1.668,0.46-2.337
					c-0.42,0.323-0.841,0.646-1.261,0.969c-0.167-0.089,0.02,0.124,0.059,0.197c0.069,0.131,0.136,0.263,0.209,0.392
					c0.133,0.234,0.285,0.411,0.478,0.598C126.392,123.66,126.558,123.61,126.602,123.476L126.602,123.476z"/>
			</g>
		</g>
		<g>
			<g>
				<path style="fill:#293990;" d="M125.174,118.52c-0.4,0.361-0.354,1.097-0.339,1.598c0.018,0.62,0.091,1.307,0.701,1.629
					c0.262,0.138,0.587,0.11,0.801-0.103c0.491-0.489,0.386-1.148,0.217-1.758c-0.13-0.47-0.312-1.22-0.784-1.442
					C125.561,118.344,125.348,118.362,125.174,118.52L125.174,118.52z"/>
			</g>
		</g>
		<g>
			<g>
				<path style="fill:#293990;" d="M125.352,118.233c-0.092,0.485-0.227,0.969-0.189,1.466c0.054,0.719,1.188,0.72,1.125,0
					c-0.045-0.521-0.238-0.978-0.416-1.466C125.789,118.007,125.406,117.948,125.352,118.233L125.352,118.233z"/>
			</g>
		</g>
		<g>
			<g>
				<path style="fill:#293990;" d="M124.929,123.805c-0.094,0.249-0.13,0.533-0.113,0.798c0.073,1.105,1.054,1.971,2.181,1.661
					c1.075-0.296,1.576-1.563,1.03-2.531c0.042,0.169,0.083,0.338,0.125,0.507c-0.071-0.821-0.57-1.497-1.423-1.611
					C125.877,122.515,125.222,123.03,124.929,123.805L124.929,123.805z"/>
			</g>
		</g>
		<g>
			<g>
				<path style="fill:#293990;" d="M127.88,124.249c0.019-0.127,0.037-0.255,0.056-0.382c-1.175-0.159-2.35-0.318-3.526-0.477
					c0.066,2.282,0.639,4.287,1.288,6.468c1.536-0.648,3.072-1.295,4.608-1.943c-0.3-0.646-0.613-1.286-0.937-1.92
					c-1.349-2.7-4.944-0.661-4.528,1.909c0.522,3.223,1.251,6.099,2.54,9.095c1.169,2.716,5.983,0.732,4.827-2.035
					c-0.499-1.195-0.999-2.39-1.498-3.586c-1.076-2.575-5.204-2.53-5.2,0.704c0.004,3.099,1.406,5.911,1.847,8.975
					c1.662-0.458,3.325-0.917,4.987-1.375c-0.365-1.058-0.738-2.113-1.119-3.165c-1.093-3.057-5.352-1.831-4.818,1.328
					c0.267,1.58,0.772,2.55,1.764,3.753c1.599,1.938,4.11-0.237,3.786-2.204c-0.548-3.322-0.509-7.179-0.452-10.541
					c-1.489,0.403-2.979,0.807-4.468,1.21c2.687,5.453,6.677,9.069,11.65,12.424c0.929-1.59,1.859-3.18,2.788-4.77
					c-2.499-1.308-4.17-2.912-5.544-5.357c-1.352,1.043-2.703,2.086-4.055,3.129c4.368,3.795,8.911,6.373,14.231,8.648
					c0.218-1.669,0.436-3.339,0.655-5.008c-2.696,0.511-6.421,1.394-9.171,0.786c-2.06-0.456-2.841-2.442-4.763-3.323
					c-2.24-1.027-4.23,0.651-3.899,2.998c0.582,4.127,4.758,5.71,8.179,3.639c1.665-1.007,1.695-3.48,0-4.48
					c-2.656-1.568-6.808-2.322-8.173,1.344c-1.214,3.26,1.255,5.624,4.411,5.603c1.89-0.012,2.891-2.008,2.07-3.608
					c-0.628-1.225-1.346-2.153-2.363-3.068c-1.327-1.192-3.598-0.78-4.078,1.077c-0.513,1.986-0.177,3.356,1.25,4.828
					c1.842,1.899,5.248-0.594,3.73-2.878c-0.514-0.761-1.017-1.53-1.508-2.307c-1.185-1.842-4.568-1.28-4.403,1.192
					c0.118,1.765,0.53,2.918,1.733,4.224c1.665,1.809,4.422-0.496,3.313-2.556c-0.295-0.547-0.589-1.095-0.883-1.643
					c-1.13-2.105-4.672-0.672-3.902,1.645c0.244,0.735,0.489,1.47,0.733,2.205c0.881,2.65,5.133,1.462,4.181-1.153
					c-0.266-0.729-0.531-1.458-0.797-2.187c-1.301,0.548-2.601,1.097-3.902,1.645c0.31,0.539,0.619,1.078,0.927,1.617
					c1.285-0.542,2.57-1.084,3.855-1.625c-0.3-0.692-0.478-1.416-0.534-2.172c-1.468,0.397-2.935,0.795-4.403,1.192
					c0.507,0.766,1.002,1.539,1.487,2.319c1.367-0.799,2.734-1.598,4.101-2.397c-0.091-0.217-0.183-0.435-0.274-0.652
					c-1.359,0.359-2.719,0.718-4.078,1.077c0.759,0.505,1.316,1.184,1.673,2.038c0.69-1.203,1.38-2.405,2.07-3.608
					c0.381,0.776,0.762,1.553,1.144,2.329c0-1.493,0-2.987,0-4.48c-0.116,0.045-0.231,0.09-0.347,0.135
					c-1.331,0.764-2.663,1.528-3.994,2.292c1.2,0.565,1.858,2.348,2.979,3.106c1.067,0.722,2.458,0.891,3.698,0.989
					c3.802,0.301,7.658-0.187,11.394-0.858c2.213-0.397,2.776-4.076,0.655-5.008c-4.674-2.053-9.474-4.167-13.345-7.568
					c-2.205-1.937-5.417,0.468-4.055,3.129c1.667,3.256,4.05,5.703,7.215,7.52c3.113,1.788,5.718-2.804,2.788-4.77
					c-4.259-2.857-7.191-6.05-10.297-10.075c-1.698-2.199-4.759-0.908-4.383,1.848c0.457,3.348,0.863,7.138,0.712,10.506
					c1.483-0.201,2.966-0.401,4.45-0.602c-0.293-0.714-0.507-1.452-0.643-2.214c-1.636,0.221-3.271,0.443-4.907,0.664
					c0.309,1.073,0.625,2.143,0.95,3.212c0.971,3.24,5.547,1.858,4.987-1.375c-0.375-2.167-1.596-5.456-1.539-7.6
					c-1.733,0.235-3.467,0.469-5.2,0.704c0.504,1.194,1.007,2.388,1.511,3.582c1.609-0.678,3.218-1.357,4.827-2.035
					c-1.091-2.511-1.921-5.04-2.323-7.746c-1.509,0.636-3.018,1.273-4.528,1.909c0.275,0.66,0.562,1.315,0.861,1.964
					c1.161,2.582,5.592,0.741,4.608-1.943c-0.792-2.16-1.48-4.141-2.805-6.034c-1.305-1.864-4.29-0.212-3.1,1.812
					c0.068,0.116,0.137,0.232,0.205,0.348C125.515,125.756,127.666,125.72,127.88,124.249L127.88,124.249z"/>
			</g>
		</g>
		<g>
			<g>
				<path style="fill:#293990;" d="M131.387,145.856c0.564,1.391,1.155,2.576,2.026,3.812c1.232-0.95,2.463-1.9,3.695-2.851
					c-0.767-1.016-1.62-1.954-2.559-2.813c-1.54-1.543-4.73,0.01-3.875,2.256c0.295,0.776,0.591,1.552,0.886,2.329
					c1.377-0.581,2.754-1.161,4.132-1.742c-0.544-1.011-1.109-2.011-1.694-3c-1.141-1.973-3.8-0.926-3.996,1.082
					c-0.173,1.772,0.329,2.869,1.493,4.173c1.569,1.757,4.645-0.563,3.295-2.542c-0.6-0.873-1.193-1.749-1.78-2.63
					c-1.263-1.881-4.791-0.757-3.899,1.644c1.408,3.788,3.283,6.91,5.946,9.945c1.926,2.195,5.804-0.725,4.09-3.156
					c-1.756-2.49-2.742-4.862-2.935-7.962c-1.572,0.426-3.145,0.852-4.717,1.278c1.936,3.068,4.094,5.671,6.865,8.033
					c1.826,1.557,5.034,0.123,4.256-2.478c-0.88-2.945-2.209-5.459-3.776-8.102c-1.304,1.006-2.608,2.012-3.911,3.018
					c2.27,2.44,6.409,8.413,10.452,5.869c4.299-2.705-1.336-7.505-3.147-9.601c-2.181-2.522-5.769,1.131-3.646,3.646
					c2.6,3.08,6.2,4.074,10.074,3.165c1.776-0.417,2.66-3.096,1.143-4.329c-3.185-2.589-6.57-3.041-10.242-1.113
					c-1.879,0.986-1.595,4.366,0.621,4.754c4.091,0.717,7.703,0.483,11.577-1.107c1.918-0.788,2.777-3.582,0.621-4.755
					c-3.065-1.668-6.125-2.423-9.615-2.175c-2.936,0.208-3.581,4.205-0.697,5.153c3.173,1.044,5.975,1.082,9.194,0.222
					c2.705-0.723,2.227-4.118,0-5.027c-0.046-0.019-3.458-1.199-3.487-1.29c-1.063,1.063-2.126,2.126-3.19,3.19
					c2.775,1.103,5.405,1.79,8.365,2.149c0-1.785,0-3.57,0-5.354c-1.872-0.13-3.734-0.189-5.603-0.367c0,1.633,0,3.266,0,4.898
					c3.972-0.235,7.947-0.404,11.919-0.656c3.414-0.216,3.403-5.6,0-5.32c-3.977,0.327-7.945,0.735-11.919,1.078
					c-3.184,0.275-3.111,4.533,0,4.898c1.628,0.257,3.258,0.5,4.891,0.727c3.823,0.546,4.586-4.749,0.712-5.259
					c-2.422-0.319-4.722-0.901-6.987-1.795c-1.857-0.733-3.735,1.435-3.19,3.19c0.992,3.192,4.25,3.761,7.102,4.938
					c0-1.676,0-3.351,0-5.027c-2.371,0.623-4.139,0.505-6.413-0.254c-0.232,1.718-0.465,3.436-0.697,5.153
					c2.633-0.192,4.663,0.155,6.989,1.421c0.207-1.585,0.414-3.17,0.621-4.755c-2.941,1.208-5.613,1.666-8.81,1.108
					c0.207,1.585,0.414,3.169,0.621,4.754c1.318,0.095,2.635,0.189,3.953,0.284c0.381-1.443,0.762-2.886,1.143-4.329
					c-2.151,0.511-3.704-0.23-5.05-1.816c-1.215,1.215-2.431,2.431-3.646,3.646c0.258,0.296,3.193,3.094,3.215,3.532
					c0.423-0.738,0.847-1.476,1.27-2.215c-0.079,0.059-4.287-4.408-4.621-4.755c-2.005-2.08-5.228,0.564-3.911,3.018
					c1.216,2.268,2.332,4.497,3.165,6.943c1.419-0.826,2.837-1.652,4.256-2.478c-2.467-2.038-4.446-4.233-6.095-6.987
					c-1.249-2.087-4.817-1.293-4.717,1.278c0.154,3.964,1.187,7.353,3.5,10.59c1.363-1.052,2.727-2.104,4.09-3.156
					c-2.186-2.46-4.059-5.08-5.73-7.906c-1.228,0.718-2.456,1.435-3.684,2.153c0.62,0.861,1.234,1.725,1.842,2.595
					c1.098-0.847,2.196-1.695,3.295-2.542c-0.057-0.402-0.114-0.804-0.171-1.206c-1.332,0.361-2.664,0.722-3.996,1.082
					c0.477,1.049,0.974,2.088,1.493,3.117c1.126,2.289,4.93,0.69,4.132-1.742c-0.258-0.786-0.516-1.573-0.774-2.36
					c-1.292,0.752-2.583,1.504-3.875,2.256c0.749,1.031,1.587,1.984,2.512,2.86c2.104,2.185,5.43-1.145,3.327-3.327
					c-0.805-0.736-1.434-1.595-1.887-2.578C134.096,142.225,130.475,143.607,131.387,145.856L131.387,145.856z"/>
			</g>
		</g>
		<g>
			<g>
				<path style="fill:#293990;" d="M216.315,143.611c0.087,1.038,0.338,1.571,0.966,2.374c1.297,1.657,3.63,0.118,3.765-1.559
					c0.106-1.322,0.034-1.782-0.215-3.084c-0.521-2.726-4.121-1.682-4.419,0.598c-0.148,1.129,0.039,1.657,0.613,2.627
					c0.895,1.511,3.849,1.482,4.131-0.54c0.026-0.184,0.051-0.368,0.077-0.552c-1.252,0.331-2.504,0.661-3.757,0.992
					c0.13,0.139,0.261,0.278,0.391,0.417c1.611,1.718,4.156-0.105,3.727-2.169c-0.77-3.703-2.603-6.26-5.134-9.013
					c-1.251,1.251-2.503,2.503-3.754,3.754c0.778,0.761,1.567,1.509,2.356,2.258c2.145,2.036,5.633-0.55,4.125-3.183
					c-2.062-3.601-5.087-6.056-8.479-8.359c-0.9,1.54-1.8,3.079-2.7,4.619c0.963,0.525,1.926,1.051,2.889,1.576
					c2.227,1.215,5.096-1.302,3.617-3.617c-2.184-3.418-6.009-5.905-9.438-7.934c-2.957-1.75-5.597,2.8-2.685,4.594
					c2.528,1.558,5.97,3.417,7.558,6.008c1.206-1.206,2.411-2.411,3.617-3.617c-0.952-0.543-1.905-1.087-2.857-1.63
					c-3.033-1.73-5.493,2.677-2.7,4.619c2.617,1.82,5.116,3.508,6.643,6.392c1.375-1.061,2.75-2.122,4.125-3.183
					c-0.769-0.77-1.537-1.539-2.317-2.297c-2.455-2.388-6.105,1.273-3.754,3.754c1.819,1.92,3.713,3.889,4.588,6.445
					c1.242-0.723,2.484-1.446,3.727-2.169c-0.122-0.147-0.244-0.295-0.365-0.442c-1.042-1.261-3.46-0.6-3.757,0.992
					c-0.034,0.182-0.068,0.364-0.102,0.545c1.377-0.18,2.754-0.36,4.131-0.54c-0.006-0.115-0.012-0.23-0.017-0.345
					c-1.473,0.199-2.946,0.399-4.419,0.598c0.048,0.629,0.095,1.258,0.143,1.888c1.255-0.52,2.51-1.04,3.765-1.559
					c0.058,0.056,0.116,0.112,0.174,0.169C220.179,140.642,216.112,141.176,216.315,143.611L216.315,143.611z"/>
			</g>
		</g>
		<g>
			<g>
				<path style="fill:#293990;" d="M161.887,142.489c1.215-0.303,1.797-0.547,2.94-1.066c2.446-1.111,0.568-4.408-1.699-4.031
					c-0.881,0.129-1.756,0.292-2.625,0.488c0.584,1.386,1.169,2.772,1.753,4.158c5.269-2.808,14.485-5.447,17.171-11.296
					c1.133-2.467-1.851-5.293-3.984-3.074c-1.154,1.201-2.308,2.402-3.47,3.595c-2.241,2.303,1.099,5.525,3.485,3.485
					c0.992-0.848,1.984-1.696,2.976-2.544c2.124-1.816-0.769-5.654-3.023-3.918c-1.344,1.035-2.685,2.075-4.032,3.105
					c-2.404,1.838-0.396,5.63,2.429,4.156c3.361-1.753,6.137-3.95,8.56-6.872c1.41-1.699,0.143-5.041-2.397-4.118
					c-2.469,0.897-4.03,2.079-5.151,4.493c-0.995,2.142,1.853,4.949,3.575,2.759c2.205-2.805,4.881-4.663,8.221-5.911
					c-0.598-1.418-1.195-2.835-1.793-4.253c-1.396,0.841-2.784,1.694-4.174,2.545c1.036,0.594,2.072,1.189,3.108,1.783
					c-0.044-0.402-0.088-0.803-0.132-1.205c-0.532,0.699-1.064,1.398-1.596,2.096c0.593-0.131,1.186-0.262,1.779-0.392
					c-0.593-1.406-1.185-2.811-1.778-4.217c-1.386,0.903-2.772,1.807-4.158,2.71c0.769,1.316,1.539,2.633,2.308,3.949
					c2.624-1.686,5.309-3.081,8.225-4.199c2.731-1.047,1.612-5.453-1.229-4.458c-1.359,0.476-2.708,0.978-4.066,1.458
					c0.385,1.395,0.769,2.79,1.154,4.185c5.898-2.042,11.891-2.368,17.719,0.101c3.32,1.406,5.305-3.196,1.932-4.584
					c-7.069-2.909-14.446-2.823-21.323,0.517c-2.23,1.083-0.661,4.645,1.672,3.966c1.379-0.402,2.763-0.78,4.141-1.185
					c-0.41-1.486-0.819-2.972-1.229-4.458c-3.321,1.242-6.343,2.744-9.305,4.708c-2.437,1.616-0.187,5.546,2.308,3.949
					c1.393-0.892,2.786-1.783,4.179-2.675c2.087-1.336,0.782-5.19-1.778-4.217c-0.57,0.216-1.139,0.433-1.709,0.649
					c-1.083,0.412-1.876,1.458-1.518,2.674c0.115,0.392,0.23,0.784,0.346,1.176c0.402,1.367,1.826,1.801,3.034,1.234
					c1.481-0.695,2.962-1.388,4.438-2.094c2.355-1.126,0.691-5.159-1.793-4.253c-4.134,1.508-7.332,3.852-10.203,7.179
					c1.192,0.92,2.384,1.839,3.575,2.759c0.843-0.68,1.686-1.36,2.53-2.04c-0.799-1.373-1.598-2.745-2.397-4.118
					c-2.164,2.554-4.567,4.576-7.506,6.2c0.81,1.385,1.62,2.771,2.429,4.156c1.37-0.989,2.747-1.969,4.121-2.954
					c-1.008-1.306-2.015-2.612-3.023-3.918c-0.978,0.862-1.955,1.725-2.933,2.587c1.162,1.162,2.323,2.323,3.485,3.485
					c1.186-1.169,2.379-2.331,3.572-3.493c-1.328-1.025-2.656-2.049-3.984-3.074c-1.322,2.697-4.447,3.896-6.944,5.313
					c-2.714,1.539-5.417,3.098-8.142,4.615c-2.321,1.292-0.707,4.699,1.753,4.158c0.871-0.174,1.734-0.382,2.588-0.622
					c-0.566-1.344-1.133-2.687-1.699-4.031c-1.047,0.673-1.544,1.051-2.447,1.898C158.817,140.764,160.218,142.906,161.887,142.489
					L161.887,142.489z"/>
			</g>
		</g>
		<g>
			<g>
				<path style="fill:#293990;" d="M215.361,137.812c0.413,1.011,0.837,1.995,1.173,3.037c0.406,1.261,0.634,2.661,1.938,3.301
					c1.121,0.55,2.389,0.282,3.078-0.807c0.886-1.399,0.241-2.879-0.368-4.245c-0.469-1.05-1.015-2.096-1.693-3.026
					c-0.662-0.908-1.723-1.407-2.821-0.924C215.74,135.556,214.93,136.756,215.361,137.812L215.361,137.812z"/>
			</g>
		</g>
		<g>
			<g>
				<path style="fill:#293990;" d="M217.703,143.045c-1.272,1.357-2.404,2.74-3.501,4.238c1.417,0.828,2.833,1.656,4.25,2.484
					c0.649-0.979,1.249-1.988,1.798-3.026c-1.433-0.838-2.866-1.675-4.299-2.513c-3.483,7.328-8.97,13.031-15.792,17.352
					c-2.908,1.842-0.238,6.467,2.709,4.634c1.501-0.933,3.001-1.87,4.5-2.806c-1.074-1.393-2.149-2.785-3.223-4.178
					c-6.105,5.102-13.312,8.087-21.123,9.389c0.483,1.752,0.966,3.504,1.449,5.255c1.571-0.44,3.138-0.876,4.72-1.273
					c-0.672-1.594-1.344-3.189-2.017-4.783c-0.997,0.687-2.089,1.112-3.276,1.277c0.461,1.673,0.923,3.346,1.384,5.02
					c1.74-0.597,3.481-1.194,5.221-1.791c-0.982-1.278-1.965-2.556-2.947-3.834c-0.363,0.138-0.725,0.276-1.088,0.414
					c0.67,0.881,1.341,1.761,2.011,2.642c0.005-0.155,0.01-0.309,0.015-0.464c0.098-2.986-4.785-3.77-5.317-0.72
					c-0.026,0.152-0.053,0.303-0.079,0.455c-0.326,1.867,0.753,3.292,2.642,3.468c2.823,0.263,4.717-0.949,6.323-3.162
					c1.325-1.826-0.879-4.549-2.947-3.834c-1.739,0.602-3.478,1.203-5.217,1.805c-3.149,1.089-1.907,5.783,1.384,5.02
					c1.667-0.387,3.051-0.944,4.533-1.777c2.632-1.48,0.832-5.47-2.017-4.783c-1.588,0.383-3.18,0.725-4.778,1.065
					c-3.477,0.741-1.949,5.806,1.449,5.255c8.821-1.429,16.551-5.247,23.435-10.883c2.357-1.929-0.683-5.728-3.223-4.178
					c-1.509,0.921-3.017,1.842-4.524,2.765c0.903,1.545,1.806,3.09,2.709,4.634c7.637-4.838,13.249-11.481,17.382-19.474
					c1.467-2.837-2.628-5.269-4.299-2.513c-0.634,0.989-1.217,2.007-1.749,3.054c-1.508,2.792,2.79,5.292,4.25,2.484
					c0.85-1.636,1.561-3.277,2.208-5C221.292,143.086,218.863,141.809,217.703,143.045L217.703,143.045z"/>
			</g>
		</g>
		<g>
			<g>
				<path style="fill:#293990;" d="M183.044,169.888c-1.456-0.105-2.915,0.022-4.365,0.169c-3.098,0.314-3.243,5.022,0,4.944
					c1.421-0.034,2.835-0.11,4.254-0.195c2.368-0.142,3.451-3.309,1.245-4.596c-1.684-0.982-3.351-1.121-5.263-1.012
					c-1.829,0.104-3.511,0.269-4.657-1.43c-1.29-1.912-3.971-1.517-4.738,0.619c-1.996,5.556,6.485,7.425,10.26,6.36
					c2.481-0.7,2.261-4.026,0-4.819c-2.332-0.818-4.723-1.13-7.183-0.863c-2.641,0.287-3.675,4.264-0.674,4.978
					c1.234,0.293,2.468,0.587,3.702,0.88c0-1.62,0-3.241,0-4.861c-0.2,0.06-0.4,0.12-0.6,0.18c-1.503,0.452-2.192,2.486-0.957,3.624
					c0.148,0.136,0.296,0.273,0.444,0.409c3.18,2.928,6.348-3.257,2.452-4.213c-1.232-0.302-2.463-0.604-3.695-0.907
					c-0.225,1.659-0.449,3.319-0.674,4.978c2.04-0.207,3.907-0.039,5.854,0.613c0-1.606,0-3.212,0-4.819
					c-0.761,0.146-1.481,0.193-2.245,0.046c-0.578-0.111-1.451-0.857-1.687-0.21c-1.579,0.206-3.159,0.413-4.738,0.619
					c1.157,1.733,2.741,3.14,4.781,3.733c1.003,0.291,2.074,0.347,3.108,0.277c1.269-0.086,2.843-0.612,4.018,0.074
					c0.415-1.532,0.83-3.064,1.245-4.596c-1.421,0.041-2.835,0.092-4.254,0.184c0.219,1.619,0.438,3.237,0.657,4.856
					c1.442-0.205,2.883-0.431,4.269-0.881C185.912,173.281,185.417,170.058,183.044,169.888L183.044,169.888z"/>
			</g>
		</g>
		<g>
			<g>
				<path style="fill:#293990;" d="M136.2,155.561c1.22,0.859,2.467,1.61,3.745,2.38c0.69-1.636,1.38-3.273,2.07-4.909
					c-1.183-0.306-2.375-0.571-3.576-0.797c-3.099-0.635-4.535,3.134-2.081,4.937c1.364,1.002,2.71,2.026,4.058,3.051
					c0.913-1.562,1.826-3.124,2.739-4.686c-0.711-0.402-1.424-0.802-2.138-1.199c-2.645-1.477-5.626,2.113-3.307,4.286
					c5.388,5.049,10.544,9.724,17.639,12.198c0.25-1.849,0.5-3.697,0.751-5.546c-0.838-0.054-1.677-0.095-2.516-0.123
					c-3.095-0.128-3.733,4.651-0.73,5.397c3.52,0.874,7.035,1.765,10.552,2.651c0.247-1.824,0.494-3.648,0.74-5.472
					c-1.584-0.073-3.167-0.117-4.752-0.169c-3.084-0.102-3.567,4.417-0.714,5.273c5.719,1.716,13.956,3.962,19.706,1.574
					c1.864-0.774,2.283-3.607,0-4.226c-2.675-0.725-5.279-0.411-8.032-0.606c-3.497-0.247-6.888-0.941-10.247-1.919
					c-0.238,1.758-0.476,3.516-0.714,5.273c1.584,0.128,3.166,0.264,4.752,0.371c3.144,0.212,3.77-4.735,0.74-5.472
					c-3.524-0.857-7.05-1.709-10.572-2.577c-0.243,1.799-0.487,3.598-0.73,5.397c0.837,0.104,1.676,0.196,2.516,0.275
					c3.329,0.339,3.589-4.566,0.751-5.546c-5.977-2.063-10.771-6.316-15.281-10.612c-1.102,1.429-2.205,2.857-3.307,4.286
					c0.717,0.393,1.434,0.784,2.154,1.173c3.137,1.7,5.503-2.654,2.739-4.686c-1.363-1.003-2.724-2.004-4.07-3.029
					c-0.694,1.646-1.387,3.291-2.081,4.937c1.186,0.296,2.381,0.552,3.584,0.768c2.819,0.554,4.934-3.426,2.07-4.909
					c-1.327-0.687-2.623-1.359-3.996-1.951C135.806,150.12,133.589,153.722,136.2,155.561L136.2,155.561z"/>
			</g>
		</g>
		<g>
			<g>
				<path style="fill:#293990;" d="M201.068,147.28c0.283-0.466,0.565-0.932,0.847-1.398c5.966-9.841-9.521-18.869-15.406-9.005
					c-2.873,4.815-4.859,11.262-1.602,16.329c2.227,3.466,6.409,5.409,10.486,4.267c8.608-2.41,12.861-14.659,10.179-22.642
					c-3.625-10.79-15.664-11.918-23.568-5.293c-5.328,4.466-2.453,14.307,4.148,15.71c6.824,1.45,14.135,0.062,17.137-7.052
					c3.116-7.385-2.394-15.436-10.177-15.979c-6.42-0.448-11.394,3.603-14.633,8.845c-2.096,3.392-3.047,9.589-6.593,11.61
					c4.114,5.332,8.229,10.665,12.343,15.997c4.777-5.373,7.873-11.496,9.803-18.416c2.594-9.299-9.719-16.974-16.534-9.625
					c-5.816,6.272-13.16,12.562-21.474,15.08c3.988,5.187,7.976,10.375,11.964,15.562c1.047-2.197,1.573-3.133,4.003-3.157
					c-0.901-6.655-1.801-13.31-2.702-19.965c-7.003,0.976-13.565,3.635-20.185,6.005c3.328,0.88,6.656,1.759,9.984,2.639
					c-0.199-0.173-0.398-0.346-0.597-0.519c-3.329,5.719-6.659,11.439-9.988,17.158c6.676,1.821,13.627,2.28,20.514,2.537
					c-0.905-6.685-1.809-13.37-2.714-20.055c-3.056,0.698-6.106,1.42-9.156,2.14c-8.12,1.916-10.417,14.85-2.435,18.629
					c8.447,3.999,17.411,5.62,26.641,3.623c8.256-1.786,19.105-6.883,23.106-14.673c5.77-11.236-7.471-20.46-16.788-12.954
					c-3.962,3.193-8.504,6.215-13.232,8.131c-4.321,1.751-7.635,5.066-7.635,10.028c0,4.354,3.201,9.115,7.635,10.028
					c9.123,1.877,17.826-0.202,25.554-5.353c7.464-4.975,14.96-10.827,15.231-20.541c-1.802,3.142-3.604,6.284-5.406,9.425
					c0.699-0.404,1.399-0.809,2.098-1.213c7.466-4.317,6.597-14.316,0-18.817c-1.509-1.029-2.347-2.967-3.509-4.589
					c-3.172-4.426-6.865-5.782-12.061-6.441c-11.938-1.513-14.893,19.46-2.866,21.177c0.048,0.016,0.095,0.031,0.143,0.047
					c-1.292-1.292-2.584-2.584-3.876-3.876c3.44,4.894,6.175,8.973,11.17,12.499c0-6.272,0-12.545,0-18.817
					c-3.214,1.79-6.108,3.971-7.134,7.703c-0.536,3.175-0.594,3.855-0.174,2.039c0.431-0.515,0.457-0.821,0.077-0.918
					c-0.937,0.863-1.882,1.717-2.867,2.525c-2.71,2.222-7.008,5.676-10.85,5.095c0.828,6.336,1.656,12.671,2.484,19.007
					c6.353-2.974,12.476-6.236,18.173-10.349c-4.875-4.875-9.75-9.75-14.625-14.625c-1.484,2.546-7.276,4.712-10.185,5.372
					c-3.599,0.816-7.482,0.478-10.813-1.132c-0.812,6.21-1.623,12.419-2.435,18.629c3.057-0.695,6.114-1.388,9.166-2.105
					c11.477-2.698,8.555-19.706-2.714-20.055c-5.187-0.161-10.071-0.395-15.056-1.915c-9.451-2.881-17.91,10.409-9.988,17.158
					c0.201,0.171,0.402,0.342,0.603,0.513c2.66,2.266,6.427,3.949,9.984,2.639c6.601-2.431,13.139-5.145,20.134-6.193
					c11.433-1.713,8.555-20.195-2.702-19.965c-9.28,0.189-17.472,4.865-22.298,12.791c-4.631,7.605,3.113,18.564,11.964,15.562
					c12.499-4.239,20.43-12.821,29.832-21.52c-5.511-3.208-11.023-6.417-16.534-9.625c-1.505,4.143-4.136,7.795-6.722,11.332
					c-5.957,8.148,5.803,19.665,13.936,13.936c3.948-2.781,6.904-6.056,8.904-10.484c0.951-2.104,1.674-4.301,2.604-6.411
					c0.235-0.533,0.804-1.419,0.953-1.969c0.589-2.167,1.836-0.216-1.517-0.409c-1.579-0.427-3.158-0.854-4.737-1.281
					c0.376,0.196,0.752,0.392,1.128,0.588c-1.118-1.118-2.235-2.235-3.353-3.353c0.216,0.35,0.433,0.7,0.649,1.05
					c-0.425-1.57-0.85-3.141-1.274-4.711c-0.039,0.438-0.079,0.876-0.118,1.314c0.425-1.572,0.85-3.144,1.276-4.716
					c-0.269,0.369-0.538,0.737-0.807,1.106c1.119-1.119,2.237-2.237,3.356-3.356c0.64-0.17,1.279-0.339,1.919-0.509
					c1.383,5.237,2.765,10.473,4.148,15.71c-0.345,0.28-7.836-2.01-6.896-2.782c-0.43,0.353-0.5,1.358-0.957,1.792
					c2.165-0.897,4.331-1.794,6.496-2.691c-0.339,0.028-0.677,0.055-1.016,0.083c2.673,1.533,5.345,3.066,8.018,4.599
					c-0.157-0.297-0.315-0.595-0.472-0.892c0.313,2.396,0.627,4.792,0.94,7.188c0.449-3,1.481-5.669,1.722-8.749
					c-5.841,0.791-11.682,1.581-17.524,2.372c0.069,0.512,0.139,1.024,0.208,1.536C186.835,152.806,197.71,152.819,201.068,147.28
					L201.068,147.28z"/>
			</g>
		</g>
		<g>
			<g>
				<path style="fill:#C62828;" d="M149.99,99.268c-3.853,5.101-6.481,12.825-4.38,19.131c2.825,8.479,14.099,10.276,19.178,2.815
					c7.976-11.717-2.795-39.272-18.886-27.69c-11.954,8.604-7.945,35.328,8.873,34.907c15.563-0.39,24.022-26.152,9.406-33.916
					c-15-7.969-30.982,8.797-25.523,23.727c2.442,6.678,8.798,11.795,16.093,11.769c8.72-0.031,15.365-7.37,15.366-15.923
					c0.001-6.656-3.853-14.512-9.781-17.764c-8.407-4.611-17.869-0.144-22.059,7.927c-3.31,6.375-3.031,14.473,1.897,19.973
					c5.53,6.172,14.738,6.938,21.481,2.345c13.922-9.484,6.069-31.989-10.168-32.683c-17.548-0.75-21.533,24.486-8.284,33.072
					c14.863,9.632,31.184-8.933,26.868-23.712c-2.049-7.017-8.528-12.242-15.858-12.536c-7.886-0.316-14.391,5.618-18.105,12.056
					c-8.019,13.898,6.453,33.293,22.177,27.863c6.359-2.196,10.657-8.678,14.788-13.639c5.554-6.669,11.768-13.592,9.251-22.987
					c-1.884-7.03-8.435-11.888-15.69-11.486c-8.042,0.445-16.416,8.218-18.349,15.966c-1.86,7.456,1.945,15.534,9.452,17.879
					c7.585,2.37,16.44-1.335,22.156-6.277c6.537-5.652,9.365-15.525,3.101-22.543c-6.218-6.966-16.483-6.461-24.034-1.989
					c-7.083,4.195-12.666,13.071-10.701,21.483c2.466,10.552,14.324,13.71,23.284,9.645c6.808-3.088,13.29-8.188,14.915-15.82
					c2.114-9.927-6.548-18.768-16.352-18.549c-7.82,0.175-17.643,5.363-20.135,13.151c-3.44,10.749,5.756,18.158,15.547,18.491
					c9.553,0.325,13.814-14.019,4.992-18.431c-2.295-1.148-0.411-0.252-0.175,1.091c0,1.902,0,3.803,0,5.705
					c-2.409,2.536-2.855,3.261-1.339,2.175c0.651-0.44,1.327-0.84,2.026-1.201c0.489-0.906-3.234,0.39-3.93-1.241
					c-0.479-1.77-0.958-3.541-1.437-5.311c-0.192-1.8,2.45-1.306-0.256-0.594c-0.932,0.642-1.896,1.231-2.893,1.768
					c1.269-0.265,2.473-0.117,3.612,0.446c0.892,1.531,1.784,3.061,2.676,4.592c0.643,1.77-0.789,0.598,0.412,0.131
					c0.421-0.255,0.841-0.51,1.262-0.765c3.06-0.781,1.816-3.396-3.73-7.843c-0.452,0.132-1.856,1.232-1.916,1.261
					c-3.759,1.808-1.215-1.178,1.222,1.795c0.889,1.525,1.778,3.051,2.667,4.576c0.564,1.495-0.925,2.575,0.265,0.978
					c2.585-3.468-3.748,0.64-4.687-1.479c-0.449-1.66-0.898-3.32-1.347-4.98c0.431-0.61,0.52-0.657,0.265-0.141
					c-0.928,1.195-1.854,2.391-2.778,3.59c-1.125,1.517-2.19,3.086-3.299,4.616c-1.471,2.03-2.895,4.148-4.493,6.08
					c-1.783,2.156-2.674,1.247,1.42,1.385c-0.292-0.136-0.514-0.348-0.667-0.635c-0.592-1.033-0.706-0.579-0.344,1.363
					c0.23-0.076,1.074-1.403,1.016-1.551c0.355-0.43,0.739-0.831,1.152-1.202c-1.861,0.82-3.126,0.537-3.793-0.849
					c1.894-0.114-1.927-0.686-0.728-0.066c-0.14,0.283-0.33,0.529-0.57,0.739c1.627,0.385,3.254,0.77,4.881,1.155
					c0.346,1.003,0.365,1.262,0.055,0.779c-1.563-0.952-3.222-0.304-4.975,1.943c-3.409-2.121,2.797-6.885,5.804-1.652
					c-0.17,1.265-0.077,1.606,0.279,1.021c1.544-1.943-0.629-1.993-6.518-0.148c0.243,0.317,0.436,0.661,0.58,1.034
					c1.675-3.861,3.949-4.979,6.822-3.356c2.02,1.873-2.6,3.272-3.977,0.211c-0.452-1.671-0.904-3.342-1.356-5.012
					c-0.099-0.87,0.397,4.453-0.308,3.364c-0.04,0.182-0.079,0.364-0.119,0.547c1.02-0.846,2.217-1.333,3.593-1.461
					c1.453,0.847,2.906,1.694,4.359,2.541c-0.366-0.297-0.627-0.6-0.323-1.487c-0.032-0.458,0.006-0.908,0.112-1.353
					c0.653-2.05,0.527-2.07-0.378-0.06c-1.429,0.833-2.858,1.665-4.286,2.498c-0.16,0.003-0.32,0.006-0.48,0.008
					c-1.626-0.44-3.252-0.88-4.878-1.32c-1.501-0.774-0.338-1.508,0.108,1.217c0.171,1.049,0.058,1.821-0.279,2.843
					c0.781-1.341,1.563-2.682,2.344-4.022c-0.239,0.307-0.477,0.614-0.716,0.92c1.34-0.781,2.68-1.562,4.021-2.343
					c-0.343,0.101-0.686,0.201-1.028,0.302c2.35,0.307,4.699,0.615,7.049,0.922c0.163,0.131,0.326,0.263,0.489,0.394
					c0.789,1.354,1.579,2.709,2.368,4.063c-0.705-2.131-0.672-4.136,0.303-6.238C168.018,97.886,156.107,91.167,149.99,99.268
					L149.99,99.268z"/>
			</g>
		</g>
		<g>
			<g>
				<path style="fill:#C62828;" d="M194.657,86.333c-11.754-8.237-21.736,8.489-15.634,18.53c5.534,9.107,20.358,7.209,26.04-0.759
					c8.045-11.282-5.047-21.577-16.051-19.586c-11.099,2.008-18.075,15.606-9.933,24.784c6.984,7.872,20.097,6.178,27.239-0.793
					c8.919-8.705,0.393-20.302-9.551-22.61c-12.74-2.958-22.849,10.554-15.457,21.575c5.551,8.276,20.191,11.204,27.782,4.04
					c12.237-11.549-7.507-28.537-18.401-17.643c-4.819,4.819-4.579,12.734,0.011,17.603c4.091,4.339,10.05,6.191,15.896,6.083
					c5.975-0.111,12.244-6.473,9.755-12.806c-1.135-2.888-2.512-5.409-5.387-6.86c-10.621-5.359-19.937,7.178-12.419,16.096
					c2.038,2.417,4.234,4.699,6.384,7.017c9.226,9.951,24.61-5.341,14.916-14.916c-2.247-2.219-4.456-4.484-6.806-6.595
					c-3.324,5.71-6.647,11.419-9.971,17.129c0.184,0.044,0.369,0.089,0.553,0.133c-2.028-1.56-4.057-3.12-6.085-4.679
					c0.108,0.157,0.217,0.314,0.325,0.47c2.015-4.954,4.031-9.907,6.046-14.861c0.807-0.131,1.507-0.519,2.03,0.507
					c0.459,1.695,0.917,3.391,1.376,5.086c-0.004-0.413-0.008-0.825-0.012-1.238c-0.46,1.699-0.919,3.398-1.379,5.097
					c0.22-0.335,0.44-0.669,0.66-1.004c-2.016,1.55-4.032,3.1-6.048,4.65c0.432-0.127,0.865-0.254,1.297-0.382
					c-1.791,0-3.582,0-5.374,0c1.55,0.305,1.889,0.323,1.017,0.054c-1.201-1.201-2.402-2.402-3.603-3.603
					c0.163,0.291,0.326,0.581,0.489,0.872c-0.337-2.575-0.674-5.15-1.011-7.725c-0.066,0.335-0.133,0.671-0.199,1.006
					c0.858-1.472,1.716-2.944,2.573-4.416c1.359-0.416,1.667-0.718,0.926-0.904c1.887,0.116,2.622,1.57,2.205,4.361
					c-0.86,1.475-1.72,2.95-2.579,4.426c-1.435,1.568-3.825,1.289-4.563-0.218c-0.447-1.652-0.894-3.305-1.341-4.957
					c0.003,0.355,0.006,0.71,0.009,1.065c0.447-1.654,0.895-3.308,1.342-4.961c0.461-0.505,0.921-1.011,1.382-1.516
					c-0.568,0.407-1.184,0.691-1.848,0.854c-0.41,0.62,1.19-0.405,1.908,0.472c0.854,1.465,1.708,2.93,2.562,4.396
					c0.769,1.861-3.166,5.891-5.235,3.428c-0.84-1.442-1.68-2.883-2.521-4.325c0.09,0.366,0.179,0.731,0.269,1.097
					c0-1.735,0-3.47,0-5.204c-0.095,0.326-0.189,0.651-0.284,0.977c0.838-1.438,1.676-2.876,2.514-4.314
					c0.747-0.203,0.55-0.063-0.589,0.421c-0.575,0.111-0.224,0.056,1.052-0.167c1.421,0.828,2.842,1.656,4.263,2.485
					c0.098,2.071,0.196,4.143,0.295,6.214c-2.194,0.909-4.389,1.818-6.583,2.727c0.417-0.006,0.835-0.012,1.252-0.018
					C199.451,102.797,201.675,91.252,194.657,86.333L194.657,86.333z"/>
			</g>
		</g>
		<g>
			<g>
				<path style="fill:#C62828;" d="M166.598,131.624c6.338-2.279,11.483-6.573,17.054-10.242c2.44-1.607,4.969-3.372,7.634-4.589
					c3.167-1.446,6.468-1.554,9.546-3.357c6.209-3.637,5.658-12.112,0-15.866c-8.053-5.344-18.109,0.267-25.211,4.769
					c-6.85,4.343-14.744,9.445-18.605,16.822C153.854,125.204,159.2,134.284,166.598,131.624L166.598,131.624z"/>
			</g>
		</g>
		<g>
			<g>
				<path style="fill:#C62828;" d="M180.953,121.595c6.824-1.809,12.867-3.611,19.847-1.455c12.209,3.77,17.593-16.488,5.234-18.984
					c-11.834-2.39-23.694-1.588-33.472,6.024C165.423,112.736,173.27,123.631,180.953,121.595L180.953,121.595z"/>
			</g>
		</g>
		<g>
			<g>
				<path style="fill:#C62828;" d="M193.261,98.793c-0.93-0.095-1.871,0.131-2.757,0.378c-1.399,0.389-3.222,1.365-4.175,2.491
					c-0.882,0.82-1.506,1.79-1.871,2.912c-0.567,1.078-0.826,2.24-0.779,3.486c0.108,0.802,0.215,1.604,0.323,2.406
					c0.28,1.178,0.82,2.203,1.62,3.077c0.402,0.68,0.943,1.221,1.623,1.623c0.874,0.8,1.9,1.34,3.077,1.62
					c2.346,0.534,4.873,0.379,6.973-0.912c0.032-0.02,0.065-0.04,0.097-0.06c-0.722,0.305-1.444,0.609-2.166,0.914
					c0.036-0.012,0.073-0.023,0.109-0.035c-0.805,0.108-1.61,0.216-2.415,0.325c0.038-0.003,0.076-0.006,0.113-0.009
					c-0.807-0.108-1.613-0.217-2.42-0.325c0.037,0.006,0.074,0.012,0.111,0.017c-0.726-0.307-1.453-0.613-2.179-0.92
					c0.034,0.015,0.069,0.03,0.103,0.046c1.426,0.827,2.963,1.243,4.613,1.248c1.65-0.005,3.188-0.421,4.613-1.248
					c2.004-1.292,3.556-3.12,4.201-5.463c0.381-1.215,0.435-2.43,0.163-3.645c-0.055-1.216-0.417-2.349-1.085-3.398
					c-0.813-1.374-1.906-2.467-3.279-3.279C196.449,99.214,194.911,98.798,193.261,98.793L193.261,98.793z"/>
			</g>
		</g>
		<g>
			<g>
				<path style="fill:#C62828;" d="M153.524,99.375c3.113-0.61,6.017-2.191,9.109-2.986c3.291-0.846,6.378-0.9,9.762-0.772
					c6.549,0.248,12.988,2.144,18.491,5.686c11.563,7.443,22.893-11.967,10.756-18.401c-9.275-4.917-19.516-7.781-30.073-7.035
					c-8.806,0.622-22.678,2.993-27.203,11.596C140.939,93.981,146.564,100.738,153.524,99.375L153.524,99.375z"/>
			</g>
		</g>
		<g>
			<g>
				<path style="fill:#C62828;" d="M146.903,85.252c-7.198,1.467-11.632,9.396-14.567,15.551
					c-3.391,7.111-4.316,15.362-0.681,22.592c7.382,14.683,29.603,17.091,38.83,2.966c5.644-8.64-5.829-20.742-14.558-14.558
					c-2.37,1.679-5.295,5.218-6.941,1c-1.684-4.317,3.307-10.798,6.104-13.487C161.485,93.169,154.752,83.653,146.903,85.252
					L146.903,85.252z"/>
			</g>
		</g>
		<g>
			<g>
				<path style="fill:#C62828;" d="M147.216,85.435c-0.616,0.541-1.001,1.075-1.121,1.902c-0.158,1.093,1.517,1.562,1.672,0.461
					c0.017-0.121,0.034-0.241,0.051-0.362c-0.212,0.162-0.425,0.323-0.637,0.485c0.25,0.009,0.5,0.018,0.75,0.027
					c1.137,0.042,2.117-1.432,1.389-2.421c-1.21-1.644-3.215-1.109-4.518,0.156c-1.577,1.53,0.508,4.404,2.399,3.11
					c0.645-0.442,1.277-0.896,1.903-1.364c2.361-1.766-0.247-5.192-2.485-3.221c-0.782,0.688-1.684,1.25-2.537,1.845
					c0.781,1.013,1.563,2.025,2.344,3.038c0.607-0.64,1.218-1.275,1.828-1.911c1.528-1.594-0.463-4.432-2.43-3.149
					c-0.874,0.57-1.731,1.168-2.594,1.756c-2.141,1.459-0.121,4.968,2.045,3.498c1.959-1.33,3.955-2.619,5.877-4.003
					c0.892-0.642,1.325-1.775,0.731-2.789c-0.537-0.918-1.861-1.333-2.789-0.731c-1.987,1.289-3.913,2.681-5.864,4.025
					c0.682,1.166,1.363,2.332,2.045,3.498c0.859-0.594,1.726-1.18,2.574-1.791c-0.81-1.05-1.62-2.1-2.43-3.149
					c-0.575,0.671-1.149,1.344-1.728,2.012c-1.351,1.559,0.41,4.341,2.344,3.038c1.007-0.679,1.991-1.403,3.07-1.964
					c-0.828-1.074-1.657-2.147-2.485-3.221c-0.617,0.48-1.221,0.969-1.817,1.475c0.933,0.933,1.867,1.867,2.8,2.8
					c0.26-0.31,0.337-0.257,0.724-0.437c0.455-0.212,0.693-0.504,0.995-0.895c-0.98-0.128-1.96-0.256-2.941-0.384
					c0.055,0.223,0.109,0.446,0.164,0.669c0.154-0.271,0.308-0.542,0.462-0.813c-0.102,0.036-0.203,0.072-0.305,0.108
					c0.154,0.557,0.307,1.115,0.461,1.672c0.876-0.352,1.344-0.791,1.784-1.634C149.534,85.644,148.159,84.607,147.216,85.435
					L147.216,85.435z"/>
			</g>
		</g>
		<g>
			<g>
				<path style="fill:#C62828;" d="M137.791,94.215c-0.362,0.399-0.725,0.798-1.087,1.197c1.167,0.679,2.334,1.359,3.501,2.038
					c0.172-0.749,0.345-1.499,0.517-2.248c0.567-2.467-2.539-3.623-3.943-1.662c-0.718,0.998-1.432,1.999-2.14,3.004
					c1.327,0.56,2.655,1.119,3.982,1.679c0.334-0.901,0.668-1.801,1.002-2.702c0.881-2.376-2.759-3.757-3.999-1.686
					c-1.468,2.45-2.883,4.936-4.481,7.304c1.325,0.775,2.651,1.549,3.976,2.324c0.713-1.466,1.335-2.964,1.968-4.465
					c-1.503-0.414-3.007-0.829-4.51-1.243c-1.363,4.177-3.005,8.266-4.491,12.401c1.603,0.442,3.206,0.884,4.809,1.326
					c0.646-2.533,1.295-5.062,1.866-7.614c0.587-2.621-3.252-4.577-4.555-1.92c-2.354,4.798-3.38,9.586-3.156,14.929
					c1.68,0,3.361,0,5.041,0c-0.13-1.564-0.286-3.121-0.456-4.681c-0.297-2.724-4.091-3.568-4.968-0.672
					c-1.526,5.034-0.349,9.858,3.168,13.726c1.191-1.191,2.381-2.381,3.572-3.572c-0.538-0.561-1.079-1.118-1.622-1.674
					c-2.011-2.064-5.422,0.579-3.976,3.067c4.992,8.585,12.876,15.148,23.262,14.696c0-1.798,0-3.597,0-5.395
					c-1.545,0.163-3.088,0.316-4.637,0.442c-2.639,0.214-3.645,4.352-0.67,4.948c9.577,1.918,18.928-0.625,25.662-7.87
					c-1.377-1.062-2.753-2.125-4.13-3.187c-0.465,0.834-0.926,1.671-1.384,2.509c-1.465,2.671,1.889,5.097,4.105,3.167
					c2.014-1.754,3.795-3.651,5.024-6.038c1.51-2.932-2.399-5.019-4.311-2.52c-1.371,1.793-2.683,3.406-4.41,4.861
					c1.368,1.056,2.737,2.111,4.105,3.167c0.474-0.829,0.945-1.66,1.412-2.493c1.436-2.55-2.035-5.411-4.13-3.187
					c-5.292,5.62-12.962,8.416-20.603,6.731c-0.223,1.649-0.446,3.299-0.67,4.948c1.546-0.05,3.089-0.072,4.637-0.084
					c3.473-0.028,3.474-5.494,0-5.395c-8.46,0.241-14.787-4.799-18.89-11.856c-1.325,1.022-2.65,2.045-3.976,3.067
					c0.541,0.558,1.084,1.113,1.63,1.666c2.289,2.327,5.78-1.195,3.572-3.572c-2.386-2.568-2.919-5.552-1.862-8.81
					c-1.656-0.224-3.312-0.448-4.968-0.672c0.14,1.564,0.293,3.121,0.474,4.681c0.364,3.151,5.286,3.283,5.041,0
					c-0.33-4.434,0.42-8.426,2.419-12.413c-1.518-0.64-3.037-1.28-4.555-1.92c-0.674,2.526-1.269,5.068-1.868,7.613
					c-0.74,3.141,3.782,4.357,4.809,1.326c1.407-4.156,2.664-8.371,4.193-12.483c0.914-2.458-3.194-4.226-4.275-1.802
					c-0.664,1.49-1.319,2.97-1.902,4.493c-0.932,2.438,3.012,4.07,4.208,1.774c1.319-2.532,2.83-4.962,4.284-7.419
					c-1.333-0.562-2.666-1.124-3.999-1.686c-0.328,0.902-0.656,1.805-0.984,2.707c-0.894,2.46,2.656,3.577,3.982,1.679
					c0.706-1.005,1.407-2.013,2.102-3.026c-1.314-0.554-2.629-1.108-3.943-1.662c-0.132,0.761-0.264,1.521-0.396,2.282
					c-0.316,1.818,2.037,3.836,3.501,2.038c0.342-0.42,0.683-0.84,1.025-1.259C142.325,95.108,139.595,92.227,137.791,94.215
					L137.791,94.215z"/>
			</g>
		</g>
		<g>
			<g>
				<path style="fill:#C62828;" d="M157.518,138.656c1.915,0,1.918-2.977,0-2.977C155.603,135.679,155.6,138.656,157.518,138.656
					L157.518,138.656z"/>
			</g>
		</g>
		<g>
			<g>
				<path style="fill:#C62828;" d="M157.518,138.656c1.915,0,1.918-2.977,0-2.977C155.603,135.679,155.6,138.656,157.518,138.656
					L157.518,138.656z"/>
			</g>
		</g>
		<g>
			<g>
				<path style="fill:#C62828;" d="M152.109,138.577c3.755,0.657,7.265-1.036,10.593-2.68c-1.021-1.021-2.043-2.043-3.064-3.064
					c-0.219,0.227-0.438,0.454-0.657,0.681c0.182,1.343,0.364,2.687,0.545,4.03c6.443-1.049,11.663-7.005,16.405-11.02
					c2.255-1.91-1.011-5.168-3.248-3.248c-4.35,3.734-8.677,8.504-14.248,10.311c-2.069,0.671-1.863,4.344,0.545,4.03
					c2.145-0.279,3.21-0.793,4.524-2.524c1.484-1.955-1.283-3.935-3.064-3.064c-2.839,1.389-6.06,1.889-8.725,3.549
					C150.619,136.263,150.644,138.321,152.109,138.577L152.109,138.577z"/>
			</g>
		</g>
		<g>
			<g>
				<path style="fill:#C62828;" d="M130.678,113.359c0.553-0.286,1.001-0.85,1.173-1.444c0.085-0.292,0.09-0.638,0.133-0.94
					c0.067-0.472,0.182-0.95,0.118-1.424c-0.094-0.7-0.405-1.428-1.098-1.743c-0.641-0.291-1.296-0.373-1.933,0
					c-0.573,0.335-0.963,0.983-0.949,1.654c0.001,0.03,0.001,0.06,0.002,0.09c0.082-0.302,0.164-0.605,0.245-0.907
					c-0.585,1.023-1.132,2.081-0.526,3.246c0.728,1.399,2.917,0.716,2.911-0.788c0-0.077-0.001-0.154-0.001-0.231
					c-0.063,0.233-0.126,0.466-0.189,0.699c0.396-0.726,0.427-1.398,0.314-2.199c-0.215,0.529-0.431,1.058-0.646,1.587
					c0.008-0.006,0.015-0.011,0.023-0.017c0.734-0.552,1.049-1.473,0.434-2.271c-0.586-0.759-1.611-0.769-2.306-0.156
					c-0.536,0.472-0.853,1.202-1.273,1.774c1.035,0.437,2.071,0.873,3.106,1.31c0.252-0.618,0.364-1.335,0.441-1.993
					c-1.05,0.435-2.1,0.87-3.151,1.305c0.068,0.06,0.135,0.121,0.203,0.181c-0.136-0.233-0.272-0.467-0.408-0.7
					c0.02,0.056,0.039,0.112,0.059,0.169c0.217,0.62,0.78,1.159,1.482,1.128c0.657-0.029,1.327-0.453,1.482-1.128
					c0.013-0.056,0.026-0.112,0.039-0.169c-0.136,0.233-0.272,0.467-0.408,0.7c0.054-0.06,0.108-0.121,0.163-0.181
					c0.789-0.879,0.687-2.278-0.374-2.899c-0.965-0.565-2.489-0.084-2.711,1.103c-0.12,0.641-0.21,1.377-0.154,2.032
					c0.062,0.725,0.481,1.464,1.248,1.639c0.681,0.155,1.605-0.084,1.919-0.781c0.293-0.65,0.774-1.286,0.921-1.986
					c-0.497,0.378-0.993,0.756-1.49,1.135c0.016-0.001,0.032-0.001,0.048-0.002c-0.452-0.344-0.904-0.688-1.355-1.032
					c-0.061-0.193,0.024,0.132,0.022,0.02c-0.002-0.109-0.104,0.203-0.016,0.035c0.276-0.212,0.551-0.424,0.827-0.636
					c-0.075,0.02-0.15,0.04-0.224,0.06c0.588,0.765,1.176,1.53,1.764,2.295c0.111-0.178,0.19-0.37,0.247-0.573
					c0.019-0.068,0.116-0.385-0.012-0.089c0.01-0.022,0.144-0.255,0.143-0.256c0.074,0.066-0.484,0.305-0.092,0.13
					c-0.462,0.06-0.923,0.121-1.385,0.181c0.028,0.008,0.057,0.016,0.085,0.024c0-1.231,0-2.462,0-3.694
					c-0.602,0.092-1.152,0.61-1.406,1.134c-0.203,0.419-0.26,0.816-0.324,1.267c-0.049,0.346-0.098,0.692-0.145,1.038
					c-0.098,0.73,0.183,1.498,0.72,2.007C129.015,113.669,129.908,113.759,130.678,113.359L130.678,113.359z"/>
			</g>
		</g>
		<g>
			<g>
				<path style="fill:#C62828;" d="M159.419,81.497c7.326-1.572,14.97-2.69,22.285-0.452c3.114,0.953,4.193-3.615,1.315-4.769
					c-1.156-0.465-2.313-0.927-3.47-1.388c-0.219,1.617-0.438,3.233-0.656,4.849c4.076,0.398,7.853,1.366,11.603,3.028
					c0.843-1.442,1.686-2.885,2.529-4.327c-1.113-0.485-2.217-0.952-3.341-1.412c-0.444,1.611-0.888,3.222-1.333,4.834
					c4.037,1.165,7.275,3.295,10.955,5.184c2.239,1.149,4.914-1.824,2.826-3.663c-3.56-3.134-8.025-4.808-12.449-6.355
					c-2.645-0.925-4.547,3.441-1.931,4.581c1.113,0.485,2.217,0.951,3.341,1.41c2.99,1.222,4.266-3.613,1.332-4.832
					c-4.371-1.816-8.837-2.888-13.534-3.386c-3.003-0.318-3.004,3.903-0.656,4.849c1.155,0.467,2.311,0.932,3.468,1.395
					c0.438-1.59,0.876-3.179,1.315-4.769c-7.717-2.209-17.809-1.873-25.162,1.516C155.677,78.797,157.284,81.955,159.419,81.497
					L159.419,81.497z"/>
			</g>
		</g>
		<g>
			<g>
				<path style="fill:#C62828;" d="M222.818,140.235c0.496-1.865-0.148-4.347-0.789-6.109c-0.155-0.427-0.449-0.616-0.883-0.672
					c-0.308-0.04-0.433,0.061-0.648,0.268c-0.235,0.228-0.318,0.578-0.235,0.891c0.246,0.932,0.506,1.855,0.671,2.806
					c0.162,0.934,0.168,1.918,0.473,2.817C221.631,140.895,222.624,140.965,222.818,140.235L222.818,140.235z"/>
			</g>
		</g>
		<g>
			<g>
				<path style="fill:#C62828;" d="M222.854,141.013c0.134-0.303,0.235-0.548,0.218-0.882c-0.056-1.087-1.634-1.089-1.69,0
					c-0.017,0.334,0.086,0.584,0.218,0.882C221.81,141.489,222.643,141.489,222.854,141.013L222.854,141.013z"/>
			</g>
		</g>
		<g>
			<g>
				<path style="fill:#C62828;" d="M222.15,138.105c3.247-2.481,2.375-9.747,0.4-12.813c-0.912-1.416-3.581-1.002-3.421,0.927
					c0.174,2.098,0.852,4.087,0.94,6.21c0.075,1.791-0.323,3.651,0.558,5.278C220.888,138.188,221.682,138.463,222.15,138.105
					L222.15,138.105z"/>
			</g>
		</g>
		<g>
			<g>
				<path style="fill:#C62828;" d="M223.379,138.495c0.758-1.166,1.115-3.186,0.387-4.431c-0.566-0.969-2.305-1.156-2.817,0
					c-0.305,0.688-0.319,1.293-0.339,2.022c-0.015,0.559-0.065,1.098-0.013,1.656C220.733,139.198,222.535,139.795,223.379,138.495
					L223.379,138.495z"/>
			</g>
		</g>
		<g>
			<g>
				<path style="fill:#C62828;" d="M223.094,136.416c0.251-1.358-0.438-2.505-1.073-3.673c-0.616-1.134-1.118-2.25-2.168-3.037
					c-1.191-0.892-3.126,0.305-3.015,1.73c0.1,1.289,0.842,2.372,1.462,3.482c0.657,1.177,1.227,2.263,2.524,2.787
					C221.696,138.057,222.928,137.315,223.094,136.416L223.094,136.416z"/>
			</g>
		</g>
		<g>
			<g>
				<path style="fill:#C62828;" d="M221.847,133.788c-0.303-3.8-2.867-8.247-5.106-11.257c-1.74-2.34-5.301-0.379-3.962,2.316
					c0.911,1.833,2.023,3.585,3.1,5.325c1,1.616,1.856,3.428,3.248,4.744C220.058,135.796,221.963,135.232,221.847,133.788
					L221.847,133.788z"/>
			</g>
		</g>
		<g>
			<g>
				<path style="fill:#C62828;" d="M202.009,120.715c2.127,1.612,4.356,3.069,6.595,4.519c1.82,1.178,4.977,2.37,6.057,4.287
					c1.033-1.343,2.066-2.687,3.098-4.03c-0.607-0.204-1.094-0.563-1.461-1.079c-0.89,1.529-1.78,3.057-2.669,4.586
					c1.049,0.365,1.584,0.907,2.134,1.85c0.773-1.347,1.546-2.694,2.319-4.04c-0.18,0.001-0.359,0.003-0.539,0.004
					c0.632,0.262,1.264,0.523,1.895,0.785c-0.122-0.132-0.244-0.264-0.366-0.395c-1.261,1.261-2.522,2.522-3.784,3.784
					c0.575,0.606,1.148,1.212,1.722,1.819c2.36,2.497,6.083-1.252,3.762-3.762c-0.567-0.613-1.134-1.226-1.7-1.841
					c-2.347-2.544-6.067,1.226-3.784,3.784c0.812,0.91,1.602,1.18,2.793,1.193c2.072,0.022,3.298-2.287,2.319-4.04
					c-1.23-2.201-2.984-3.546-5.312-4.431c-2.75-1.046-4.338,2.727-2.669,4.586c1.102,1.227,2.34,1.933,3.883,2.49
					c2.33,0.841,4.222-2.073,3.098-4.03c-1.452-2.529-3.995-3.641-6.385-5.131c-2.82-1.758-5.582-3.596-8.512-5.17
					C201.626,114.905,199.534,118.839,202.009,120.715L202.009,120.715z"/>
			</g>
		</g>
		<g>
			<g>
				<path style="fill:#C62828;" d="M213.834,118.156c-0.021,4.37,3.95,7.328,4.265,11.498c1.516-0.205,3.033-0.41,4.549-0.616
					c-1.403-3.534-2.131-7.103-2.169-10.91c-1.34,0.181-2.681,0.363-4.021,0.544c0.712,3.758,1.355,7.53,2.049,11.292
					c0.364,1.973,3.036,1.955,3.983,0.521c1.227-1.858,0.969-3.903,0.871-6.036c-0.123-2.667-0.245-5.334-0.368-8.002
					c-1.545,0-3.089,0-4.634,0c0.329,3.643,0.658,7.287,0.988,10.93c0.28,3.086,5.102,3.151,4.875,0
					c-0.26-3.604-0.519-7.207-0.779-10.811c-1.584,0.214-3.168,0.429-4.753,0.643c0.688,3.215,0.855,6.401,0.598,9.676
					c-0.242,3.086,4.554,3.063,4.805,0c0.303-3.7,0.028-7.332-0.736-10.962c-0.556-2.642-4.941-2.091-4.753,0.643
					c0.248,3.604,0.495,7.207,0.743,10.811c1.625,0,3.25,0,4.875,0c-0.409-3.643-0.82-7.287-1.229-10.93
					c-0.326-2.898-4.839-3.021-4.634,0c0.136,2,0.272,4.001,0.408,6.001c0.105,1.545,0.849,4.437-0.041,5.836
					c1.328,0.174,2.656,0.347,3.983,0.521c-0.757-3.742-1.565-7.476-2.304-11.221c-0.463-2.346-3.929-1.676-4.021,0.544
					c-0.173,4.158,0.427,8.212,1.796,12.141c0.809,2.324,4.726,2.144,4.549-0.616c-0.293-4.584-3.709-7.748-4.823-12.049
					C217.319,115.329,213.846,115.819,213.834,118.156L213.834,118.156z"/>
			</g>
		</g>
		<g>
			<g>
				<path style="fill:#C62828;" d="M220.656,117.209c-1.167,1.696-0.555,4.024-0.697,5.998c-0.163,2.254-1.178,4.582-0.93,6.817
					c0.201,1.816,2.509,3.318,3.981,1.649c1.866-2.116,2.152-5.289,2.127-8.032c-0.022-2.45-0.057-5.543-2.252-7.016
					C222.116,116.109,221.13,116.521,220.656,117.209L220.656,117.209z"/>
			</g>
		</g>
		<g>
			<g>
				<path style="fill:#C62828;" d="M220.536,122.753c-0.25,1.811-0.154,3.639-0.337,5.459c-0.185,1.835-0.975,3.525,0.477,5.043
					c0.482,0.504,1.271,0.708,1.938,0.512c2.343-0.686,2.448-3.163,2.647-5.249c0.2-2.102-0.032-4.354-0.976-6.256
					C223.551,120.788,220.778,120.999,220.536,122.753L220.536,122.753z"/>
			</g>
		</g>
		<g>
			<g>
				<path style="fill:#C62828;" d="M221.022,125.177c-0.459,1.024-0.463,2.067-0.721,3.145c-0.25,1.041-0.679,2.008-1.033,3.014
					c-0.825,2.343,2.619,3.572,3.866,1.63c0.673-1.048,1.083-2.281,1.33-3.496c0.243-1.198,0.554-2.67,0.072-3.834
					C223.987,124.315,221.781,123.483,221.022,125.177L221.022,125.177z"/>
			</g>
		</g>
		<g>
			<g>
				<path style="fill:#C62828;" d="M207.901,97.265c1.551,2.338,3.049,4.703,3.896,7.401c0.754,2.402,0.519,5.326,1.858,7.444
					c0.861,1.362,2.877,1.427,3.724,0c1.587-2.674,0.437-6.573-0.602-9.313c-1.183-3.121-2.922-5.972-5.471-8.159
					C209.551,93.133,206.454,95.082,207.901,97.265L207.901,97.265z"/>
			</g>
		</g>
		<g>
			<g>
				<path style="fill:#C62828;" d="M212.239,101.96c3.413,2.583,3.763,6.223,4.208,10.204c0.347,3.104,4.964,3.283,4.976,0
					c0.02-5.358-1.655-12.387-7.605-13.953C211.425,97.582,210.472,100.623,212.239,101.96L212.239,101.96z"/>
			</g>
		</g>
		<g>
			<g>
				<path style="fill:#C62828;" d="M214.726,104.987c-0.426,2.932,1.29,5.513,2.569,8.099c1.459,2.95,5.285,0.684,4.884-2.059
					c-0.257-1.758-0.54-3.51-0.84-5.261c-1.688,0.465-3.377,0.931-5.065,1.396c1.108,3.114,1.848,6.288,2.288,9.561
					c0.424,3.15,5.128,2.144,5.294-0.717c0.111-1.907-0.107-3.708-0.638-5.544c-0.97-3.351-5.763-1.922-5.156,1.421
					c0.552,3.04,0.793,6.131,1.384,9.158c0.556,2.843,4.922,2.107,4.949-0.67c0.032-3.297-0.618-6.666-1.178-9.91
					c-1.719,0.474-3.437,0.948-5.156,1.421c0.394,1.407,0.501,2.67,0.403,4.122c1.765-0.239,3.53-0.478,5.294-0.717
					c-0.62-3.229-1.442-6.387-2.421-9.525c-0.834-2.675-5.56-2.366-5.159,0.698c0.261,1.998,0.535,3.992,0.845,5.984
					c1.628-0.686,3.256-1.373,4.884-2.059c-1.181-2.334-2.143-5.192-4.532-6.48C216.465,103.417,214.901,103.778,214.726,104.987
					L214.726,104.987z"/>
			</g>
		</g>
		<g>
			<g>
				<path style="fill:#C62828;" d="M218.85,115.578c-0.29,0.981,0.024,2.119,0.211,3.101c0.197,1.032,0.598,2.008,1.637,2.447
					c1.325,0.559,2.614,0.045,3.415-1.1c0.639-0.914,0.752-1.992,0.585-3.063c-1.415,0.597-2.831,1.194-4.246,1.79
					c0.106,0.216,0.212,0.431,0.318,0.647c0.49,0.996,1.834,1.317,2.789,0.914c1.056-0.445,1.529-1.532,1.293-2.635
					c-0.051-0.239-0.102-0.478-0.153-0.716c-0.241-1.13-1.471-1.809-2.549-1.664c-1.169,0.157-1.96,1.114-2.015,2.282
					c-0.006,0.096-0.01,0.193-0.011,0.29c-0.005,0.177,0,0.129,0.015-0.143c0.055-0.122,0.424-0.518,0.107-0.235
					c0.335-0.195,0.67-0.39,1.004-0.585c-0.053,0.021-0.106,0.042-0.159,0.063c0.397,0,0.793,0,1.19,0
					c-0.042-0.014-0.084-0.029-0.126-0.043c0.329,0.192,0.658,0.383,0.987,0.575c0.317,0.698,0.42,0.861,0.308,0.491
					c-0.037-0.164-0.075-0.328-0.112-0.492c-0.056-0.246-0.105-0.494-0.169-0.738c-0.203-0.776-0.437-1.441-0.964-2.069
					C221.195,113.491,219.247,114.235,218.85,115.578L218.85,115.578z"/>
			</g>
		</g>
		<g>
			<g>
				<path style="fill:#C62828;" d="M202.122,86.712c1.509-0.825,1.385-3.156,0.23-4.229c-0.718-0.667-1.784-0.759-2.569-0.153
					c-0.834,0.644-0.891,1.609-0.504,2.524c0.057,0.134,0.307,0.418,0.069,0.063c0.064,0.095,0.071,0.25,0.106,0.357
					c0.148,0.447,0.346,0.828,0.659,1.179C200.61,87.009,201.502,87.051,202.122,86.712L202.122,86.712z"/>
			</g>
		</g>
		<g>
			<g>
				<path style="fill:#C62828;" d="M201.371,87.2c0.833,1.322,1.856,2.494,2.842,3.704c1.148-1.148,2.296-2.296,3.444-3.444
					c-1.065-1.278-2.192-2.494-3.315-3.721c-1.169,1.169-2.337,2.337-3.506,3.506c2.69,2.734,4.74,6.009,6.219,9.551
					c1.606-0.677,3.213-1.354,4.819-2.032c-1.38-2.456-2.801-4.89-4.207-7.332c-0.737,1.284-1.474,2.569-2.211,3.853
					c1.797,0.012,3.012,4.641,3.444,5.886c0.658,1.896,0.952,3.847,1.863,5.639c1.147,2.255,4.1,0.9,4.324-1.171
					c0.374-3.462-1.457-7.407-3.013-10.436c-1.436-2.795-3.273-4.992-6.618-5.04c-1.989-0.028-3.127,2.183-2.211,3.853
					c1.355,2.471,2.695,4.951,4.076,7.408c1.419,2.525,5.995,0.784,4.819-2.032c-1.864-4.464-4.436-8.173-7.798-11.655
					c-2.231-2.311-5.628,1.145-3.506,3.506c1.111,1.236,2.21,2.476,3.378,3.658c2.206,2.234,5.629-1.193,3.444-3.444
					c-0.955-0.983-1.868-1.983-2.936-2.845C202.967,83.199,199.98,84.99,201.371,87.2L201.371,87.2z"/>
			</g>
		</g>
		<g>
			<g>
				<path style="fill:#C62828;" d="M208.364,93.381c0.756,1.297,1.745,2.442,2.479,3.757c0.74,1.326,1.065,2.802,1.751,4.144
					c1.076,2.104,3.911,0.88,4.09-1.108c0.313-3.469-2.397-8.102-5.498-9.615C209.401,89.688,207.267,91.501,208.364,93.381
					L208.364,93.381z"/>
			</g>
		</g>
		<g>
			<g>
				<path style="fill:#C62828;" d="M210.421,96.198c0.495,2.219,2.351,3.774,3.492,5.686c1.279,2.143,2.021,4.314,2.718,6.693
					c0.711,2.426,4.884,2.097,4.599-0.622c-0.274-2.608-1.105-5.21-2.397-7.502c-1.367-2.424-3.473-4.018-5.161-6.148
					C212.376,92.668,210.039,94.483,210.421,96.198L210.421,96.198z"/>
			</g>
		</g>
		<g>
			<g>
				<path style="fill:#C62828;" d="M209.389,93.995c0.174,1.511,0.72,2.853,1.318,4.245c0.595,1.386,1.112,2.874,1.894,4.164
					c1.2,1.981,4.465,0.706,3.794-1.6c-0.417-1.433-1.142-2.792-1.749-4.154c-0.619-1.391-1.233-2.75-2.236-3.907
					C211.46,91.649,209.214,92.477,209.389,93.995L209.389,93.995z"/>
			</g>
		</g>
		<g>
			<g>
				<path style="fill:#C62828;" d="M211.686,96.751c0.075,1.024,0.698,2.023,1.345,2.803c0.114,0.138,0.232,0.272,0.355,0.402
					c0.514,0.543-0.06-0.116,0.189,0.222c0.068,0.135,0.086,0.139,0.053,0.012c0.024,0.082,0.049,0.164,0.073,0.246
					c0.129,0.339,0.247,0.677,0.426,0.996c0.924,1.644,3.504,1.273,3.993-0.522c0.507-1.863-0.765-3.58-2.2-4.638
					c-0.655-0.483-1.52-1.083-2.348-1.122C212.695,95.106,211.611,95.731,211.686,96.751L211.686,96.751z"/>
			</g>
		</g>
		<path style="fill:none;stroke:#293990;stroke-miterlimit:10;" d="M222.084,142.876c-7.211,18.983-25.572,32.473-47.084,32.473
			c-27.807,0-50.35-22.542-50.35-50.35c0-3.71,0.401-7.327,1.163-10.808"/>
		<path style="fill:none;stroke:#C62828;stroke-miterlimit:10;" d="M125.813,114.192C130.759,91.579,150.903,74.65,175,74.65
			c27.807,0,50.35,22.542,50.35,50.35c0,6.295-1.155,12.321-3.266,17.876"/>
		<path style="fill:none;stroke:#C62828;stroke-miterlimit:10;" d="M126.619,111.018c-5.018,12.4,14.332,32.386,32.513,26.981
			c4.15-1.234,10.49-4.411,16.867-11.244c3.377-3.618,8.321-7.946,20.196-7.427c10.523,0.46,25.883,17.133,25.883,23.546"/>
	</g>
</g>
<g id="Layer_3">
	<g>
		<polygon style="fill:#212121;" points="266.788,84.162 258.126,89.673 232.381,45.573 241.043,40.063 		"/>
		<polygon style="fill:#212121;" points="241.036,68.94 232.497,74.636 220.032,53.812 228.572,48.116 		"/>
		<polygon style="fill:#212121;" points="254.37,92.227 245.729,97.768 234.89,78.746 243.532,73.205 		"/>
		<polygon style="fill:#212121;" points="266.634,53.056 258.095,58.751 245.63,37.927 254.17,32.232 		"/>
		<polygon style="fill:#212121;" points="279.968,76.343 271.327,81.884 260.488,62.862 269.13,57.321 		"/>
	</g>
	<g>
		<polygon style="fill:#212121;" points="95.508,92.005 104.298,97.309 128.992,52.613 120.202,47.309 		"/>
		<polygon style="fill:#212121;" points="83.008,84.695 91.798,89.998 116.492,45.302 107.702,39.999 		"/>
		<polygon style="fill:#212121;" points="71.008,77.387 79.798,82.69 104.492,37.994 95.702,32.69 		"/>
	</g>
	<g>
		<polygon style="fill:#212121;" points="103.846,181.051 95.306,186.746 82.841,165.922 91.381,160.226 		"/>
		<polygon style="fill:#212121;" points="117.332,204.111 108.822,209.85 97.546,191.083 106.057,185.345 		"/>
		<polygon style="fill:#212121;" points="129.214,197.345 120.552,202.856 94.807,158.757 103.469,153.246 		"/>
		<polygon style="fill:#212121;" points="105.193,211.244 96.531,216.754 70.786,172.655 79.448,167.145 		"/>
	</g>
	<g>
		<polygon style="fill:#212121;" points="235.125,173.058 243.55,178.923 256.427,158.352 248.003,152.487 		"/>
		<polygon style="fill:#212121;" points="221.33,196.075 229.859,201.787 241.074,182.985 232.545,177.273 		"/>
		<polygon style="fill:#212121;" points="246.786,180.773 255.211,186.638 268.088,166.067 259.664,160.202 		"/>
		<polygon style="fill:#212121;" points="232.991,203.79 241.52,209.502 252.735,190.7 244.206,184.988 		"/>
		<polygon style="fill:#212121;" points="257.368,188.784 265.793,194.649 278.67,174.078 270.246,168.213 		"/>
		<polygon style="fill:#212121;" points="243.573,211.801 252.102,217.513 263.317,198.711 254.788,192.999 		"/>
	</g>
</g>
</svg>
