<?xml version="1.0" encoding="iso-8859-1"?>
<!-- Generator: Adobe Illustrator 18.1.1, SVG Export Plug-In . SVG Version: 6.00 Build 0)  -->
<svg version="1.1" xmlns="http://www.w3.org/2000/svg" xmlns:xlink="http://www.w3.org/1999/xlink" x="0px" y="0px"
	 viewBox="0 0 350 250" style="enable-background:new 0 0 350 250;" xml:space="preserve">
<g id="Layer_1">
	<rect style="fill:#F5F5F5;" width="350" height="83.333"/>
	<rect y="83.333" style="fill:#293990;" width="350" height="83.333"/>
	<rect y="166.667" style="fill:#C62828;" width="350" height="83.333"/>
</g>
<g id="Layer_2">
	<path style="fill:#F5F5F5;" d="M101.402,193.295c0,0-42.269-26.884-48.985-40.989c-8.897-18.684,0-81.977,0-81.977h97.971
		c0,0,8.897,63.293,0,81.977C143.671,166.411,101.402,193.295,101.402,193.295z"/>
</g>
<g id="Layer_3">
	<path style="fill:#C62828;" d="M101.402,185.132c0,0-37.616-25.278-43.593-38.54c-7.918-17.568-0.388-76.263-0.388-76.263h88.043
		c0,0,7.45,58.695-0.468,76.263C139.019,159.855,101.402,185.132,101.402,185.132z"/>
</g>
<g id="Layer_5">
	<path style="fill:#F5F5F5;" d="M105.671,146.5h-8.333L98.333,99c0,0,0.279-17.984-0.884-23.832
		c-0.156-0.785-1.116-3.002-1.116-3.002h5.069h5.265c0,0-0.994,2.344-1.164,3.171c-1.187,5.782-1.252,23.579-1.252,23.579
		L105.671,146.5z"/>
	<path style="fill:#F5F5F5;" d="M121.338,91.667c0,0-14.872-1-19.838-1c-4.964,0-19.829,1-19.829,1s0.996-2.843,0.996-3.833
		S81.671,84,81.671,84s14.8,0.999,19.742,1c4.987,0.001,19.924-1,19.924-1s-1.004,2.752-1.004,3.833
		C120.333,88.915,121.338,91.667,121.338,91.667z"/>
	<path style="fill:#F5F5F5;" d="M127.504,112.5c0,0-19.498-1-26.004-1c-6.504,0-25.996,1-25.996,1s0.996-2.843,0.996-3.833
		s-0.996-3.833-0.996-3.833s19.495,1,26,1c6.505,0,26-1,26-1s-1.004,2.843-1.004,3.833S127.504,112.5,127.504,112.5z"/>
</g>
<g id="Layer_4">
	<path style="fill:#293990;" d="M101.5,185.4c0,0-39.003-24.841-43.692-38.807L74.75,150.5l5-0.25l11.623,2.724l10.029-19.074
		L113,151.25l7,3l12.25-2.75l12.95-4.8C139.053,159.884,101.5,185.4,101.5,185.4z"/>
	<circle style="fill:#293990;" cx="101.5" cy="138.4" r="17.5"/>
	<path style="fill:#293990;" d="M125.751,166.497C117.549,165.046,112,158.018,112,149.4c0-9.665,7.835-17.5,17.5-17.5
		c7.673,0,14.193,4.939,16.555,11.811c0.132,0.384-0.855,2.989-0.855,2.989C140.181,153.169,126.533,166.635,125.751,166.497z"/>
	<path style="fill:#293990;" d="M92,149.4c0,9.198-7.096,16.738-16.112,17.446c-0.458,0.036-18.748-19.999-18.482-21.211
		c1.723-7.855,8.722-13.734,17.094-13.734C84.165,131.9,92,139.735,92,149.4z"/>
</g>
</svg>
