<?xml version="1.0" encoding="iso-8859-1"?>
<!-- Generator: Adobe Illustrator 18.1.1, SVG Export Plug-In . SVG Version: 6.00 Build 0)  -->
<svg version="1.1" xmlns="http://www.w3.org/2000/svg" xmlns:xlink="http://www.w3.org/1999/xlink" x="0px" y="0px"
	 viewBox="0 0 350 250" style="enable-background:new 0 0 350 250;" xml:space="preserve">
<g id="Layer_1">
	<rect style="fill:#F5F5F5;" width="350" height="83.333"/>
	<rect y="83.333" style="fill:#293990;" width="350" height="83.333"/>
	<rect y="166.667" style="fill:#C62828;" width="350" height="83.333"/>
</g>
<g id="Layer_2">
	<path style="fill:#C62828;" d="M81.803,130.295c0,0-27.419-17.439-31.776-26.589c-5.771-12.12,0-53.177,0-53.177
		s14.276-8.863,31.776-8.863c18.881,0,31.776,8.863,31.776,8.863s5.771,41.057,0,53.177
		C109.223,112.856,81.803,130.295,81.803,130.295z"/>
</g>
<g id="Layer_3">
	<path style="fill:#293990;" d="M81.803,125c0,0-24.401-16.397-28.278-25c-5.136-11.396-0.027-51.341-0.027-51.341
		s12.731-6.992,28.305-6.992c16.803,0,28.347,6.88,28.347,6.88s5.068,40.058-0.069,51.454C106.205,108.603,81.803,125,81.803,125z"
		/>
</g>
<g id="Layer_4">
	<path style="fill:#F5F5F5;" d="M81.798,125c0,0-25.673-16.274-28.714-25.333c-1.162-3.461-1.502-7.426-1.502-7.426L66.833,72
		l6.5,8.333l8.476-14.083L88,80l7.25-8.167l16.745,19.749c0,0-0.923,6.09-1.918,8.418C106.365,108.676,81.798,125,81.798,125z"/>
</g>
<g id="Layer_5">
	<g>
		<g>
			<path style="fill:#293990;" d="M56.174,101.046c6.616-3.76,10.752,0.34,16.922,2.175c4.519,1.345,6.818-0.742,10.689-2.692
				c1.827-0.92,4.814-1.664,6.837-0.87c0.967,0.379,1.905,1.618,2.82,2.243c1.278,0.873,2.482,1.631,4.034,1.879
				c3.919,0.626,7.359-1.74,10.327-3.96c1.528-1.143,0.034-3.748-1.514-2.59c-2.88,2.154-6.268,4.837-10.151,2.913
				c-1.662-0.824-2.893-2.474-4.531-3.376c-3.279-1.805-6.335-0.629-9.336,1.173c-3.584,2.151-6.746,3.254-10.802,1.359
				c-1.705-0.797-3.314-1.857-5.129-2.41c-4.062-1.237-8.037-0.503-11.68,1.567C52.981,99.41,54.491,102.003,56.174,101.046
				L56.174,101.046z"/>
		</g>
	</g>
	<g>
		<g>
			<path style="fill:#293990;" d="M59.65,106.32c4.308-1.191,7.768,2.282,11.726,3.672c4.189,1.472,7.105,0.277,10.71-1.996
				c2.3-1.45,4.164-3.048,7.535-1.337c0.976,0.496,1.775,1.482,2.668,2.125c1.275,0.918,2.67,1.867,4.286,2.042
				c2.678,0.29,4.891-1.361,6.818-2.956c1.488-1.232-0.644-3.344-2.121-2.121c-4.89,4.049-7.325-0.639-11.375-2.36
				c-3.417-1.452-6.431,0.192-9.325,2.017c-3.295,2.078-6.53,2.563-10.104,0.893c-1.721-0.804-3.375-1.678-5.129-2.41
				c-2.649-1.105-3.672-1.24-6.486-0.462C56.994,103.94,57.784,106.836,59.65,106.32L59.65,106.32z"/>
		</g>
	</g>
	<polygon style="fill:#FEEA39;" points="81.583,52.356 82.494,54.422 84.739,54.178 83.405,56 84.739,57.822 82.494,57.578 
		81.583,59.644 80.672,57.578 78.428,57.822 79.761,56 78.428,54.178 80.672,54.422 	"/>
	<polygon style="fill:#FEEA39;" points="71.583,45.356 72.494,47.422 74.739,47.178 73.405,49 74.739,50.822 72.494,50.578 
		71.583,52.644 70.672,50.578 68.427,50.822 69.761,49 68.427,47.178 70.672,47.422 	"/>
	<polygon style="fill:#FEEA39;" points="91.583,45.356 92.494,47.422 94.739,47.178 93.405,49 94.739,50.822 92.494,50.578 
		91.583,52.644 90.672,50.578 88.427,50.822 89.761,49 88.427,47.178 90.672,47.422 	"/>
</g>
</svg>
