<?xml version="1.0" encoding="iso-8859-1"?>
<!-- Generator: Adobe Illustrator 18.1.1, SVG Export Plug-In . SVG Version: 6.00 Build 0)  -->
<svg version="1.1" xmlns="http://www.w3.org/2000/svg" xmlns:xlink="http://www.w3.org/1999/xlink" x="0px" y="0px"
	 viewBox="0 0 350 250" style="enable-background:new 0 0 350 250;" xml:space="preserve">
<g id="Layer_1">
	<rect y="-0.334" style="fill:#C62828;" width="350" height="250"/>
	<polygon style="fill:#F5F5F5;" points="226.5,140.5 211.819,136.637 200.315,146.541 199.452,131.385 186.478,123.504 200.625,118 
		204.111,103.225 213.718,114.98 228.846,113.73 220.636,126.498 	"/>
</g>
<g id="Layer_2">
	<path style="fill:#F5F5F5;" d="M175.003,162.163c-13.336,19.17-32.709,30.209-56.336,30.17C81.295,192.273,51,162.038,51,124.667
		S81.296,57.28,118.667,57c22.252-0.167,41.25,10.583,54.292,27.272c0,0-32.603-24.411-57.959-16.522
		c-11.25,3.5-17.703,6.588-25,15.25c-9.687,11.5-15.518,35.701-15.417,42c0.136,8.452,0.921,29.168,12.917,40.75
		c7.25,7,13.75,11,25.502,15.5C143.815,193.049,175.003,162.163,175.003,162.163z"/>
</g>
</svg>
